G04 (created by PCBNEW (2013-03-10 BZR 3992)-stable) date 28/04/2014 23:58:44*
%MOIN*%
G04 Gerber Fmt 3.4, Leading zero omitted, Abs format*
%FSLAX34Y34*%
G01*
G70*
G90*
G04 APERTURE LIST*
%ADD10C,9.84252e-007*%
%ADD11C,0.00590551*%
%ADD12R,0.141732X0.129921*%
%ADD13C,0.066*%
%ADD14R,0.14X0.14*%
%ADD15R,0.0669291X0.0669291*%
%ADD16C,0.0669291*%
%ADD17C,0.075*%
%ADD18R,0.065X0.065*%
%ADD19C,0.065*%
%ADD20R,0.13X0.13*%
%ADD21R,0.055X0.055*%
%ADD22C,0.055*%
%ADD23R,0.065X0.06*%
%ADD24C,0.0551181*%
%ADD25C,0.0629921*%
%ADD26C,0.125984*%
%ADD27C,0.045*%
%ADD28C,0.019685*%
G04 APERTURE END LIST*
G54D10*
G54D11*
X12500Y-50000D02*
X12000Y-50000D01*
X12000Y-50000D02*
X12500Y-50000D01*
X12000Y-10000D02*
X12000Y-50000D01*
X33000Y-10000D02*
X12000Y-10000D01*
X33000Y-50000D02*
X33000Y-10000D01*
X12000Y-50000D02*
X33000Y-50000D01*
G54D12*
X24500Y-12750D03*
X24510Y-14605D03*
X24495Y-10885D03*
X20500Y-12750D03*
X20510Y-14605D03*
X20495Y-10885D03*
G54D13*
X23000Y-33500D03*
X22000Y-33500D03*
G54D14*
X18515Y-35410D03*
X15995Y-35395D03*
X13505Y-35410D03*
X16010Y-41770D03*
X18518Y-41767D03*
X13520Y-41767D03*
X29737Y-41837D03*
X27240Y-41840D03*
X24735Y-41840D03*
X27240Y-35480D03*
X24760Y-35483D03*
X29737Y-35490D03*
G54D15*
X17000Y-31000D03*
G54D16*
X18000Y-30000D03*
X17000Y-29000D03*
G54D17*
X18250Y-12750D03*
X14250Y-12750D03*
G54D18*
X15250Y-15750D03*
G54D19*
X16250Y-15750D03*
X17250Y-15750D03*
G54D20*
X20417Y-48078D03*
X24590Y-48078D03*
X22503Y-48078D03*
X22503Y-46228D03*
X24590Y-46228D03*
X20417Y-46228D03*
X20417Y-44377D03*
X24590Y-44377D03*
X22503Y-44377D03*
G54D21*
X15000Y-33000D03*
G54D22*
X16000Y-33000D03*
G54D21*
X16000Y-24000D03*
G54D22*
X17000Y-24000D03*
X18000Y-24000D03*
X19000Y-24000D03*
X19000Y-21000D03*
X18000Y-21000D03*
X17000Y-21000D03*
X16000Y-21000D03*
X19000Y-25000D03*
X16000Y-25000D03*
X29000Y-30500D03*
X26000Y-30500D03*
X26000Y-31500D03*
X29000Y-31500D03*
X26000Y-28500D03*
X29000Y-28500D03*
X28250Y-44000D03*
X28250Y-47000D03*
X29250Y-47000D03*
X29250Y-44000D03*
X30250Y-47000D03*
X30250Y-44000D03*
X14500Y-31500D03*
X14500Y-28500D03*
X28500Y-17500D03*
X28500Y-20500D03*
X21000Y-28000D03*
X24000Y-28000D03*
X21600Y-42500D03*
X21600Y-39500D03*
X21000Y-29000D03*
X24000Y-29000D03*
X29500Y-17500D03*
X29500Y-20500D03*
X26000Y-23500D03*
X29000Y-23500D03*
X19000Y-19000D03*
X16000Y-19000D03*
X26500Y-20500D03*
X26500Y-17500D03*
X16000Y-20000D03*
X19000Y-20000D03*
X20000Y-32500D03*
X17000Y-32500D03*
X27250Y-44000D03*
X27250Y-47000D03*
G54D23*
X29500Y-48500D03*
G54D19*
X30500Y-48500D03*
G54D21*
X29000Y-24500D03*
G54D22*
X28000Y-24500D03*
X27000Y-24500D03*
X26000Y-24500D03*
X26000Y-27500D03*
X27000Y-27500D03*
X28000Y-27500D03*
X29000Y-27500D03*
G54D21*
X17000Y-46000D03*
G54D22*
X16000Y-46000D03*
X15000Y-46000D03*
X14000Y-46000D03*
X14000Y-49000D03*
X15000Y-49000D03*
X16000Y-49000D03*
X17000Y-49000D03*
G54D18*
X22000Y-26500D03*
G54D19*
X22000Y-23500D03*
G54D18*
X23000Y-23500D03*
G54D19*
X23000Y-26500D03*
G54D18*
X24000Y-23500D03*
G54D19*
X24000Y-26500D03*
G54D18*
X21000Y-26500D03*
G54D19*
X21000Y-23500D03*
G54D22*
X17500Y-33500D03*
X19500Y-33500D03*
X14500Y-23500D03*
X14500Y-21500D03*
X25500Y-20000D03*
X25500Y-18000D03*
X30500Y-18000D03*
X30500Y-20000D03*
X18500Y-26000D03*
X16500Y-26000D03*
G54D17*
X24500Y-19000D03*
X20500Y-19000D03*
G54D18*
X21500Y-22000D03*
G54D19*
X22500Y-22000D03*
X23500Y-22000D03*
G54D17*
X30750Y-12750D03*
X26750Y-12750D03*
G54D18*
X27750Y-15750D03*
G54D19*
X28750Y-15750D03*
X29750Y-15750D03*
G54D22*
X26500Y-22500D03*
X28500Y-22500D03*
X18500Y-18000D03*
X16500Y-18000D03*
X27500Y-18000D03*
X27500Y-20000D03*
G54D18*
X13000Y-25000D03*
G54D19*
X13000Y-26000D03*
X13000Y-27000D03*
X13000Y-28000D03*
X13000Y-29000D03*
X13000Y-30000D03*
X13000Y-31000D03*
X13000Y-32000D03*
G54D18*
X13000Y-16000D03*
G54D19*
X13000Y-17000D03*
X13000Y-18000D03*
X13000Y-19000D03*
X13000Y-20000D03*
X13000Y-21000D03*
X13000Y-22000D03*
X13000Y-23000D03*
G54D18*
X32000Y-30000D03*
G54D19*
X32000Y-29000D03*
X32000Y-28000D03*
X32000Y-27000D03*
X32000Y-26000D03*
X32000Y-25000D03*
X32000Y-24000D03*
X32000Y-23000D03*
G54D18*
X32000Y-39000D03*
G54D19*
X32000Y-38000D03*
X32000Y-37000D03*
X32000Y-36000D03*
X32000Y-35000D03*
X32000Y-34000D03*
X32000Y-33000D03*
X32000Y-32000D03*
G54D22*
X27500Y-33500D03*
X24500Y-33500D03*
X12800Y-48600D03*
X12800Y-46600D03*
G54D18*
X32000Y-21000D03*
G54D19*
X32000Y-20000D03*
X32000Y-19000D03*
X32000Y-18000D03*
X32000Y-17000D03*
X32000Y-16000D03*
X32000Y-15000D03*
X32000Y-14000D03*
G54D21*
X15750Y-44250D03*
G54D22*
X14750Y-44250D03*
X18000Y-44250D03*
G54D21*
X17000Y-44250D03*
G54D22*
X18200Y-48600D03*
X18200Y-46600D03*
G54D21*
X27000Y-48500D03*
G54D22*
X28000Y-48500D03*
X30500Y-25000D03*
X30500Y-27000D03*
X26500Y-29500D03*
X28500Y-29500D03*
G54D21*
X30000Y-33000D03*
G54D22*
X29000Y-33000D03*
X16500Y-27000D03*
X18500Y-27000D03*
G54D24*
X32000Y-46500D03*
X32000Y-49000D03*
G54D25*
X13000Y-33500D03*
G54D24*
X18200Y-49500D03*
X12800Y-49500D03*
X32000Y-47800D03*
G54D26*
X13000Y-44000D03*
X13000Y-14500D03*
X32000Y-12000D03*
X32000Y-44500D03*
G54D27*
X30500Y-21500D03*
X27500Y-21500D03*
G54D28*
X29250Y-47000D02*
X29250Y-47335D01*
X30810Y-47690D02*
X32000Y-46500D01*
X29605Y-47690D02*
X30810Y-47690D01*
X29250Y-47335D02*
X29605Y-47690D01*
X17851Y-16351D02*
X17250Y-15750D01*
X25907Y-16351D02*
X17851Y-16351D01*
X27129Y-15129D02*
X25907Y-16351D01*
X29129Y-15129D02*
X27129Y-15129D01*
X29750Y-15750D02*
X29129Y-15129D01*
X18200Y-49000D02*
X17000Y-49000D01*
X18200Y-49000D02*
X18200Y-48600D01*
X18450Y-49250D02*
X18200Y-49000D01*
X18200Y-49500D02*
X18450Y-49250D01*
X32000Y-35072D02*
X32000Y-35000D01*
X26244Y-40828D02*
X32000Y-35072D01*
X26244Y-48155D02*
X26244Y-40828D01*
X24968Y-49431D02*
X26244Y-48155D01*
X18631Y-49431D02*
X24968Y-49431D01*
X18450Y-49250D02*
X18631Y-49431D01*
X14000Y-49000D02*
X12850Y-49000D01*
X12850Y-49000D02*
X12800Y-49050D01*
X12800Y-48600D02*
X12800Y-49050D01*
X12800Y-49050D02*
X12800Y-49500D01*
X18000Y-44250D02*
X18000Y-44820D01*
X18000Y-45969D02*
X18000Y-44820D01*
X15746Y-48222D02*
X18000Y-45969D01*
X14777Y-48222D02*
X15746Y-48222D01*
X14000Y-49000D02*
X14777Y-48222D01*
X19500Y-24500D02*
X19000Y-24000D01*
X26000Y-24500D02*
X19500Y-24500D01*
X32000Y-30000D02*
X29929Y-27929D01*
X29929Y-27929D02*
X29929Y-27617D01*
X29929Y-27617D02*
X29234Y-26922D01*
X29234Y-26922D02*
X25077Y-26922D01*
X25077Y-26922D02*
X24000Y-28000D01*
X22000Y-26500D02*
X23000Y-26500D01*
X21000Y-26500D02*
X21000Y-25900D01*
X23950Y-26450D02*
X24000Y-26500D01*
X23950Y-25950D02*
X23950Y-26450D01*
X23650Y-25650D02*
X23950Y-25950D01*
X21250Y-25650D02*
X23650Y-25650D01*
X21000Y-25900D02*
X21250Y-25650D01*
X23416Y-28416D02*
X24000Y-29000D01*
X23416Y-27022D02*
X23416Y-28416D01*
X23922Y-26516D02*
X23416Y-27022D01*
X23938Y-26500D02*
X24000Y-26500D01*
X23922Y-26516D02*
X23938Y-26500D01*
X31177Y-28177D02*
X32000Y-29000D01*
X31177Y-26848D02*
X31177Y-28177D01*
X30752Y-26424D02*
X31177Y-26848D01*
X24075Y-26424D02*
X30752Y-26424D01*
X24000Y-26500D02*
X24075Y-26424D01*
X29535Y-16535D02*
X28750Y-15750D01*
X29850Y-16535D02*
X29535Y-16535D01*
X31214Y-17899D02*
X29850Y-16535D01*
X31214Y-18214D02*
X31214Y-17899D01*
X32000Y-19000D02*
X31214Y-18214D01*
X16874Y-15125D02*
X16250Y-15750D01*
X18022Y-15125D02*
X16874Y-15125D01*
X18841Y-15943D02*
X18022Y-15125D01*
X25591Y-15943D02*
X18841Y-15943D01*
X27481Y-14053D02*
X25591Y-15943D01*
X30928Y-14053D02*
X27481Y-14053D01*
X31616Y-13366D02*
X30928Y-14053D01*
X32252Y-13366D02*
X31616Y-13366D01*
X32622Y-13736D02*
X32252Y-13366D01*
X32622Y-20377D02*
X32622Y-13736D01*
X32000Y-21000D02*
X32622Y-20377D01*
X23210Y-21289D02*
X22500Y-22000D01*
X26901Y-21289D02*
X23210Y-21289D01*
X27219Y-20971D02*
X26901Y-21289D01*
X28164Y-20971D02*
X27219Y-20971D01*
X28293Y-21100D02*
X28164Y-20971D01*
X29947Y-21100D02*
X28293Y-21100D01*
X30477Y-20570D02*
X29947Y-21100D01*
X30736Y-20570D02*
X30477Y-20570D01*
X31306Y-20000D02*
X30736Y-20570D01*
X32000Y-20000D02*
X31306Y-20000D01*
X21362Y-48669D02*
X21362Y-48078D01*
X21717Y-49024D02*
X21362Y-48669D01*
X23290Y-49024D02*
X21717Y-49024D01*
X23645Y-48669D02*
X23290Y-49024D01*
X23645Y-48078D02*
X23645Y-48669D01*
X24590Y-48078D02*
X23645Y-48078D01*
X20417Y-48078D02*
X21362Y-48078D01*
X21600Y-42500D02*
X21740Y-42500D01*
X22350Y-38475D02*
X20295Y-36420D01*
X22350Y-41890D02*
X22350Y-38475D01*
X21740Y-42500D02*
X22350Y-41890D01*
X17500Y-33500D02*
X17500Y-33865D01*
X17500Y-33865D02*
X17820Y-34185D01*
X17820Y-34185D02*
X19620Y-34185D01*
X19620Y-34185D02*
X20295Y-34860D01*
X20295Y-34860D02*
X20295Y-36420D01*
X20667Y-43432D02*
X20417Y-43432D01*
X21600Y-42500D02*
X20667Y-43432D01*
X20417Y-44377D02*
X20417Y-43432D01*
X29000Y-33000D02*
X29000Y-33200D01*
X25850Y-43117D02*
X24590Y-44377D01*
X25850Y-34899D02*
X25850Y-43117D01*
X26100Y-34650D02*
X25850Y-34899D01*
X26150Y-34650D02*
X26100Y-34650D01*
X26500Y-34300D02*
X26150Y-34650D01*
X27900Y-34300D02*
X26500Y-34300D01*
X28600Y-33600D02*
X27900Y-34300D01*
X29000Y-33200D02*
X28600Y-33600D01*
X16500Y-27000D02*
X17606Y-27000D01*
X17606Y-27000D02*
X18606Y-28000D01*
X18606Y-28000D02*
X21000Y-28000D01*
X16500Y-26000D02*
X16500Y-27000D01*
X16000Y-24000D02*
X16000Y-25000D01*
X16000Y-25500D02*
X16000Y-25000D01*
X16500Y-26000D02*
X16000Y-25500D01*
X14929Y-23500D02*
X15429Y-24000D01*
X14500Y-23500D02*
X14929Y-23500D01*
X16000Y-24000D02*
X15429Y-24000D01*
X19193Y-43437D02*
X18517Y-42762D01*
X19193Y-45004D02*
X19193Y-43437D01*
X20417Y-46228D02*
X19193Y-45004D01*
X18517Y-41767D02*
X18517Y-42762D01*
X23645Y-37593D02*
X24760Y-36478D01*
X23645Y-45282D02*
X23645Y-37593D01*
X24590Y-46228D02*
X23645Y-45282D01*
X24760Y-35482D02*
X24760Y-36478D01*
X13904Y-26095D02*
X13000Y-27000D01*
X13904Y-16026D02*
X13904Y-26095D01*
X15203Y-14727D02*
X13904Y-16026D01*
X18308Y-14727D02*
X15203Y-14727D01*
X19130Y-15550D02*
X18308Y-14727D01*
X21699Y-15550D02*
X19130Y-15550D01*
X24500Y-12750D02*
X21699Y-15550D01*
X26070Y-32070D02*
X27500Y-33500D01*
X21703Y-32070D02*
X26070Y-32070D01*
X17559Y-27926D02*
X21703Y-32070D01*
X13073Y-27926D02*
X17559Y-27926D01*
X13000Y-28000D02*
X13073Y-27926D01*
X21558Y-43349D02*
X22845Y-43349D01*
X23055Y-37882D02*
X22171Y-36999D01*
X23055Y-43140D02*
X23055Y-37882D01*
X22845Y-43349D02*
X23055Y-43140D01*
X16190Y-32080D02*
X16190Y-32080D01*
X21165Y-32585D02*
X21165Y-35992D01*
X20390Y-31810D02*
X21165Y-32585D01*
X16460Y-31810D02*
X20390Y-31810D01*
X16190Y-32080D02*
X16460Y-31810D01*
X21558Y-45282D02*
X22503Y-46228D01*
X21558Y-43349D02*
X21558Y-45282D01*
X21165Y-35992D02*
X22171Y-36999D01*
X13080Y-32080D02*
X16190Y-32080D01*
X13000Y-32000D02*
X13080Y-32080D01*
X25500Y-18000D02*
X23410Y-18000D01*
X21515Y-21985D02*
X21500Y-22000D01*
X21515Y-19895D02*
X21515Y-21985D01*
X23410Y-18000D02*
X21515Y-19895D01*
X21600Y-39500D02*
X16800Y-39500D01*
X16060Y-41720D02*
X16010Y-41770D01*
X16060Y-40240D02*
X16060Y-41720D01*
X16800Y-39500D02*
X16060Y-40240D01*
X15000Y-46000D02*
X15000Y-45750D01*
X17000Y-44750D02*
X17000Y-44250D01*
X16500Y-45250D02*
X17000Y-44750D01*
X15500Y-45250D02*
X16500Y-45250D01*
X15000Y-45750D02*
X15500Y-45250D01*
X13520Y-41767D02*
X16007Y-41767D01*
X16007Y-41767D02*
X16010Y-41770D01*
X13000Y-33500D02*
X13050Y-33500D01*
X16000Y-33400D02*
X16000Y-33000D01*
X15550Y-33850D02*
X16000Y-33400D01*
X13400Y-33850D02*
X15550Y-33850D01*
X13050Y-33500D02*
X13400Y-33850D01*
X29737Y-35490D02*
X27250Y-35490D01*
X27250Y-35490D02*
X27240Y-35480D01*
X32000Y-34000D02*
X31050Y-34000D01*
X29737Y-35313D02*
X29737Y-35490D01*
X31050Y-34000D02*
X29737Y-35313D01*
X24500Y-33500D02*
X23000Y-33500D01*
X26000Y-20000D02*
X26500Y-20500D01*
X25500Y-20000D02*
X26000Y-20000D01*
X28426Y-20573D02*
X28500Y-20500D01*
X26573Y-20573D02*
X28426Y-20573D01*
X26500Y-20500D02*
X26573Y-20573D01*
X26000Y-29000D02*
X26000Y-28500D01*
X26500Y-29500D02*
X26000Y-29000D01*
X26000Y-28500D02*
X27000Y-27500D01*
X26500Y-30000D02*
X26000Y-30500D01*
X28000Y-31500D02*
X26500Y-30000D01*
X29000Y-31500D02*
X28000Y-31500D01*
X26500Y-30000D02*
X26500Y-29500D01*
X14000Y-45000D02*
X14750Y-44250D01*
X14000Y-46000D02*
X14000Y-45000D01*
X20620Y-22620D02*
X19000Y-21000D01*
X24900Y-22620D02*
X20620Y-22620D01*
X25591Y-21929D02*
X24900Y-22620D01*
X26977Y-21929D02*
X25591Y-21929D01*
X27072Y-22024D02*
X26977Y-21929D01*
X27782Y-22024D02*
X27072Y-22024D01*
X27883Y-21923D02*
X27782Y-22024D01*
X28971Y-21923D02*
X27883Y-21923D01*
X29425Y-22377D02*
X28971Y-21923D01*
X32278Y-22377D02*
X29425Y-22377D01*
X32636Y-22735D02*
X32278Y-22377D01*
X32636Y-40962D02*
X32636Y-22735D01*
X31031Y-42568D02*
X32636Y-40962D01*
X31031Y-44218D02*
X31031Y-42568D01*
X28250Y-47000D02*
X31031Y-44218D01*
X25326Y-31500D02*
X26000Y-31500D01*
X20962Y-27135D02*
X25326Y-31500D01*
X18635Y-27135D02*
X20962Y-27135D01*
X18500Y-27000D02*
X18635Y-27135D01*
X16000Y-19000D02*
X16095Y-19000D01*
X17000Y-19905D02*
X17000Y-21000D01*
X16095Y-19000D02*
X17000Y-19905D01*
X16500Y-18000D02*
X16365Y-18000D01*
X16000Y-18365D02*
X16000Y-19000D01*
X16365Y-18000D02*
X16000Y-18365D01*
X19000Y-19000D02*
X19000Y-20000D01*
X19000Y-18500D02*
X19000Y-19000D01*
X18500Y-18000D02*
X19000Y-18500D01*
X19000Y-20000D02*
X18000Y-21000D01*
X14500Y-21500D02*
X16000Y-20000D01*
X27250Y-47000D02*
X27000Y-47250D01*
X27000Y-47250D02*
X27000Y-48500D01*
X27596Y-49096D02*
X27000Y-48500D01*
X30528Y-48528D02*
X29959Y-49096D01*
X29959Y-49096D02*
X27596Y-49096D01*
X30528Y-48528D02*
X30500Y-48500D01*
X31000Y-49000D02*
X30528Y-48528D01*
X32000Y-49000D02*
X31000Y-49000D01*
X30250Y-44000D02*
X29250Y-44000D01*
X29250Y-44000D02*
X28250Y-44000D01*
X28250Y-46000D02*
X27250Y-47000D01*
X28250Y-44000D02*
X28250Y-46000D01*
X20000Y-33000D02*
X20000Y-32500D01*
X19500Y-33500D02*
X20000Y-33000D01*
X26500Y-23000D02*
X28000Y-24500D01*
X26500Y-22500D02*
X26500Y-23000D01*
X26500Y-23000D02*
X26000Y-23500D01*
X18500Y-25500D02*
X19000Y-25000D01*
X18500Y-26000D02*
X18500Y-25500D01*
X18500Y-25500D02*
X17000Y-24000D01*
X16369Y-30369D02*
X17000Y-30369D01*
X14500Y-28500D02*
X16369Y-30369D01*
X17000Y-31000D02*
X17000Y-30369D01*
X29000Y-24500D02*
X29000Y-23500D01*
X30070Y-25000D02*
X29570Y-24500D01*
X30500Y-25000D02*
X30070Y-25000D01*
X29000Y-24500D02*
X29570Y-24500D01*
X29000Y-23000D02*
X29000Y-23500D01*
X28500Y-22500D02*
X29000Y-23000D01*
X28500Y-29500D02*
X29500Y-29500D01*
X30000Y-30000D02*
X30000Y-33000D01*
X29500Y-29500D02*
X30000Y-30000D01*
X29000Y-28500D02*
X28000Y-27500D01*
X29000Y-29000D02*
X28656Y-29343D01*
X29000Y-28500D02*
X29000Y-29000D01*
X28656Y-29343D02*
X28500Y-29500D01*
M02*
