M48
;DRILL file {Pcbnew (2013-03-10 BZR 3992)-stable} date 28/04/2014 23:59:35
;FORMAT={-:-/ absolute / inch / decimal}
FMAT,2
INCH,TZ
T1C0.025
T2C0.031
T3C0.032
T4C0.039
T5C0.040
T6C0.044
T7C0.045
T8C0.047
T9C0.067
T10C0.091
T11C0.094
T12C0.126
%
G90
G05
M72
T1
X2.75Y-2.15
X3.05Y-2.15
T2
X1.28Y-4.95
X1.82Y-4.95
X3.2Y-4.65
X3.2Y-4.78
X3.2Y-4.9
T3
X1.28Y-4.66
X1.28Y-4.86
X1.4Y-4.6
X1.4Y-4.9
X1.45Y-2.15
X1.45Y-2.35
X1.45Y-2.85
X1.45Y-3.15
X1.475Y-4.425
X1.5Y-3.3
X1.5Y-4.6
X1.5Y-4.9
X1.575Y-4.425
X1.6Y-1.9
X1.6Y-2.
X1.6Y-2.1
X1.6Y-2.4
X1.6Y-2.5
X1.6Y-3.3
X1.6Y-4.6
X1.6Y-4.9
X1.65Y-1.8
X1.65Y-2.6
X1.65Y-2.7
X1.7Y-2.1
X1.7Y-2.4
X1.7Y-3.25
X1.7Y-4.425
X1.7Y-4.6
X1.7Y-4.9
X1.75Y-3.35
X1.8Y-2.1
X1.8Y-2.4
X1.8Y-4.425
X1.82Y-4.66
X1.82Y-4.86
X1.85Y-1.8
X1.85Y-2.6
X1.85Y-2.7
X1.9Y-1.9
X1.9Y-2.
X1.9Y-2.1
X1.9Y-2.4
X1.9Y-2.5
X1.95Y-3.35
X2.Y-3.25
X2.1Y-2.8
X2.1Y-2.9
X2.16Y-3.95
X2.16Y-4.25
X2.2Y-3.35
X2.3Y-3.35
X2.4Y-2.8
X2.4Y-2.9
X2.45Y-3.35
X2.55Y-1.8
X2.55Y-2.
X2.6Y-2.35
X2.6Y-2.45
X2.6Y-2.75
X2.6Y-2.85
X2.6Y-3.05
X2.6Y-3.15
X2.65Y-1.75
X2.65Y-2.05
X2.65Y-2.25
X2.65Y-2.95
X2.7Y-2.45
X2.7Y-2.75
X2.7Y-4.85
X2.725Y-4.4
X2.725Y-4.7
X2.75Y-1.8
X2.75Y-2.
X2.75Y-3.35
X2.8Y-2.45
X2.8Y-2.75
X2.8Y-4.85
X2.825Y-4.4
X2.825Y-4.7
X2.85Y-1.75
X2.85Y-2.05
X2.85Y-2.25
X2.85Y-2.95
X2.9Y-2.35
X2.9Y-2.45
X2.9Y-2.75
X2.9Y-2.85
X2.9Y-3.05
X2.9Y-3.15
X2.9Y-3.3
X2.925Y-4.4
X2.925Y-4.7
X2.95Y-1.75
X2.95Y-2.05
X3.Y-3.3
X3.025Y-4.4
X3.025Y-4.7
X3.05Y-1.8
X3.05Y-2.
X3.05Y-2.5
X3.05Y-2.7
T4
X1.3Y-3.35
T5
X2.95Y-4.85
X3.05Y-4.85
T6
X1.3Y-1.6
X1.3Y-1.7
X1.3Y-1.8
X1.3Y-1.9
X1.3Y-2.
X1.3Y-2.1
X1.3Y-2.2
X1.3Y-2.3
X1.3Y-2.5
X1.3Y-2.6
X1.3Y-2.7
X1.3Y-2.8
X1.3Y-2.9
X1.3Y-3.
X1.3Y-3.1
X1.3Y-3.2
X1.525Y-1.575
X1.625Y-1.575
X1.725Y-1.575
X2.15Y-2.2
X2.25Y-2.2
X2.35Y-2.2
X2.775Y-1.575
X2.875Y-1.575
X2.975Y-1.575
X3.2Y-1.4
X3.2Y-1.5
X3.2Y-1.6
X3.2Y-1.7
X3.2Y-1.8
X3.2Y-1.9
X3.2Y-2.
X3.2Y-2.1
X3.2Y-2.3
X3.2Y-2.4
X3.2Y-2.5
X3.2Y-2.6
X3.2Y-2.7
X3.2Y-2.8
X3.2Y-2.9
X3.2Y-3.
X3.2Y-3.2
X3.2Y-3.3
X3.2Y-3.4
X3.2Y-3.5
X3.2Y-3.6
X3.2Y-3.7
X3.2Y-3.8
X3.2Y-3.9
T7
X1.425Y-1.275
X1.825Y-1.275
X2.05Y-1.9
X2.1Y-2.35
X2.1Y-2.65
X2.2Y-2.35
X2.2Y-2.65
X2.3Y-2.35
X2.3Y-2.65
X2.4Y-2.35
X2.4Y-2.65
X2.45Y-1.9
X2.675Y-1.275
X3.075Y-1.275
T8
X1.7Y-2.9
X1.7Y-3.1
X1.8Y-3.
T10
X2.0417Y-4.4378
X2.0417Y-4.6228
X2.0417Y-4.8079
X2.2504Y-4.4378
X2.2504Y-4.6228
X2.2504Y-4.8079
X2.4591Y-4.4378
X2.4591Y-4.6228
X2.4591Y-4.8079
T11
X2.0495Y-1.0885
X2.05Y-1.275
X2.051Y-1.4605
X2.4495Y-1.0885
X2.45Y-1.275
X2.451Y-1.4605
T12
X1.3Y-1.45
X1.3Y-4.4
X3.2Y-1.2
X3.2Y-4.45
T9
X1.3505Y-3.541G85X1.3505Y-3.541
G05
X1.352Y-4.1767G85X1.352Y-4.1767
G05
X1.5995Y-3.5395G85X1.5995Y-3.5395
G05
X1.601Y-4.177G85X1.601Y-4.177
G05
X1.8515Y-3.541G85X1.8515Y-3.541
G05
X1.8518Y-4.1767G85X1.8518Y-4.1767
G05
X2.4735Y-4.184G85X2.4735Y-4.184
G05
X2.476Y-3.5483G85X2.476Y-3.5483
G05
X2.724Y-3.548G85X2.724Y-3.548
G05
X2.724Y-4.184G85X2.724Y-4.184
G05
X2.9737Y-3.549G85X2.9737Y-3.549
G05
X2.9737Y-4.1837G85X2.9737Y-4.1837
G05
T0
M30
