G04 (created by PCBNEW (2013-03-10 BZR 3992)-stable) date 28/04/2014 23:58:44*
%MOIN*%
G04 Gerber Fmt 3.4, Leading zero omitted, Abs format*
%FSLAX34Y34*%
G01*
G70*
G90*
G04 APERTURE LIST*
%ADD10C,9.84252e-007*%
%ADD11C,0.00590551*%
%ADD12R,0.141732X0.129921*%
%ADD13C,0.066*%
%ADD14R,0.14X0.14*%
%ADD15R,0.0669291X0.0669291*%
%ADD16C,0.0669291*%
%ADD17C,0.075*%
%ADD18R,0.065X0.065*%
%ADD19C,0.065*%
%ADD20R,0.13X0.13*%
%ADD21R,0.055X0.055*%
%ADD22C,0.055*%
%ADD23R,0.065X0.06*%
%ADD24C,0.0551181*%
%ADD25C,0.0629921*%
%ADD26C,0.125984*%
%ADD27C,0.045*%
%ADD28C,0.019685*%
%ADD29C,0.01*%
G04 APERTURE END LIST*
G54D10*
G54D11*
X12500Y-50000D02*
X12000Y-50000D01*
X12000Y-50000D02*
X12500Y-50000D01*
X12000Y-10000D02*
X12000Y-50000D01*
X33000Y-10000D02*
X12000Y-10000D01*
X33000Y-50000D02*
X33000Y-10000D01*
X12000Y-50000D02*
X33000Y-50000D01*
G54D12*
X24500Y-12750D03*
X24510Y-14605D03*
X24495Y-10885D03*
X20500Y-12750D03*
X20510Y-14605D03*
X20495Y-10885D03*
G54D13*
X23000Y-33500D03*
X22000Y-33500D03*
G54D14*
X18515Y-35410D03*
X15995Y-35395D03*
X13505Y-35410D03*
X16010Y-41770D03*
X18518Y-41767D03*
X13520Y-41767D03*
X29737Y-41837D03*
X27240Y-41840D03*
X24735Y-41840D03*
X27240Y-35480D03*
X24760Y-35483D03*
X29737Y-35490D03*
G54D15*
X17000Y-31000D03*
G54D16*
X18000Y-30000D03*
X17000Y-29000D03*
G54D17*
X18250Y-12750D03*
X14250Y-12750D03*
G54D18*
X15250Y-15750D03*
G54D19*
X16250Y-15750D03*
X17250Y-15750D03*
G54D20*
X20417Y-48078D03*
X24590Y-48078D03*
X22503Y-48078D03*
X22503Y-46228D03*
X24590Y-46228D03*
X20417Y-46228D03*
X20417Y-44377D03*
X24590Y-44377D03*
X22503Y-44377D03*
G54D21*
X15000Y-33000D03*
G54D22*
X16000Y-33000D03*
G54D21*
X16000Y-24000D03*
G54D22*
X17000Y-24000D03*
X18000Y-24000D03*
X19000Y-24000D03*
X19000Y-21000D03*
X18000Y-21000D03*
X17000Y-21000D03*
X16000Y-21000D03*
X19000Y-25000D03*
X16000Y-25000D03*
X29000Y-30500D03*
X26000Y-30500D03*
X26000Y-31500D03*
X29000Y-31500D03*
X26000Y-28500D03*
X29000Y-28500D03*
X28250Y-44000D03*
X28250Y-47000D03*
X29250Y-47000D03*
X29250Y-44000D03*
X30250Y-47000D03*
X30250Y-44000D03*
X14500Y-31500D03*
X14500Y-28500D03*
X28500Y-17500D03*
X28500Y-20500D03*
X21000Y-28000D03*
X24000Y-28000D03*
X21600Y-42500D03*
X21600Y-39500D03*
X21000Y-29000D03*
X24000Y-29000D03*
X29500Y-17500D03*
X29500Y-20500D03*
X26000Y-23500D03*
X29000Y-23500D03*
X19000Y-19000D03*
X16000Y-19000D03*
X26500Y-20500D03*
X26500Y-17500D03*
X16000Y-20000D03*
X19000Y-20000D03*
X20000Y-32500D03*
X17000Y-32500D03*
X27250Y-44000D03*
X27250Y-47000D03*
G54D23*
X29500Y-48500D03*
G54D19*
X30500Y-48500D03*
G54D21*
X29000Y-24500D03*
G54D22*
X28000Y-24500D03*
X27000Y-24500D03*
X26000Y-24500D03*
X26000Y-27500D03*
X27000Y-27500D03*
X28000Y-27500D03*
X29000Y-27500D03*
G54D21*
X17000Y-46000D03*
G54D22*
X16000Y-46000D03*
X15000Y-46000D03*
X14000Y-46000D03*
X14000Y-49000D03*
X15000Y-49000D03*
X16000Y-49000D03*
X17000Y-49000D03*
G54D18*
X22000Y-26500D03*
G54D19*
X22000Y-23500D03*
G54D18*
X23000Y-23500D03*
G54D19*
X23000Y-26500D03*
G54D18*
X24000Y-23500D03*
G54D19*
X24000Y-26500D03*
G54D18*
X21000Y-26500D03*
G54D19*
X21000Y-23500D03*
G54D22*
X17500Y-33500D03*
X19500Y-33500D03*
X14500Y-23500D03*
X14500Y-21500D03*
X25500Y-20000D03*
X25500Y-18000D03*
X30500Y-18000D03*
X30500Y-20000D03*
X18500Y-26000D03*
X16500Y-26000D03*
G54D17*
X24500Y-19000D03*
X20500Y-19000D03*
G54D18*
X21500Y-22000D03*
G54D19*
X22500Y-22000D03*
X23500Y-22000D03*
G54D17*
X30750Y-12750D03*
X26750Y-12750D03*
G54D18*
X27750Y-15750D03*
G54D19*
X28750Y-15750D03*
X29750Y-15750D03*
G54D22*
X26500Y-22500D03*
X28500Y-22500D03*
X18500Y-18000D03*
X16500Y-18000D03*
X27500Y-18000D03*
X27500Y-20000D03*
G54D18*
X13000Y-25000D03*
G54D19*
X13000Y-26000D03*
X13000Y-27000D03*
X13000Y-28000D03*
X13000Y-29000D03*
X13000Y-30000D03*
X13000Y-31000D03*
X13000Y-32000D03*
G54D18*
X13000Y-16000D03*
G54D19*
X13000Y-17000D03*
X13000Y-18000D03*
X13000Y-19000D03*
X13000Y-20000D03*
X13000Y-21000D03*
X13000Y-22000D03*
X13000Y-23000D03*
G54D18*
X32000Y-30000D03*
G54D19*
X32000Y-29000D03*
X32000Y-28000D03*
X32000Y-27000D03*
X32000Y-26000D03*
X32000Y-25000D03*
X32000Y-24000D03*
X32000Y-23000D03*
G54D18*
X32000Y-39000D03*
G54D19*
X32000Y-38000D03*
X32000Y-37000D03*
X32000Y-36000D03*
X32000Y-35000D03*
X32000Y-34000D03*
X32000Y-33000D03*
X32000Y-32000D03*
G54D22*
X27500Y-33500D03*
X24500Y-33500D03*
X12800Y-48600D03*
X12800Y-46600D03*
G54D18*
X32000Y-21000D03*
G54D19*
X32000Y-20000D03*
X32000Y-19000D03*
X32000Y-18000D03*
X32000Y-17000D03*
X32000Y-16000D03*
X32000Y-15000D03*
X32000Y-14000D03*
G54D21*
X15750Y-44250D03*
G54D22*
X14750Y-44250D03*
X18000Y-44250D03*
G54D21*
X17000Y-44250D03*
G54D22*
X18200Y-48600D03*
X18200Y-46600D03*
G54D21*
X27000Y-48500D03*
G54D22*
X28000Y-48500D03*
X30500Y-25000D03*
X30500Y-27000D03*
X26500Y-29500D03*
X28500Y-29500D03*
G54D21*
X30000Y-33000D03*
G54D22*
X29000Y-33000D03*
X16500Y-27000D03*
X18500Y-27000D03*
G54D24*
X32000Y-46500D03*
X32000Y-49000D03*
G54D25*
X13000Y-33500D03*
G54D24*
X18200Y-49500D03*
X12800Y-49500D03*
X32000Y-47800D03*
G54D26*
X13000Y-44000D03*
X13000Y-14500D03*
X32000Y-12000D03*
X32000Y-44500D03*
G54D27*
X30500Y-21500D03*
X27500Y-21500D03*
G54D28*
X23500Y-22900D02*
X23500Y-23000D01*
X23500Y-23000D02*
X23000Y-23500D01*
X23500Y-22000D02*
X23500Y-22900D01*
X24000Y-23400D02*
X24000Y-23500D01*
X23500Y-22900D02*
X24000Y-23400D01*
X24620Y-24740D02*
X24000Y-24120D01*
X24000Y-23810D02*
X24000Y-24120D01*
X24000Y-23500D02*
X24000Y-23810D01*
X31059Y-36940D02*
X29340Y-36940D01*
X29340Y-36940D02*
X28235Y-35835D01*
X28235Y-35835D02*
X28235Y-34657D01*
X28235Y-34657D02*
X27994Y-34416D01*
X27994Y-34416D02*
X27590Y-34416D01*
X27590Y-34416D02*
X24620Y-31446D01*
X24620Y-31446D02*
X24620Y-24740D01*
X32000Y-36000D02*
X31059Y-36940D01*
X18216Y-15750D02*
X17250Y-15750D01*
X23500Y-21033D02*
X18216Y-15750D01*
X23500Y-22000D02*
X23500Y-21033D01*
X31059Y-36940D02*
X31059Y-45559D01*
X31059Y-45559D02*
X32000Y-46500D01*
X17000Y-49000D02*
X17000Y-46000D01*
X13922Y-23077D02*
X16000Y-21000D01*
X13922Y-33559D02*
X13922Y-23077D01*
X14889Y-34526D02*
X13922Y-33559D01*
X14889Y-42510D02*
X14889Y-34526D01*
X15639Y-43260D02*
X14889Y-42510D01*
X15728Y-43260D02*
X15639Y-43260D01*
X16429Y-43961D02*
X15728Y-43260D01*
X16429Y-44859D02*
X16429Y-43961D01*
X17000Y-45429D02*
X16429Y-44859D01*
X17000Y-46000D02*
X17000Y-45429D01*
X27924Y-28575D02*
X29000Y-27500D01*
X27924Y-32742D02*
X27924Y-28575D01*
X29458Y-34276D02*
X27924Y-32742D01*
X31276Y-34276D02*
X29458Y-34276D01*
X32000Y-35000D02*
X31276Y-34276D01*
X19570Y-24570D02*
X19000Y-24000D01*
X19570Y-29682D02*
X19570Y-24570D01*
X19373Y-29879D02*
X19570Y-29682D01*
X19373Y-32715D02*
X19373Y-29879D01*
X17515Y-34574D02*
X19373Y-32715D01*
X17515Y-43194D02*
X17515Y-34574D01*
X18000Y-43679D02*
X17515Y-43194D01*
X18000Y-44250D02*
X18000Y-43679D01*
X23000Y-26500D02*
X23000Y-27000D01*
X23000Y-27000D02*
X24000Y-28000D01*
X31500Y-17000D02*
X30500Y-18000D01*
X32000Y-17000D02*
X31500Y-17000D01*
X27500Y-18000D02*
X27500Y-17200D01*
X31800Y-16000D02*
X32000Y-16000D01*
X31050Y-16750D02*
X31800Y-16000D01*
X30550Y-16750D02*
X31050Y-16750D01*
X27800Y-16750D02*
X30550Y-16750D01*
X27500Y-17050D02*
X27800Y-16750D01*
X27500Y-17200D02*
X27500Y-17050D01*
X27000Y-22806D02*
X27000Y-24500D01*
X28500Y-21306D02*
X27000Y-22806D01*
X28500Y-20500D02*
X28500Y-21306D01*
X16000Y-45070D02*
X15750Y-44820D01*
X16000Y-46000D02*
X16000Y-45070D01*
X15750Y-44250D02*
X15750Y-44820D01*
X22549Y-14799D02*
X20500Y-12750D01*
X22549Y-17997D02*
X22549Y-14799D01*
X25429Y-20877D02*
X22549Y-17997D01*
X25429Y-30929D02*
X25429Y-20877D01*
X26000Y-31500D02*
X25429Y-30929D01*
X30500Y-21500D02*
X30500Y-20000D01*
X29500Y-19000D02*
X29500Y-17500D01*
X30500Y-20000D02*
X29500Y-19000D01*
X27500Y-21500D02*
X27500Y-20000D01*
X28500Y-19000D02*
X28500Y-17500D01*
X27500Y-20000D02*
X28500Y-19000D01*
X20379Y-28379D02*
X21000Y-29000D01*
X17000Y-21000D02*
X20379Y-24379D01*
X20379Y-24379D02*
X20379Y-28379D01*
X16122Y-31622D02*
X16112Y-31622D01*
X17080Y-27750D02*
X17570Y-27260D01*
X16440Y-27750D02*
X17080Y-27750D01*
X15495Y-28695D02*
X16440Y-27750D01*
X15495Y-31005D02*
X15495Y-28695D01*
X16112Y-31622D02*
X15495Y-31005D01*
X16122Y-31622D02*
X17000Y-32500D01*
X17570Y-24429D02*
X18000Y-24000D01*
X17570Y-27260D02*
X17570Y-24429D01*
X20560Y-33500D02*
X19500Y-33500D01*
X21555Y-32505D02*
X20560Y-33500D01*
X23400Y-32505D02*
X21555Y-32505D01*
X23760Y-32865D02*
X23400Y-32505D01*
X23760Y-34050D02*
X23760Y-32865D01*
X23890Y-34180D02*
X23760Y-34050D01*
X25620Y-34180D02*
X23890Y-34180D01*
X26085Y-34644D02*
X25620Y-34180D01*
X26085Y-40180D02*
X26085Y-34644D01*
X26085Y-40180D02*
X26085Y-42835D01*
X26085Y-42835D02*
X27250Y-44000D01*
X29580Y-20580D02*
X29500Y-20500D01*
X29580Y-24895D02*
X29580Y-20580D01*
X29404Y-25072D02*
X29580Y-24895D01*
X28572Y-25072D02*
X29404Y-25072D01*
X28000Y-24500D02*
X28572Y-25072D01*
X18000Y-29000D02*
X17000Y-29000D01*
X19078Y-27921D02*
X18000Y-29000D01*
X19078Y-26578D02*
X19078Y-27921D01*
X18500Y-26000D02*
X19078Y-26578D01*
X18000Y-29000D02*
X18000Y-30000D01*
X15000Y-32000D02*
X15000Y-33000D01*
X14500Y-31500D02*
X15000Y-32000D01*
X30500Y-29000D02*
X29000Y-30500D01*
X30500Y-27000D02*
X30500Y-29000D01*
G54D10*
G36*
X30714Y-43757D02*
X30692Y-43704D01*
X30683Y-43695D01*
X30683Y-42488D01*
X30683Y-41088D01*
X30646Y-40997D01*
X30577Y-40927D01*
X30486Y-40890D01*
X30388Y-40890D01*
X28988Y-40890D01*
X28897Y-40927D01*
X28827Y-40996D01*
X28790Y-41087D01*
X28790Y-41185D01*
X28790Y-42585D01*
X28827Y-42676D01*
X28896Y-42746D01*
X28987Y-42783D01*
X29085Y-42783D01*
X30485Y-42783D01*
X30576Y-42746D01*
X30646Y-42677D01*
X30683Y-42586D01*
X30683Y-42488D01*
X30683Y-43695D01*
X30545Y-43557D01*
X30354Y-43478D01*
X30146Y-43478D01*
X29954Y-43557D01*
X29807Y-43704D01*
X29749Y-43843D01*
X29692Y-43704D01*
X29545Y-43557D01*
X29354Y-43478D01*
X29146Y-43478D01*
X28954Y-43557D01*
X28807Y-43704D01*
X28749Y-43843D01*
X28692Y-43704D01*
X28545Y-43557D01*
X28354Y-43478D01*
X28146Y-43478D01*
X27954Y-43557D01*
X27807Y-43704D01*
X27749Y-43843D01*
X27692Y-43704D01*
X27545Y-43557D01*
X27354Y-43478D01*
X27216Y-43478D01*
X26525Y-42786D01*
X26588Y-42786D01*
X27988Y-42786D01*
X28079Y-42749D01*
X28149Y-42680D01*
X28186Y-42589D01*
X28186Y-42491D01*
X28186Y-41091D01*
X28149Y-41000D01*
X28080Y-40930D01*
X27989Y-40893D01*
X27891Y-40893D01*
X26491Y-40893D01*
X26430Y-40918D01*
X26430Y-40180D01*
X26430Y-34644D01*
X26404Y-34512D01*
X26329Y-34400D01*
X25865Y-33935D01*
X25752Y-33861D01*
X25620Y-33834D01*
X24903Y-33834D01*
X24942Y-33795D01*
X25021Y-33604D01*
X25021Y-33396D01*
X24942Y-33204D01*
X24795Y-33057D01*
X24604Y-32978D01*
X24396Y-32978D01*
X24204Y-33057D01*
X24105Y-33156D01*
X24105Y-32865D01*
X24105Y-32864D01*
X24105Y-32864D01*
X24100Y-32838D01*
X24078Y-32732D01*
X24078Y-32732D01*
X24004Y-32620D01*
X24004Y-32620D01*
X23644Y-32260D01*
X23532Y-32186D01*
X23400Y-32159D01*
X21555Y-32159D01*
X21554Y-32159D01*
X21528Y-32164D01*
X21422Y-32186D01*
X21310Y-32260D01*
X21310Y-32260D01*
X20416Y-33154D01*
X19892Y-33154D01*
X19795Y-33057D01*
X19604Y-32978D01*
X19599Y-32978D01*
X19617Y-32960D01*
X19659Y-32897D01*
X19704Y-32942D01*
X19895Y-33021D01*
X20103Y-33021D01*
X20295Y-32942D01*
X20442Y-32795D01*
X20521Y-32604D01*
X20521Y-32396D01*
X20442Y-32204D01*
X20295Y-32057D01*
X20104Y-31978D01*
X19896Y-31978D01*
X19718Y-32051D01*
X19718Y-30022D01*
X19814Y-29926D01*
X19889Y-29814D01*
X19915Y-29682D01*
X19915Y-24570D01*
X19915Y-24570D01*
X19915Y-24570D01*
X19910Y-24544D01*
X19889Y-24438D01*
X19889Y-24438D01*
X19814Y-24326D01*
X19814Y-24326D01*
X19521Y-24033D01*
X19521Y-24010D01*
X20034Y-24522D01*
X20034Y-28379D01*
X20060Y-28511D01*
X20135Y-28623D01*
X20478Y-28966D01*
X20478Y-29103D01*
X20557Y-29295D01*
X20704Y-29442D01*
X20895Y-29521D01*
X21103Y-29521D01*
X21295Y-29442D01*
X21442Y-29295D01*
X21521Y-29104D01*
X21521Y-28896D01*
X21442Y-28704D01*
X21295Y-28557D01*
X21156Y-28499D01*
X21295Y-28442D01*
X21442Y-28295D01*
X21521Y-28104D01*
X21521Y-27896D01*
X21442Y-27704D01*
X21295Y-27557D01*
X21104Y-27478D01*
X20896Y-27478D01*
X20724Y-27549D01*
X20724Y-27071D01*
X21373Y-27071D01*
X21464Y-27034D01*
X21500Y-26999D01*
X21534Y-27034D01*
X21625Y-27071D01*
X21723Y-27071D01*
X22373Y-27071D01*
X22464Y-27034D01*
X22534Y-26965D01*
X22569Y-26878D01*
X22654Y-26963D01*
X22654Y-27000D01*
X22681Y-27132D01*
X22755Y-27244D01*
X23478Y-27966D01*
X23478Y-28103D01*
X23557Y-28295D01*
X23704Y-28442D01*
X23843Y-28500D01*
X23704Y-28557D01*
X23557Y-28704D01*
X23478Y-28895D01*
X23478Y-29103D01*
X23557Y-29295D01*
X23704Y-29442D01*
X23895Y-29521D01*
X24103Y-29521D01*
X24275Y-29450D01*
X24275Y-31446D01*
X24301Y-31578D01*
X24376Y-31690D01*
X27346Y-34660D01*
X27346Y-34660D01*
X27458Y-34735D01*
X27458Y-34735D01*
X27564Y-34756D01*
X27590Y-34762D01*
X27590Y-34762D01*
X27590Y-34762D01*
X27851Y-34762D01*
X27890Y-34800D01*
X27890Y-35835D01*
X27916Y-35967D01*
X27991Y-36079D01*
X29096Y-37184D01*
X29096Y-37184D01*
X29208Y-37259D01*
X29208Y-37259D01*
X29314Y-37280D01*
X29340Y-37285D01*
X29340Y-37285D01*
X29340Y-37285D01*
X30714Y-37285D01*
X30714Y-43757D01*
X30714Y-43757D01*
G37*
G54D29*
X30714Y-43757D02*
X30692Y-43704D01*
X30683Y-43695D01*
X30683Y-42488D01*
X30683Y-41088D01*
X30646Y-40997D01*
X30577Y-40927D01*
X30486Y-40890D01*
X30388Y-40890D01*
X28988Y-40890D01*
X28897Y-40927D01*
X28827Y-40996D01*
X28790Y-41087D01*
X28790Y-41185D01*
X28790Y-42585D01*
X28827Y-42676D01*
X28896Y-42746D01*
X28987Y-42783D01*
X29085Y-42783D01*
X30485Y-42783D01*
X30576Y-42746D01*
X30646Y-42677D01*
X30683Y-42586D01*
X30683Y-42488D01*
X30683Y-43695D01*
X30545Y-43557D01*
X30354Y-43478D01*
X30146Y-43478D01*
X29954Y-43557D01*
X29807Y-43704D01*
X29749Y-43843D01*
X29692Y-43704D01*
X29545Y-43557D01*
X29354Y-43478D01*
X29146Y-43478D01*
X28954Y-43557D01*
X28807Y-43704D01*
X28749Y-43843D01*
X28692Y-43704D01*
X28545Y-43557D01*
X28354Y-43478D01*
X28146Y-43478D01*
X27954Y-43557D01*
X27807Y-43704D01*
X27749Y-43843D01*
X27692Y-43704D01*
X27545Y-43557D01*
X27354Y-43478D01*
X27216Y-43478D01*
X26525Y-42786D01*
X26588Y-42786D01*
X27988Y-42786D01*
X28079Y-42749D01*
X28149Y-42680D01*
X28186Y-42589D01*
X28186Y-42491D01*
X28186Y-41091D01*
X28149Y-41000D01*
X28080Y-40930D01*
X27989Y-40893D01*
X27891Y-40893D01*
X26491Y-40893D01*
X26430Y-40918D01*
X26430Y-40180D01*
X26430Y-34644D01*
X26404Y-34512D01*
X26329Y-34400D01*
X25865Y-33935D01*
X25752Y-33861D01*
X25620Y-33834D01*
X24903Y-33834D01*
X24942Y-33795D01*
X25021Y-33604D01*
X25021Y-33396D01*
X24942Y-33204D01*
X24795Y-33057D01*
X24604Y-32978D01*
X24396Y-32978D01*
X24204Y-33057D01*
X24105Y-33156D01*
X24105Y-32865D01*
X24105Y-32864D01*
X24105Y-32864D01*
X24100Y-32838D01*
X24078Y-32732D01*
X24078Y-32732D01*
X24004Y-32620D01*
X24004Y-32620D01*
X23644Y-32260D01*
X23532Y-32186D01*
X23400Y-32159D01*
X21555Y-32159D01*
X21554Y-32159D01*
X21528Y-32164D01*
X21422Y-32186D01*
X21310Y-32260D01*
X21310Y-32260D01*
X20416Y-33154D01*
X19892Y-33154D01*
X19795Y-33057D01*
X19604Y-32978D01*
X19599Y-32978D01*
X19617Y-32960D01*
X19659Y-32897D01*
X19704Y-32942D01*
X19895Y-33021D01*
X20103Y-33021D01*
X20295Y-32942D01*
X20442Y-32795D01*
X20521Y-32604D01*
X20521Y-32396D01*
X20442Y-32204D01*
X20295Y-32057D01*
X20104Y-31978D01*
X19896Y-31978D01*
X19718Y-32051D01*
X19718Y-30022D01*
X19814Y-29926D01*
X19889Y-29814D01*
X19915Y-29682D01*
X19915Y-24570D01*
X19915Y-24570D01*
X19915Y-24570D01*
X19910Y-24544D01*
X19889Y-24438D01*
X19889Y-24438D01*
X19814Y-24326D01*
X19814Y-24326D01*
X19521Y-24033D01*
X19521Y-24010D01*
X20034Y-24522D01*
X20034Y-28379D01*
X20060Y-28511D01*
X20135Y-28623D01*
X20478Y-28966D01*
X20478Y-29103D01*
X20557Y-29295D01*
X20704Y-29442D01*
X20895Y-29521D01*
X21103Y-29521D01*
X21295Y-29442D01*
X21442Y-29295D01*
X21521Y-29104D01*
X21521Y-28896D01*
X21442Y-28704D01*
X21295Y-28557D01*
X21156Y-28499D01*
X21295Y-28442D01*
X21442Y-28295D01*
X21521Y-28104D01*
X21521Y-27896D01*
X21442Y-27704D01*
X21295Y-27557D01*
X21104Y-27478D01*
X20896Y-27478D01*
X20724Y-27549D01*
X20724Y-27071D01*
X21373Y-27071D01*
X21464Y-27034D01*
X21500Y-26999D01*
X21534Y-27034D01*
X21625Y-27071D01*
X21723Y-27071D01*
X22373Y-27071D01*
X22464Y-27034D01*
X22534Y-26965D01*
X22569Y-26878D01*
X22654Y-26963D01*
X22654Y-27000D01*
X22681Y-27132D01*
X22755Y-27244D01*
X23478Y-27966D01*
X23478Y-28103D01*
X23557Y-28295D01*
X23704Y-28442D01*
X23843Y-28500D01*
X23704Y-28557D01*
X23557Y-28704D01*
X23478Y-28895D01*
X23478Y-29103D01*
X23557Y-29295D01*
X23704Y-29442D01*
X23895Y-29521D01*
X24103Y-29521D01*
X24275Y-29450D01*
X24275Y-31446D01*
X24301Y-31578D01*
X24376Y-31690D01*
X27346Y-34660D01*
X27346Y-34660D01*
X27458Y-34735D01*
X27458Y-34735D01*
X27564Y-34756D01*
X27590Y-34762D01*
X27590Y-34762D01*
X27590Y-34762D01*
X27851Y-34762D01*
X27890Y-34800D01*
X27890Y-35835D01*
X27916Y-35967D01*
X27991Y-36079D01*
X29096Y-37184D01*
X29096Y-37184D01*
X29208Y-37259D01*
X29208Y-37259D01*
X29314Y-37280D01*
X29340Y-37285D01*
X29340Y-37285D01*
X29340Y-37285D01*
X30714Y-37285D01*
X30714Y-43757D01*
G54D10*
G36*
X31712Y-35499D02*
X31676Y-35514D01*
X31515Y-35675D01*
X31428Y-35885D01*
X31428Y-36083D01*
X30916Y-36595D01*
X29483Y-36595D01*
X28580Y-35692D01*
X28580Y-34657D01*
X28580Y-34657D01*
X28580Y-34657D01*
X28575Y-34631D01*
X28554Y-34525D01*
X28554Y-34525D01*
X28479Y-34413D01*
X28479Y-34413D01*
X28238Y-34172D01*
X28126Y-34097D01*
X27994Y-34071D01*
X27733Y-34071D01*
X27660Y-33998D01*
X27795Y-33942D01*
X27942Y-33795D01*
X28021Y-33604D01*
X28021Y-33396D01*
X27973Y-33280D01*
X29214Y-34520D01*
X29214Y-34520D01*
X29281Y-34565D01*
X29326Y-34595D01*
X29326Y-34595D01*
X29458Y-34622D01*
X31133Y-34622D01*
X31428Y-34916D01*
X31428Y-35113D01*
X31514Y-35323D01*
X31675Y-35484D01*
X31712Y-35499D01*
X31712Y-35499D01*
G37*
G54D29*
X31712Y-35499D02*
X31676Y-35514D01*
X31515Y-35675D01*
X31428Y-35885D01*
X31428Y-36083D01*
X30916Y-36595D01*
X29483Y-36595D01*
X28580Y-35692D01*
X28580Y-34657D01*
X28580Y-34657D01*
X28580Y-34657D01*
X28575Y-34631D01*
X28554Y-34525D01*
X28554Y-34525D01*
X28479Y-34413D01*
X28479Y-34413D01*
X28238Y-34172D01*
X28126Y-34097D01*
X27994Y-34071D01*
X27733Y-34071D01*
X27660Y-33998D01*
X27795Y-33942D01*
X27942Y-33795D01*
X28021Y-33604D01*
X28021Y-33396D01*
X27973Y-33280D01*
X29214Y-34520D01*
X29214Y-34520D01*
X29281Y-34565D01*
X29326Y-34595D01*
X29326Y-34595D01*
X29458Y-34622D01*
X31133Y-34622D01*
X31428Y-34916D01*
X31428Y-35113D01*
X31514Y-35323D01*
X31675Y-35484D01*
X31712Y-35499D01*
G54D10*
G36*
X32822Y-49822D02*
X32522Y-49822D01*
X32522Y-48896D01*
X32443Y-48704D01*
X32296Y-48557D01*
X32104Y-48477D01*
X31896Y-48477D01*
X31704Y-48556D01*
X31557Y-48703D01*
X31477Y-48895D01*
X31477Y-49103D01*
X31556Y-49295D01*
X31703Y-49442D01*
X31895Y-49522D01*
X32103Y-49522D01*
X32295Y-49443D01*
X32442Y-49296D01*
X32522Y-49104D01*
X32522Y-48896D01*
X32522Y-49822D01*
X31071Y-49822D01*
X31071Y-48386D01*
X30985Y-48176D01*
X30824Y-48015D01*
X30614Y-47928D01*
X30386Y-47928D01*
X30176Y-48014D01*
X30015Y-48175D01*
X29928Y-48385D01*
X29928Y-48613D01*
X30014Y-48823D01*
X30175Y-48984D01*
X30385Y-49071D01*
X30613Y-49071D01*
X30823Y-48985D01*
X30984Y-48824D01*
X31071Y-48614D01*
X31071Y-48386D01*
X31071Y-49822D01*
X29771Y-49822D01*
X29771Y-46896D01*
X29692Y-46704D01*
X29545Y-46557D01*
X29354Y-46478D01*
X29146Y-46478D01*
X28954Y-46557D01*
X28807Y-46704D01*
X28749Y-46843D01*
X28692Y-46704D01*
X28545Y-46557D01*
X28354Y-46478D01*
X28146Y-46478D01*
X27954Y-46557D01*
X27807Y-46704D01*
X27749Y-46843D01*
X27692Y-46704D01*
X27545Y-46557D01*
X27354Y-46478D01*
X27146Y-46478D01*
X26954Y-46557D01*
X26807Y-46704D01*
X26728Y-46895D01*
X26728Y-47103D01*
X26807Y-47295D01*
X26954Y-47442D01*
X27145Y-47521D01*
X27353Y-47521D01*
X27545Y-47442D01*
X27692Y-47295D01*
X27750Y-47156D01*
X27807Y-47295D01*
X27954Y-47442D01*
X28145Y-47521D01*
X28353Y-47521D01*
X28545Y-47442D01*
X28692Y-47295D01*
X28750Y-47156D01*
X28807Y-47295D01*
X28954Y-47442D01*
X29145Y-47521D01*
X29353Y-47521D01*
X29545Y-47442D01*
X29692Y-47295D01*
X29771Y-47104D01*
X29771Y-46896D01*
X29771Y-49822D01*
X27521Y-49822D01*
X27521Y-48726D01*
X27521Y-48176D01*
X27484Y-48085D01*
X27415Y-48015D01*
X27324Y-47978D01*
X27226Y-47978D01*
X26676Y-47978D01*
X26585Y-48015D01*
X26515Y-48084D01*
X26478Y-48175D01*
X26478Y-48273D01*
X26478Y-48823D01*
X26515Y-48914D01*
X26584Y-48984D01*
X26675Y-49021D01*
X26773Y-49021D01*
X27323Y-49021D01*
X27414Y-48984D01*
X27484Y-48915D01*
X27521Y-48824D01*
X27521Y-48726D01*
X27521Y-49822D01*
X25681Y-49822D01*
X25681Y-42491D01*
X25681Y-41091D01*
X25644Y-41000D01*
X25575Y-40930D01*
X25484Y-40893D01*
X25386Y-40893D01*
X23986Y-40893D01*
X23895Y-40930D01*
X23825Y-40999D01*
X23788Y-41090D01*
X23788Y-41188D01*
X23788Y-42588D01*
X23825Y-42679D01*
X23894Y-42749D01*
X23985Y-42786D01*
X24083Y-42786D01*
X25483Y-42786D01*
X25574Y-42749D01*
X25644Y-42680D01*
X25681Y-42589D01*
X25681Y-42491D01*
X25681Y-49822D01*
X25487Y-49822D01*
X25487Y-48679D01*
X25487Y-47379D01*
X25487Y-46829D01*
X25487Y-45529D01*
X25487Y-44979D01*
X25487Y-43679D01*
X25449Y-43588D01*
X25380Y-43518D01*
X25289Y-43481D01*
X25191Y-43481D01*
X23891Y-43481D01*
X23800Y-43518D01*
X23731Y-43587D01*
X23693Y-43678D01*
X23693Y-43776D01*
X23693Y-45076D01*
X23731Y-45167D01*
X23800Y-45237D01*
X23891Y-45274D01*
X23989Y-45274D01*
X25289Y-45274D01*
X25380Y-45237D01*
X25449Y-45167D01*
X25487Y-45077D01*
X25487Y-44979D01*
X25487Y-45529D01*
X25449Y-45438D01*
X25380Y-45369D01*
X25289Y-45331D01*
X25191Y-45331D01*
X23891Y-45331D01*
X23800Y-45368D01*
X23731Y-45438D01*
X23693Y-45529D01*
X23693Y-45627D01*
X23693Y-46927D01*
X23731Y-47017D01*
X23800Y-47087D01*
X23891Y-47125D01*
X23989Y-47125D01*
X25289Y-47125D01*
X25380Y-47087D01*
X25449Y-47018D01*
X25487Y-46927D01*
X25487Y-46829D01*
X25487Y-47379D01*
X25449Y-47289D01*
X25380Y-47219D01*
X25289Y-47181D01*
X25191Y-47181D01*
X23891Y-47181D01*
X23800Y-47219D01*
X23731Y-47288D01*
X23693Y-47379D01*
X23693Y-47477D01*
X23693Y-48777D01*
X23731Y-48868D01*
X23800Y-48937D01*
X23891Y-48975D01*
X23989Y-48975D01*
X25289Y-48975D01*
X25380Y-48938D01*
X25449Y-48868D01*
X25487Y-48778D01*
X25487Y-48679D01*
X25487Y-49822D01*
X23400Y-49822D01*
X23400Y-46829D01*
X23400Y-45529D01*
X23400Y-44979D01*
X23400Y-43679D01*
X23363Y-43588D01*
X23293Y-43518D01*
X23203Y-43481D01*
X23105Y-43481D01*
X22121Y-43481D01*
X22121Y-42396D01*
X22042Y-42204D01*
X21895Y-42057D01*
X21704Y-41978D01*
X21496Y-41978D01*
X21304Y-42057D01*
X21157Y-42204D01*
X21078Y-42395D01*
X21078Y-42603D01*
X21157Y-42795D01*
X21304Y-42942D01*
X21495Y-43021D01*
X21703Y-43021D01*
X21895Y-42942D01*
X22042Y-42795D01*
X22121Y-42604D01*
X22121Y-42396D01*
X22121Y-43481D01*
X21805Y-43481D01*
X21714Y-43518D01*
X21644Y-43587D01*
X21607Y-43678D01*
X21607Y-43776D01*
X21607Y-45076D01*
X21644Y-45167D01*
X21713Y-45237D01*
X21804Y-45274D01*
X21902Y-45274D01*
X23202Y-45274D01*
X23293Y-45237D01*
X23363Y-45167D01*
X23400Y-45077D01*
X23400Y-44979D01*
X23400Y-45529D01*
X23363Y-45438D01*
X23293Y-45369D01*
X23203Y-45331D01*
X23105Y-45331D01*
X21805Y-45331D01*
X21714Y-45368D01*
X21644Y-45438D01*
X21607Y-45529D01*
X21607Y-45627D01*
X21607Y-46927D01*
X21644Y-47017D01*
X21713Y-47087D01*
X21804Y-47125D01*
X21902Y-47125D01*
X23202Y-47125D01*
X23293Y-47087D01*
X23363Y-47018D01*
X23400Y-46927D01*
X23400Y-46829D01*
X23400Y-49822D01*
X21314Y-49822D01*
X21314Y-48679D01*
X21314Y-47379D01*
X21314Y-46829D01*
X21314Y-45529D01*
X21314Y-44979D01*
X21314Y-43679D01*
X21276Y-43588D01*
X21207Y-43518D01*
X21116Y-43481D01*
X21018Y-43481D01*
X19718Y-43481D01*
X19627Y-43518D01*
X19558Y-43587D01*
X19520Y-43678D01*
X19520Y-43776D01*
X19520Y-45076D01*
X19557Y-45167D01*
X19627Y-45237D01*
X19718Y-45274D01*
X19816Y-45274D01*
X21116Y-45274D01*
X21206Y-45237D01*
X21276Y-45167D01*
X21314Y-45077D01*
X21314Y-44979D01*
X21314Y-45529D01*
X21276Y-45438D01*
X21207Y-45369D01*
X21116Y-45331D01*
X21018Y-45331D01*
X19718Y-45331D01*
X19627Y-45368D01*
X19558Y-45438D01*
X19520Y-45529D01*
X19520Y-45627D01*
X19520Y-46927D01*
X19557Y-47017D01*
X19627Y-47087D01*
X19718Y-47125D01*
X19816Y-47125D01*
X21116Y-47125D01*
X21206Y-47087D01*
X21276Y-47018D01*
X21314Y-46927D01*
X21314Y-46829D01*
X21314Y-47379D01*
X21276Y-47289D01*
X21207Y-47219D01*
X21116Y-47181D01*
X21018Y-47181D01*
X19718Y-47181D01*
X19627Y-47219D01*
X19558Y-47288D01*
X19520Y-47379D01*
X19520Y-47477D01*
X19520Y-48777D01*
X19557Y-48868D01*
X19627Y-48937D01*
X19718Y-48975D01*
X19816Y-48975D01*
X21116Y-48975D01*
X21206Y-48938D01*
X21276Y-48868D01*
X21314Y-48778D01*
X21314Y-48679D01*
X21314Y-49822D01*
X18616Y-49822D01*
X18642Y-49796D01*
X18722Y-49604D01*
X18722Y-49396D01*
X18643Y-49204D01*
X18496Y-49057D01*
X18478Y-49049D01*
X18495Y-49042D01*
X18642Y-48895D01*
X18721Y-48704D01*
X18721Y-48496D01*
X18642Y-48304D01*
X18495Y-48157D01*
X18304Y-48078D01*
X18096Y-48078D01*
X17904Y-48157D01*
X17757Y-48304D01*
X17678Y-48495D01*
X17678Y-48703D01*
X17757Y-48895D01*
X17904Y-49042D01*
X17921Y-49049D01*
X17904Y-49056D01*
X17757Y-49203D01*
X17677Y-49395D01*
X17677Y-49603D01*
X17756Y-49795D01*
X17783Y-49822D01*
X13216Y-49822D01*
X13242Y-49796D01*
X13322Y-49604D01*
X13322Y-49396D01*
X13243Y-49204D01*
X13096Y-49057D01*
X13078Y-49049D01*
X13095Y-49042D01*
X13242Y-48895D01*
X13321Y-48704D01*
X13321Y-48496D01*
X13242Y-48304D01*
X13095Y-48157D01*
X12904Y-48078D01*
X12696Y-48078D01*
X12504Y-48157D01*
X12357Y-48304D01*
X12278Y-48495D01*
X12278Y-48703D01*
X12357Y-48895D01*
X12504Y-49042D01*
X12521Y-49049D01*
X12504Y-49056D01*
X12357Y-49203D01*
X12277Y-49395D01*
X12277Y-49603D01*
X12356Y-49795D01*
X12383Y-49822D01*
X12177Y-49822D01*
X12177Y-44306D01*
X12256Y-44496D01*
X12502Y-44742D01*
X12824Y-44876D01*
X13173Y-44876D01*
X13496Y-44743D01*
X13742Y-44497D01*
X13876Y-44175D01*
X13876Y-43826D01*
X13743Y-43503D01*
X13497Y-43257D01*
X13175Y-43123D01*
X12826Y-43123D01*
X12503Y-43256D01*
X12257Y-43502D01*
X12177Y-43693D01*
X12177Y-14806D01*
X12256Y-14996D01*
X12502Y-15242D01*
X12824Y-15376D01*
X13173Y-15376D01*
X13496Y-15243D01*
X13742Y-14997D01*
X13876Y-14675D01*
X13876Y-14326D01*
X13743Y-14003D01*
X13497Y-13757D01*
X13175Y-13623D01*
X12826Y-13623D01*
X12503Y-13756D01*
X12257Y-14002D01*
X12177Y-14193D01*
X12177Y-10177D01*
X19542Y-10177D01*
X19539Y-10186D01*
X19539Y-10284D01*
X19539Y-11583D01*
X19576Y-11674D01*
X19646Y-11743D01*
X19737Y-11781D01*
X19835Y-11781D01*
X21252Y-11781D01*
X21343Y-11743D01*
X21412Y-11674D01*
X21450Y-11583D01*
X21450Y-11485D01*
X21450Y-10186D01*
X21447Y-10177D01*
X23542Y-10177D01*
X23539Y-10186D01*
X23539Y-10284D01*
X23539Y-11583D01*
X23576Y-11674D01*
X23646Y-11743D01*
X23737Y-11781D01*
X23835Y-11781D01*
X25252Y-11781D01*
X25343Y-11743D01*
X25412Y-11674D01*
X25450Y-11583D01*
X25450Y-11485D01*
X25450Y-10186D01*
X25447Y-10177D01*
X32822Y-10177D01*
X32822Y-11693D01*
X32743Y-11503D01*
X32497Y-11257D01*
X32175Y-11123D01*
X31826Y-11123D01*
X31503Y-11256D01*
X31257Y-11502D01*
X31123Y-11824D01*
X31123Y-12173D01*
X31172Y-12292D01*
X31102Y-12223D01*
X30874Y-12128D01*
X30626Y-12128D01*
X30398Y-12222D01*
X30223Y-12397D01*
X30128Y-12625D01*
X30128Y-12873D01*
X30222Y-13101D01*
X30397Y-13276D01*
X30625Y-13371D01*
X30873Y-13371D01*
X31101Y-13277D01*
X31276Y-13102D01*
X31371Y-12874D01*
X31371Y-12626D01*
X31361Y-12601D01*
X31502Y-12742D01*
X31824Y-12876D01*
X32173Y-12876D01*
X32496Y-12743D01*
X32742Y-12497D01*
X32822Y-12306D01*
X32822Y-44193D01*
X32743Y-44003D01*
X32497Y-43757D01*
X32175Y-43623D01*
X31826Y-43623D01*
X31503Y-43756D01*
X31404Y-43855D01*
X31404Y-37083D01*
X31428Y-37060D01*
X31428Y-37113D01*
X31514Y-37323D01*
X31675Y-37484D01*
X31712Y-37499D01*
X31676Y-37514D01*
X31515Y-37675D01*
X31428Y-37885D01*
X31428Y-38113D01*
X31514Y-38323D01*
X31621Y-38430D01*
X31535Y-38465D01*
X31465Y-38534D01*
X31428Y-38625D01*
X31428Y-38723D01*
X31428Y-39373D01*
X31465Y-39464D01*
X31534Y-39534D01*
X31625Y-39571D01*
X31723Y-39571D01*
X32373Y-39571D01*
X32464Y-39534D01*
X32534Y-39465D01*
X32571Y-39374D01*
X32571Y-39276D01*
X32571Y-38626D01*
X32534Y-38535D01*
X32465Y-38465D01*
X32378Y-38430D01*
X32484Y-38324D01*
X32571Y-38114D01*
X32571Y-37886D01*
X32485Y-37676D01*
X32324Y-37515D01*
X32287Y-37500D01*
X32323Y-37485D01*
X32484Y-37324D01*
X32571Y-37114D01*
X32571Y-36886D01*
X32485Y-36676D01*
X32324Y-36515D01*
X32287Y-36500D01*
X32323Y-36485D01*
X32484Y-36324D01*
X32571Y-36114D01*
X32571Y-35886D01*
X32485Y-35676D01*
X32324Y-35515D01*
X32287Y-35500D01*
X32323Y-35485D01*
X32484Y-35324D01*
X32571Y-35114D01*
X32571Y-34886D01*
X32571Y-31886D01*
X32571Y-28886D01*
X32485Y-28676D01*
X32324Y-28515D01*
X32287Y-28500D01*
X32323Y-28485D01*
X32484Y-28324D01*
X32571Y-28114D01*
X32571Y-27886D01*
X32485Y-27676D01*
X32324Y-27515D01*
X32287Y-27500D01*
X32323Y-27485D01*
X32484Y-27324D01*
X32571Y-27114D01*
X32571Y-26886D01*
X32485Y-26676D01*
X32324Y-26515D01*
X32287Y-26500D01*
X32323Y-26485D01*
X32484Y-26324D01*
X32571Y-26114D01*
X32571Y-25886D01*
X32485Y-25676D01*
X32324Y-25515D01*
X32287Y-25500D01*
X32323Y-25485D01*
X32484Y-25324D01*
X32571Y-25114D01*
X32571Y-24886D01*
X32485Y-24676D01*
X32324Y-24515D01*
X32287Y-24500D01*
X32323Y-24485D01*
X32484Y-24324D01*
X32571Y-24114D01*
X32571Y-23886D01*
X32485Y-23676D01*
X32324Y-23515D01*
X32287Y-23500D01*
X32323Y-23485D01*
X32484Y-23324D01*
X32571Y-23114D01*
X32571Y-22886D01*
X32571Y-19886D01*
X32485Y-19676D01*
X32324Y-19515D01*
X32287Y-19500D01*
X32323Y-19485D01*
X32484Y-19324D01*
X32571Y-19114D01*
X32571Y-18886D01*
X32485Y-18676D01*
X32324Y-18515D01*
X32287Y-18500D01*
X32323Y-18485D01*
X32484Y-18324D01*
X32571Y-18114D01*
X32571Y-17886D01*
X32485Y-17676D01*
X32324Y-17515D01*
X32287Y-17500D01*
X32323Y-17485D01*
X32484Y-17324D01*
X32571Y-17114D01*
X32571Y-16886D01*
X32485Y-16676D01*
X32324Y-16515D01*
X32287Y-16500D01*
X32323Y-16485D01*
X32484Y-16324D01*
X32571Y-16114D01*
X32571Y-15886D01*
X32485Y-15676D01*
X32324Y-15515D01*
X32287Y-15500D01*
X32323Y-15485D01*
X32484Y-15324D01*
X32571Y-15114D01*
X32571Y-14886D01*
X32485Y-14676D01*
X32324Y-14515D01*
X32287Y-14500D01*
X32323Y-14485D01*
X32484Y-14324D01*
X32571Y-14114D01*
X32571Y-13886D01*
X32485Y-13676D01*
X32324Y-13515D01*
X32114Y-13428D01*
X31886Y-13428D01*
X31676Y-13514D01*
X31515Y-13675D01*
X31428Y-13885D01*
X31428Y-14113D01*
X31514Y-14323D01*
X31675Y-14484D01*
X31712Y-14499D01*
X31676Y-14514D01*
X31515Y-14675D01*
X31428Y-14885D01*
X31428Y-15113D01*
X31514Y-15323D01*
X31675Y-15484D01*
X31712Y-15499D01*
X31676Y-15514D01*
X31515Y-15675D01*
X31429Y-15881D01*
X30906Y-16404D01*
X30550Y-16404D01*
X30321Y-16404D01*
X30321Y-15636D01*
X30235Y-15426D01*
X30074Y-15265D01*
X29864Y-15178D01*
X29636Y-15178D01*
X29426Y-15264D01*
X29265Y-15425D01*
X29250Y-15462D01*
X29235Y-15426D01*
X29074Y-15265D01*
X28864Y-15178D01*
X28636Y-15178D01*
X28426Y-15264D01*
X28265Y-15425D01*
X28178Y-15635D01*
X28178Y-15863D01*
X28264Y-16073D01*
X28425Y-16234D01*
X28635Y-16321D01*
X28863Y-16321D01*
X29073Y-16235D01*
X29234Y-16074D01*
X29249Y-16037D01*
X29264Y-16073D01*
X29425Y-16234D01*
X29635Y-16321D01*
X29863Y-16321D01*
X30073Y-16235D01*
X30234Y-16074D01*
X30321Y-15864D01*
X30321Y-15636D01*
X30321Y-16404D01*
X27800Y-16404D01*
X27799Y-16404D01*
X27773Y-16409D01*
X27667Y-16431D01*
X27555Y-16505D01*
X27555Y-16505D01*
X27371Y-16689D01*
X27371Y-12626D01*
X27277Y-12398D01*
X27102Y-12223D01*
X26874Y-12128D01*
X26626Y-12128D01*
X26398Y-12222D01*
X26223Y-12397D01*
X26128Y-12625D01*
X26128Y-12873D01*
X26222Y-13101D01*
X26397Y-13276D01*
X26625Y-13371D01*
X26873Y-13371D01*
X27101Y-13277D01*
X27276Y-13102D01*
X27371Y-12874D01*
X27371Y-12626D01*
X27371Y-16689D01*
X27255Y-16805D01*
X27181Y-16917D01*
X27154Y-17050D01*
X27154Y-17200D01*
X27154Y-17607D01*
X27057Y-17704D01*
X26978Y-17895D01*
X26978Y-18103D01*
X27057Y-18295D01*
X27204Y-18442D01*
X27395Y-18521D01*
X27603Y-18521D01*
X27795Y-18442D01*
X27942Y-18295D01*
X28021Y-18104D01*
X28021Y-17896D01*
X27942Y-17704D01*
X27845Y-17607D01*
X27845Y-17200D01*
X27845Y-17193D01*
X27943Y-17095D01*
X28166Y-17095D01*
X28057Y-17204D01*
X27978Y-17395D01*
X27978Y-17603D01*
X28057Y-17795D01*
X28154Y-17892D01*
X28154Y-18856D01*
X27533Y-19478D01*
X27396Y-19478D01*
X27204Y-19557D01*
X27057Y-19704D01*
X26978Y-19895D01*
X26978Y-20103D01*
X27057Y-20295D01*
X27154Y-20392D01*
X27154Y-21177D01*
X27100Y-21232D01*
X27028Y-21405D01*
X27028Y-21593D01*
X27099Y-21766D01*
X27232Y-21899D01*
X27363Y-21954D01*
X27021Y-22296D01*
X27021Y-20396D01*
X26942Y-20204D01*
X26795Y-20057D01*
X26604Y-19978D01*
X26396Y-19978D01*
X26204Y-20057D01*
X26057Y-20204D01*
X25978Y-20395D01*
X25978Y-20603D01*
X26057Y-20795D01*
X26204Y-20942D01*
X26395Y-21021D01*
X26603Y-21021D01*
X26795Y-20942D01*
X26942Y-20795D01*
X27021Y-20604D01*
X27021Y-20396D01*
X27021Y-22296D01*
X26992Y-22325D01*
X26942Y-22204D01*
X26795Y-22057D01*
X26604Y-21978D01*
X26396Y-21978D01*
X26204Y-22057D01*
X26057Y-22204D01*
X25978Y-22395D01*
X25978Y-22603D01*
X26057Y-22795D01*
X26204Y-22942D01*
X26395Y-23021D01*
X26603Y-23021D01*
X26654Y-23000D01*
X26654Y-24107D01*
X26557Y-24204D01*
X26499Y-24343D01*
X26442Y-24204D01*
X26295Y-24057D01*
X26156Y-23999D01*
X26295Y-23942D01*
X26442Y-23795D01*
X26521Y-23604D01*
X26521Y-23396D01*
X26442Y-23204D01*
X26295Y-23057D01*
X26104Y-22978D01*
X25896Y-22978D01*
X25774Y-23028D01*
X25774Y-20877D01*
X25748Y-20745D01*
X25748Y-20745D01*
X25673Y-20633D01*
X25673Y-20633D01*
X25562Y-20521D01*
X25603Y-20521D01*
X25795Y-20442D01*
X25942Y-20295D01*
X26021Y-20104D01*
X26021Y-19896D01*
X25942Y-19704D01*
X25795Y-19557D01*
X25604Y-19478D01*
X25455Y-19478D01*
X25455Y-13350D01*
X25455Y-12051D01*
X25418Y-11960D01*
X25348Y-11891D01*
X25257Y-11853D01*
X25159Y-11853D01*
X23742Y-11853D01*
X23651Y-11891D01*
X23582Y-11960D01*
X23544Y-12051D01*
X23544Y-12149D01*
X23544Y-13448D01*
X23581Y-13539D01*
X23651Y-13608D01*
X23742Y-13646D01*
X23840Y-13646D01*
X25257Y-13646D01*
X25348Y-13608D01*
X25417Y-13539D01*
X25455Y-13448D01*
X25455Y-13350D01*
X25455Y-19478D01*
X25396Y-19478D01*
X25204Y-19557D01*
X25057Y-19704D01*
X24978Y-19895D01*
X24978Y-19937D01*
X24650Y-19610D01*
X24851Y-19527D01*
X25026Y-19352D01*
X25121Y-19124D01*
X25121Y-18876D01*
X25027Y-18648D01*
X24852Y-18473D01*
X24624Y-18378D01*
X24376Y-18378D01*
X24148Y-18472D01*
X23973Y-18647D01*
X23889Y-18849D01*
X22895Y-17854D01*
X22895Y-14799D01*
X22895Y-14799D01*
X22895Y-14799D01*
X22889Y-14773D01*
X22868Y-14667D01*
X22868Y-14667D01*
X22794Y-14555D01*
X22794Y-14555D01*
X21455Y-13217D01*
X21455Y-12051D01*
X21418Y-11960D01*
X21348Y-11891D01*
X21257Y-11853D01*
X21159Y-11853D01*
X19742Y-11853D01*
X19651Y-11891D01*
X19582Y-11960D01*
X19544Y-12051D01*
X19544Y-12149D01*
X19544Y-13448D01*
X19581Y-13539D01*
X19651Y-13608D01*
X19742Y-13646D01*
X19840Y-13646D01*
X20908Y-13646D01*
X22204Y-14942D01*
X22204Y-17997D01*
X22230Y-18130D01*
X22305Y-18242D01*
X25084Y-21020D01*
X25084Y-30929D01*
X25110Y-31061D01*
X25185Y-31173D01*
X25478Y-31466D01*
X25478Y-31603D01*
X25557Y-31795D01*
X25704Y-31942D01*
X25895Y-32021D01*
X26103Y-32021D01*
X26295Y-31942D01*
X26442Y-31795D01*
X26521Y-31604D01*
X26521Y-31396D01*
X26442Y-31204D01*
X26295Y-31057D01*
X26156Y-30999D01*
X26295Y-30942D01*
X26442Y-30795D01*
X26521Y-30604D01*
X26521Y-30396D01*
X26442Y-30204D01*
X26295Y-30057D01*
X26104Y-29978D01*
X25896Y-29978D01*
X25774Y-30028D01*
X25774Y-28971D01*
X25895Y-29021D01*
X26103Y-29021D01*
X26295Y-28942D01*
X26442Y-28795D01*
X26521Y-28604D01*
X26521Y-28396D01*
X26442Y-28204D01*
X26295Y-28057D01*
X26104Y-27978D01*
X25896Y-27978D01*
X25774Y-28028D01*
X25774Y-24971D01*
X25895Y-25021D01*
X26103Y-25021D01*
X26295Y-24942D01*
X26442Y-24795D01*
X26500Y-24656D01*
X26557Y-24795D01*
X26704Y-24942D01*
X26895Y-25021D01*
X27103Y-25021D01*
X27295Y-24942D01*
X27442Y-24795D01*
X27500Y-24656D01*
X27557Y-24795D01*
X27704Y-24942D01*
X27895Y-25021D01*
X28033Y-25021D01*
X28327Y-25316D01*
X28327Y-25316D01*
X28439Y-25391D01*
X28439Y-25391D01*
X28545Y-25412D01*
X28572Y-25417D01*
X28572Y-25417D01*
X28572Y-25417D01*
X29404Y-25417D01*
X29536Y-25391D01*
X29648Y-25316D01*
X29824Y-25139D01*
X29824Y-25139D01*
X29824Y-25139D01*
X29899Y-25027D01*
X29899Y-25027D01*
X29925Y-24895D01*
X29925Y-20812D01*
X29942Y-20795D01*
X30021Y-20604D01*
X30021Y-20396D01*
X29942Y-20204D01*
X29795Y-20057D01*
X29604Y-19978D01*
X29396Y-19978D01*
X29204Y-20057D01*
X29057Y-20204D01*
X28999Y-20343D01*
X28942Y-20204D01*
X28795Y-20057D01*
X28604Y-19978D01*
X28396Y-19978D01*
X28204Y-20057D01*
X28057Y-20204D01*
X27978Y-20395D01*
X27978Y-20603D01*
X28057Y-20795D01*
X28154Y-20892D01*
X28154Y-21163D01*
X27954Y-21364D01*
X27900Y-21233D01*
X27845Y-21177D01*
X27845Y-20392D01*
X27942Y-20295D01*
X28021Y-20104D01*
X28021Y-19966D01*
X28744Y-19244D01*
X28744Y-19244D01*
X28744Y-19244D01*
X28789Y-19176D01*
X28818Y-19132D01*
X28818Y-19132D01*
X28845Y-19000D01*
X28845Y-17892D01*
X28942Y-17795D01*
X29000Y-17656D01*
X29057Y-17795D01*
X29154Y-17892D01*
X29154Y-19000D01*
X29181Y-19132D01*
X29255Y-19244D01*
X29978Y-19966D01*
X29978Y-20103D01*
X30057Y-20295D01*
X30154Y-20392D01*
X30154Y-21177D01*
X30100Y-21232D01*
X30028Y-21405D01*
X30028Y-21593D01*
X30099Y-21766D01*
X30232Y-21899D01*
X30405Y-21971D01*
X30593Y-21971D01*
X30766Y-21900D01*
X30899Y-21767D01*
X30971Y-21594D01*
X30971Y-21406D01*
X30900Y-21233D01*
X30845Y-21177D01*
X30845Y-20392D01*
X30942Y-20295D01*
X31021Y-20104D01*
X31021Y-19896D01*
X30942Y-19704D01*
X30795Y-19557D01*
X30604Y-19478D01*
X30466Y-19478D01*
X29845Y-18856D01*
X29845Y-17892D01*
X29942Y-17795D01*
X30021Y-17604D01*
X30021Y-17396D01*
X29942Y-17204D01*
X29833Y-17095D01*
X30550Y-17095D01*
X30916Y-17095D01*
X30533Y-17478D01*
X30396Y-17478D01*
X30204Y-17557D01*
X30057Y-17704D01*
X29978Y-17895D01*
X29978Y-18103D01*
X30057Y-18295D01*
X30204Y-18442D01*
X30395Y-18521D01*
X30603Y-18521D01*
X30795Y-18442D01*
X30942Y-18295D01*
X31021Y-18104D01*
X31021Y-17966D01*
X31589Y-17398D01*
X31675Y-17484D01*
X31712Y-17499D01*
X31676Y-17514D01*
X31515Y-17675D01*
X31428Y-17885D01*
X31428Y-18113D01*
X31514Y-18323D01*
X31675Y-18484D01*
X31712Y-18499D01*
X31676Y-18514D01*
X31515Y-18675D01*
X31428Y-18885D01*
X31428Y-19113D01*
X31514Y-19323D01*
X31675Y-19484D01*
X31712Y-19499D01*
X31676Y-19514D01*
X31515Y-19675D01*
X31428Y-19885D01*
X31428Y-20113D01*
X31514Y-20323D01*
X31621Y-20430D01*
X31535Y-20465D01*
X31465Y-20534D01*
X31428Y-20625D01*
X31428Y-20723D01*
X31428Y-21373D01*
X31465Y-21464D01*
X31534Y-21534D01*
X31625Y-21571D01*
X31723Y-21571D01*
X32373Y-21571D01*
X32464Y-21534D01*
X32534Y-21465D01*
X32571Y-21374D01*
X32571Y-21276D01*
X32571Y-20626D01*
X32534Y-20535D01*
X32465Y-20465D01*
X32378Y-20430D01*
X32484Y-20324D01*
X32571Y-20114D01*
X32571Y-19886D01*
X32571Y-22886D01*
X32485Y-22676D01*
X32324Y-22515D01*
X32114Y-22428D01*
X31886Y-22428D01*
X31676Y-22514D01*
X31515Y-22675D01*
X31428Y-22885D01*
X31428Y-23113D01*
X31514Y-23323D01*
X31675Y-23484D01*
X31712Y-23499D01*
X31676Y-23514D01*
X31515Y-23675D01*
X31428Y-23885D01*
X31428Y-24113D01*
X31514Y-24323D01*
X31675Y-24484D01*
X31712Y-24499D01*
X31676Y-24514D01*
X31515Y-24675D01*
X31428Y-24885D01*
X31428Y-25113D01*
X31514Y-25323D01*
X31675Y-25484D01*
X31712Y-25499D01*
X31676Y-25514D01*
X31515Y-25675D01*
X31428Y-25885D01*
X31428Y-26113D01*
X31514Y-26323D01*
X31675Y-26484D01*
X31712Y-26499D01*
X31676Y-26514D01*
X31515Y-26675D01*
X31428Y-26885D01*
X31428Y-27113D01*
X31514Y-27323D01*
X31675Y-27484D01*
X31712Y-27499D01*
X31676Y-27514D01*
X31515Y-27675D01*
X31428Y-27885D01*
X31428Y-28113D01*
X31514Y-28323D01*
X31675Y-28484D01*
X31712Y-28499D01*
X31676Y-28514D01*
X31515Y-28675D01*
X31428Y-28885D01*
X31428Y-29113D01*
X31514Y-29323D01*
X31621Y-29430D01*
X31535Y-29465D01*
X31465Y-29534D01*
X31428Y-29625D01*
X31428Y-29723D01*
X31428Y-30373D01*
X31465Y-30464D01*
X31534Y-30534D01*
X31625Y-30571D01*
X31723Y-30571D01*
X32373Y-30571D01*
X32464Y-30534D01*
X32534Y-30465D01*
X32571Y-30374D01*
X32571Y-30276D01*
X32571Y-29626D01*
X32534Y-29535D01*
X32465Y-29465D01*
X32378Y-29430D01*
X32484Y-29324D01*
X32571Y-29114D01*
X32571Y-28886D01*
X32571Y-31886D01*
X32485Y-31676D01*
X32324Y-31515D01*
X32114Y-31428D01*
X31886Y-31428D01*
X31676Y-31514D01*
X31515Y-31675D01*
X31428Y-31885D01*
X31428Y-32113D01*
X31514Y-32323D01*
X31675Y-32484D01*
X31885Y-32571D01*
X32113Y-32571D01*
X32323Y-32485D01*
X32484Y-32324D01*
X32571Y-32114D01*
X32571Y-31886D01*
X32571Y-34886D01*
X32485Y-34676D01*
X32324Y-34515D01*
X32114Y-34428D01*
X31916Y-34428D01*
X31520Y-34032D01*
X31408Y-33957D01*
X31276Y-33931D01*
X31021Y-33931D01*
X31021Y-26896D01*
X31021Y-24896D01*
X30942Y-24704D01*
X30795Y-24557D01*
X30604Y-24478D01*
X30396Y-24478D01*
X30204Y-24557D01*
X30057Y-24704D01*
X29978Y-24895D01*
X29978Y-25103D01*
X30057Y-25295D01*
X30204Y-25442D01*
X30395Y-25521D01*
X30603Y-25521D01*
X30795Y-25442D01*
X30942Y-25295D01*
X31021Y-25104D01*
X31021Y-24896D01*
X31021Y-26896D01*
X30942Y-26704D01*
X30795Y-26557D01*
X30604Y-26478D01*
X30396Y-26478D01*
X30204Y-26557D01*
X30057Y-26704D01*
X29978Y-26895D01*
X29978Y-27103D01*
X30057Y-27295D01*
X30154Y-27392D01*
X30154Y-28856D01*
X29033Y-29978D01*
X28896Y-29978D01*
X28704Y-30057D01*
X28557Y-30204D01*
X28478Y-30395D01*
X28478Y-30603D01*
X28557Y-30795D01*
X28704Y-30942D01*
X28843Y-31000D01*
X28704Y-31057D01*
X28557Y-31204D01*
X28478Y-31395D01*
X28478Y-31603D01*
X28557Y-31795D01*
X28704Y-31942D01*
X28895Y-32021D01*
X29103Y-32021D01*
X29295Y-31942D01*
X29442Y-31795D01*
X29521Y-31604D01*
X29521Y-31396D01*
X29442Y-31204D01*
X29295Y-31057D01*
X29156Y-30999D01*
X29295Y-30942D01*
X29442Y-30795D01*
X29521Y-30604D01*
X29521Y-30466D01*
X30744Y-29244D01*
X30744Y-29244D01*
X30744Y-29244D01*
X30818Y-29132D01*
X30818Y-29132D01*
X30845Y-29000D01*
X30845Y-27392D01*
X30942Y-27295D01*
X31021Y-27104D01*
X31021Y-26896D01*
X31021Y-33931D01*
X29601Y-33931D01*
X29166Y-33496D01*
X29295Y-33442D01*
X29442Y-33295D01*
X29478Y-33209D01*
X29478Y-33323D01*
X29515Y-33414D01*
X29584Y-33484D01*
X29675Y-33521D01*
X29773Y-33521D01*
X30323Y-33521D01*
X30414Y-33484D01*
X30484Y-33415D01*
X30521Y-33324D01*
X30521Y-33226D01*
X30521Y-32676D01*
X30484Y-32585D01*
X30415Y-32515D01*
X30324Y-32478D01*
X30226Y-32478D01*
X29676Y-32478D01*
X29585Y-32515D01*
X29515Y-32584D01*
X29478Y-32675D01*
X29478Y-32773D01*
X29478Y-32790D01*
X29442Y-32704D01*
X29295Y-32557D01*
X29104Y-32478D01*
X28896Y-32478D01*
X28704Y-32557D01*
X28557Y-32704D01*
X28503Y-32833D01*
X28269Y-32599D01*
X28269Y-29969D01*
X28395Y-30021D01*
X28603Y-30021D01*
X28795Y-29942D01*
X28942Y-29795D01*
X29021Y-29604D01*
X29021Y-29396D01*
X28942Y-29204D01*
X28795Y-29057D01*
X28604Y-28978D01*
X28396Y-28978D01*
X28269Y-29030D01*
X28269Y-28718D01*
X28478Y-28510D01*
X28478Y-28603D01*
X28557Y-28795D01*
X28704Y-28942D01*
X28895Y-29021D01*
X29103Y-29021D01*
X29295Y-28942D01*
X29442Y-28795D01*
X29521Y-28604D01*
X29521Y-28396D01*
X29442Y-28204D01*
X29295Y-28057D01*
X29156Y-27999D01*
X29295Y-27942D01*
X29442Y-27795D01*
X29521Y-27604D01*
X29521Y-27396D01*
X29442Y-27204D01*
X29295Y-27057D01*
X29104Y-26978D01*
X28896Y-26978D01*
X28704Y-27057D01*
X28557Y-27204D01*
X28499Y-27343D01*
X28442Y-27204D01*
X28295Y-27057D01*
X28104Y-26978D01*
X27896Y-26978D01*
X27704Y-27057D01*
X27557Y-27204D01*
X27499Y-27343D01*
X27442Y-27204D01*
X27295Y-27057D01*
X27104Y-26978D01*
X26896Y-26978D01*
X26704Y-27057D01*
X26557Y-27204D01*
X26478Y-27395D01*
X26478Y-27603D01*
X26557Y-27795D01*
X26704Y-27942D01*
X26895Y-28021D01*
X27103Y-28021D01*
X27295Y-27942D01*
X27442Y-27795D01*
X27500Y-27656D01*
X27557Y-27795D01*
X27704Y-27942D01*
X27895Y-28021D01*
X27989Y-28021D01*
X27680Y-28331D01*
X27605Y-28443D01*
X27579Y-28575D01*
X27579Y-32742D01*
X27605Y-32874D01*
X27680Y-32986D01*
X27719Y-33026D01*
X27604Y-32978D01*
X27396Y-32978D01*
X27204Y-33057D01*
X27057Y-33204D01*
X27021Y-33290D01*
X27021Y-29396D01*
X26942Y-29204D01*
X26795Y-29057D01*
X26604Y-28978D01*
X26396Y-28978D01*
X26204Y-29057D01*
X26057Y-29204D01*
X25978Y-29395D01*
X25978Y-29603D01*
X26057Y-29795D01*
X26204Y-29942D01*
X26395Y-30021D01*
X26603Y-30021D01*
X26795Y-29942D01*
X26942Y-29795D01*
X27021Y-29604D01*
X27021Y-29396D01*
X27021Y-33290D01*
X27001Y-33339D01*
X24965Y-31303D01*
X24965Y-24740D01*
X24965Y-24740D01*
X24965Y-24740D01*
X24960Y-24714D01*
X24939Y-24608D01*
X24939Y-24608D01*
X24864Y-24496D01*
X24864Y-24496D01*
X24420Y-24052D01*
X24464Y-24034D01*
X24534Y-23965D01*
X24571Y-23874D01*
X24571Y-23776D01*
X24571Y-23126D01*
X24534Y-23035D01*
X24465Y-22965D01*
X24374Y-22928D01*
X24276Y-22928D01*
X24016Y-22928D01*
X23845Y-22756D01*
X23845Y-22463D01*
X23984Y-22324D01*
X24071Y-22114D01*
X24071Y-21886D01*
X23985Y-21676D01*
X23845Y-21536D01*
X23845Y-21033D01*
X23818Y-20901D01*
X23818Y-20901D01*
X23744Y-20789D01*
X23744Y-20789D01*
X18871Y-15916D01*
X18871Y-12626D01*
X18777Y-12398D01*
X18602Y-12223D01*
X18374Y-12128D01*
X18126Y-12128D01*
X17898Y-12222D01*
X17723Y-12397D01*
X17628Y-12625D01*
X17628Y-12873D01*
X17722Y-13101D01*
X17897Y-13276D01*
X18125Y-13371D01*
X18373Y-13371D01*
X18601Y-13277D01*
X18776Y-13102D01*
X18871Y-12874D01*
X18871Y-12626D01*
X18871Y-15916D01*
X18460Y-15505D01*
X18348Y-15431D01*
X18216Y-15404D01*
X17713Y-15404D01*
X17574Y-15265D01*
X17364Y-15178D01*
X17136Y-15178D01*
X16926Y-15264D01*
X16765Y-15425D01*
X16750Y-15462D01*
X16735Y-15426D01*
X16574Y-15265D01*
X16364Y-15178D01*
X16136Y-15178D01*
X15926Y-15264D01*
X15765Y-15425D01*
X15678Y-15635D01*
X15678Y-15863D01*
X15764Y-16073D01*
X15925Y-16234D01*
X16135Y-16321D01*
X16363Y-16321D01*
X16573Y-16235D01*
X16734Y-16074D01*
X16749Y-16037D01*
X16764Y-16073D01*
X16925Y-16234D01*
X17135Y-16321D01*
X17363Y-16321D01*
X17573Y-16235D01*
X17713Y-16095D01*
X18073Y-16095D01*
X20362Y-18383D01*
X20148Y-18472D01*
X19973Y-18647D01*
X19878Y-18875D01*
X19878Y-19123D01*
X19972Y-19351D01*
X20147Y-19526D01*
X20375Y-19621D01*
X20623Y-19621D01*
X20851Y-19527D01*
X21026Y-19352D01*
X21116Y-19137D01*
X23154Y-21176D01*
X23154Y-21536D01*
X23015Y-21675D01*
X23000Y-21712D01*
X22985Y-21676D01*
X22824Y-21515D01*
X22614Y-21428D01*
X22386Y-21428D01*
X22176Y-21514D01*
X22015Y-21675D01*
X21928Y-21885D01*
X21928Y-22113D01*
X22014Y-22323D01*
X22175Y-22484D01*
X22385Y-22571D01*
X22613Y-22571D01*
X22823Y-22485D01*
X22984Y-22324D01*
X22999Y-22287D01*
X23014Y-22323D01*
X23154Y-22463D01*
X23154Y-22856D01*
X23083Y-22928D01*
X22626Y-22928D01*
X22535Y-22965D01*
X22465Y-23034D01*
X22428Y-23125D01*
X22428Y-23223D01*
X22428Y-23873D01*
X22465Y-23964D01*
X22534Y-24034D01*
X22625Y-24071D01*
X22723Y-24071D01*
X23373Y-24071D01*
X23464Y-24034D01*
X23500Y-23999D01*
X23534Y-24034D01*
X23625Y-24071D01*
X23654Y-24071D01*
X23654Y-24120D01*
X23681Y-24252D01*
X23755Y-24364D01*
X24275Y-24883D01*
X24275Y-25995D01*
X24114Y-25928D01*
X23886Y-25928D01*
X23676Y-26014D01*
X23515Y-26175D01*
X23500Y-26212D01*
X23485Y-26176D01*
X23324Y-26015D01*
X23114Y-25928D01*
X22886Y-25928D01*
X22676Y-26014D01*
X22569Y-26121D01*
X22534Y-26035D01*
X22465Y-25965D01*
X22374Y-25928D01*
X22276Y-25928D01*
X21626Y-25928D01*
X21535Y-25965D01*
X21499Y-26000D01*
X21465Y-25965D01*
X21374Y-25928D01*
X21276Y-25928D01*
X20724Y-25928D01*
X20724Y-24379D01*
X20698Y-24247D01*
X20698Y-24247D01*
X20623Y-24135D01*
X20623Y-24135D01*
X18010Y-21521D01*
X18103Y-21521D01*
X18295Y-21442D01*
X18442Y-21295D01*
X18500Y-21156D01*
X18557Y-21295D01*
X18704Y-21442D01*
X18895Y-21521D01*
X19103Y-21521D01*
X19295Y-21442D01*
X19442Y-21295D01*
X19521Y-21104D01*
X19521Y-20896D01*
X19442Y-20704D01*
X19295Y-20557D01*
X19156Y-20499D01*
X19295Y-20442D01*
X19442Y-20295D01*
X19521Y-20104D01*
X19521Y-19896D01*
X19442Y-19704D01*
X19295Y-19557D01*
X19156Y-19499D01*
X19295Y-19442D01*
X19442Y-19295D01*
X19521Y-19104D01*
X19521Y-18896D01*
X19442Y-18704D01*
X19295Y-18557D01*
X19104Y-18478D01*
X19021Y-18478D01*
X19021Y-17896D01*
X18942Y-17704D01*
X18795Y-17557D01*
X18604Y-17478D01*
X18396Y-17478D01*
X18204Y-17557D01*
X18057Y-17704D01*
X17978Y-17895D01*
X17978Y-18103D01*
X18057Y-18295D01*
X18204Y-18442D01*
X18395Y-18521D01*
X18603Y-18521D01*
X18795Y-18442D01*
X18942Y-18295D01*
X19021Y-18104D01*
X19021Y-17896D01*
X19021Y-18478D01*
X18896Y-18478D01*
X18704Y-18557D01*
X18557Y-18704D01*
X18478Y-18895D01*
X18478Y-19103D01*
X18557Y-19295D01*
X18704Y-19442D01*
X18843Y-19500D01*
X18704Y-19557D01*
X18557Y-19704D01*
X18478Y-19895D01*
X18478Y-20103D01*
X18557Y-20295D01*
X18704Y-20442D01*
X18843Y-20500D01*
X18704Y-20557D01*
X18557Y-20704D01*
X18499Y-20843D01*
X18442Y-20704D01*
X18295Y-20557D01*
X18104Y-20478D01*
X17896Y-20478D01*
X17704Y-20557D01*
X17557Y-20704D01*
X17499Y-20843D01*
X17442Y-20704D01*
X17295Y-20557D01*
X17104Y-20478D01*
X17021Y-20478D01*
X17021Y-17896D01*
X16942Y-17704D01*
X16795Y-17557D01*
X16604Y-17478D01*
X16396Y-17478D01*
X16204Y-17557D01*
X16057Y-17704D01*
X15978Y-17895D01*
X15978Y-18103D01*
X16057Y-18295D01*
X16204Y-18442D01*
X16395Y-18521D01*
X16603Y-18521D01*
X16795Y-18442D01*
X16942Y-18295D01*
X17021Y-18104D01*
X17021Y-17896D01*
X17021Y-20478D01*
X16896Y-20478D01*
X16704Y-20557D01*
X16557Y-20704D01*
X16499Y-20843D01*
X16442Y-20704D01*
X16295Y-20557D01*
X16156Y-20499D01*
X16295Y-20442D01*
X16442Y-20295D01*
X16521Y-20104D01*
X16521Y-19896D01*
X16442Y-19704D01*
X16295Y-19557D01*
X16156Y-19499D01*
X16295Y-19442D01*
X16442Y-19295D01*
X16521Y-19104D01*
X16521Y-18896D01*
X16442Y-18704D01*
X16295Y-18557D01*
X16104Y-18478D01*
X15896Y-18478D01*
X15704Y-18557D01*
X15557Y-18704D01*
X15478Y-18895D01*
X15478Y-19103D01*
X15557Y-19295D01*
X15704Y-19442D01*
X15843Y-19500D01*
X15704Y-19557D01*
X15557Y-19704D01*
X15478Y-19895D01*
X15478Y-20103D01*
X15557Y-20295D01*
X15704Y-20442D01*
X15843Y-20500D01*
X15704Y-20557D01*
X15557Y-20704D01*
X15478Y-20895D01*
X15478Y-21033D01*
X15021Y-21489D01*
X15021Y-21396D01*
X14942Y-21204D01*
X14871Y-21133D01*
X14871Y-12626D01*
X14777Y-12398D01*
X14602Y-12223D01*
X14374Y-12128D01*
X14126Y-12128D01*
X13898Y-12222D01*
X13723Y-12397D01*
X13628Y-12625D01*
X13628Y-12873D01*
X13722Y-13101D01*
X13897Y-13276D01*
X14125Y-13371D01*
X14373Y-13371D01*
X14601Y-13277D01*
X14776Y-13102D01*
X14871Y-12874D01*
X14871Y-12626D01*
X14871Y-21133D01*
X14795Y-21057D01*
X14604Y-20978D01*
X14396Y-20978D01*
X14204Y-21057D01*
X14057Y-21204D01*
X13978Y-21395D01*
X13978Y-21603D01*
X14057Y-21795D01*
X14204Y-21942D01*
X14395Y-22021D01*
X14489Y-22021D01*
X13678Y-22832D01*
X13603Y-22944D01*
X13577Y-23077D01*
X13577Y-33559D01*
X13603Y-33691D01*
X13678Y-33803D01*
X14544Y-34669D01*
X14544Y-42510D01*
X14570Y-42642D01*
X14645Y-42754D01*
X15395Y-43505D01*
X15395Y-43505D01*
X15462Y-43549D01*
X15507Y-43579D01*
X15507Y-43579D01*
X15572Y-43592D01*
X15572Y-43592D01*
X15707Y-43728D01*
X15426Y-43728D01*
X15335Y-43765D01*
X15265Y-43834D01*
X15228Y-43925D01*
X15228Y-44023D01*
X15228Y-44040D01*
X15192Y-43954D01*
X15045Y-43807D01*
X14854Y-43728D01*
X14646Y-43728D01*
X14454Y-43807D01*
X14451Y-43810D01*
X14451Y-36061D01*
X14451Y-34661D01*
X14414Y-34570D01*
X14345Y-34500D01*
X14254Y-34463D01*
X14156Y-34463D01*
X13571Y-34463D01*
X13571Y-31886D01*
X13485Y-31676D01*
X13324Y-31515D01*
X13287Y-31500D01*
X13323Y-31485D01*
X13484Y-31324D01*
X13571Y-31114D01*
X13571Y-30886D01*
X13485Y-30676D01*
X13324Y-30515D01*
X13287Y-30500D01*
X13323Y-30485D01*
X13484Y-30324D01*
X13571Y-30114D01*
X13571Y-29886D01*
X13485Y-29676D01*
X13324Y-29515D01*
X13287Y-29500D01*
X13323Y-29485D01*
X13484Y-29324D01*
X13571Y-29114D01*
X13571Y-28886D01*
X13485Y-28676D01*
X13324Y-28515D01*
X13287Y-28500D01*
X13323Y-28485D01*
X13484Y-28324D01*
X13571Y-28114D01*
X13571Y-27886D01*
X13485Y-27676D01*
X13324Y-27515D01*
X13287Y-27500D01*
X13323Y-27485D01*
X13484Y-27324D01*
X13571Y-27114D01*
X13571Y-26886D01*
X13485Y-26676D01*
X13324Y-26515D01*
X13287Y-26500D01*
X13323Y-26485D01*
X13484Y-26324D01*
X13571Y-26114D01*
X13571Y-25886D01*
X13571Y-22886D01*
X13485Y-22676D01*
X13324Y-22515D01*
X13287Y-22500D01*
X13323Y-22485D01*
X13484Y-22324D01*
X13571Y-22114D01*
X13571Y-21886D01*
X13485Y-21676D01*
X13324Y-21515D01*
X13287Y-21500D01*
X13323Y-21485D01*
X13484Y-21324D01*
X13571Y-21114D01*
X13571Y-20886D01*
X13485Y-20676D01*
X13324Y-20515D01*
X13287Y-20500D01*
X13323Y-20485D01*
X13484Y-20324D01*
X13571Y-20114D01*
X13571Y-19886D01*
X13485Y-19676D01*
X13324Y-19515D01*
X13287Y-19500D01*
X13323Y-19485D01*
X13484Y-19324D01*
X13571Y-19114D01*
X13571Y-18886D01*
X13485Y-18676D01*
X13324Y-18515D01*
X13287Y-18500D01*
X13323Y-18485D01*
X13484Y-18324D01*
X13571Y-18114D01*
X13571Y-17886D01*
X13485Y-17676D01*
X13324Y-17515D01*
X13287Y-17500D01*
X13323Y-17485D01*
X13484Y-17324D01*
X13571Y-17114D01*
X13571Y-16886D01*
X13485Y-16676D01*
X13378Y-16569D01*
X13464Y-16534D01*
X13534Y-16465D01*
X13571Y-16374D01*
X13571Y-16276D01*
X13571Y-15626D01*
X13534Y-15535D01*
X13465Y-15465D01*
X13374Y-15428D01*
X13276Y-15428D01*
X12626Y-15428D01*
X12535Y-15465D01*
X12465Y-15534D01*
X12428Y-15625D01*
X12428Y-15723D01*
X12428Y-16373D01*
X12465Y-16464D01*
X12534Y-16534D01*
X12621Y-16569D01*
X12515Y-16675D01*
X12428Y-16885D01*
X12428Y-17113D01*
X12514Y-17323D01*
X12675Y-17484D01*
X12712Y-17499D01*
X12676Y-17514D01*
X12515Y-17675D01*
X12428Y-17885D01*
X12428Y-18113D01*
X12514Y-18323D01*
X12675Y-18484D01*
X12712Y-18499D01*
X12676Y-18514D01*
X12515Y-18675D01*
X12428Y-18885D01*
X12428Y-19113D01*
X12514Y-19323D01*
X12675Y-19484D01*
X12712Y-19499D01*
X12676Y-19514D01*
X12515Y-19675D01*
X12428Y-19885D01*
X12428Y-20113D01*
X12514Y-20323D01*
X12675Y-20484D01*
X12712Y-20499D01*
X12676Y-20514D01*
X12515Y-20675D01*
X12428Y-20885D01*
X12428Y-21113D01*
X12514Y-21323D01*
X12675Y-21484D01*
X12712Y-21499D01*
X12676Y-21514D01*
X12515Y-21675D01*
X12428Y-21885D01*
X12428Y-22113D01*
X12514Y-22323D01*
X12675Y-22484D01*
X12712Y-22499D01*
X12676Y-22514D01*
X12515Y-22675D01*
X12428Y-22885D01*
X12428Y-23113D01*
X12514Y-23323D01*
X12675Y-23484D01*
X12885Y-23571D01*
X13113Y-23571D01*
X13323Y-23485D01*
X13484Y-23324D01*
X13571Y-23114D01*
X13571Y-22886D01*
X13571Y-25886D01*
X13485Y-25676D01*
X13378Y-25569D01*
X13464Y-25534D01*
X13534Y-25465D01*
X13571Y-25374D01*
X13571Y-25276D01*
X13571Y-24626D01*
X13534Y-24535D01*
X13465Y-24465D01*
X13374Y-24428D01*
X13276Y-24428D01*
X12626Y-24428D01*
X12535Y-24465D01*
X12465Y-24534D01*
X12428Y-24625D01*
X12428Y-24723D01*
X12428Y-25373D01*
X12465Y-25464D01*
X12534Y-25534D01*
X12621Y-25569D01*
X12515Y-25675D01*
X12428Y-25885D01*
X12428Y-26113D01*
X12514Y-26323D01*
X12675Y-26484D01*
X12712Y-26499D01*
X12676Y-26514D01*
X12515Y-26675D01*
X12428Y-26885D01*
X12428Y-27113D01*
X12514Y-27323D01*
X12675Y-27484D01*
X12712Y-27499D01*
X12676Y-27514D01*
X12515Y-27675D01*
X12428Y-27885D01*
X12428Y-28113D01*
X12514Y-28323D01*
X12675Y-28484D01*
X12712Y-28499D01*
X12676Y-28514D01*
X12515Y-28675D01*
X12428Y-28885D01*
X12428Y-29113D01*
X12514Y-29323D01*
X12675Y-29484D01*
X12712Y-29499D01*
X12676Y-29514D01*
X12515Y-29675D01*
X12428Y-29885D01*
X12428Y-30113D01*
X12514Y-30323D01*
X12675Y-30484D01*
X12712Y-30499D01*
X12676Y-30514D01*
X12515Y-30675D01*
X12428Y-30885D01*
X12428Y-31113D01*
X12514Y-31323D01*
X12675Y-31484D01*
X12712Y-31499D01*
X12676Y-31514D01*
X12515Y-31675D01*
X12428Y-31885D01*
X12428Y-32113D01*
X12514Y-32323D01*
X12675Y-32484D01*
X12885Y-32571D01*
X13113Y-32571D01*
X13323Y-32485D01*
X13484Y-32324D01*
X13571Y-32114D01*
X13571Y-31886D01*
X13571Y-34463D01*
X12756Y-34463D01*
X12665Y-34500D01*
X12595Y-34569D01*
X12558Y-34660D01*
X12558Y-34758D01*
X12558Y-36158D01*
X12595Y-36249D01*
X12664Y-36319D01*
X12755Y-36356D01*
X12853Y-36356D01*
X14253Y-36356D01*
X14344Y-36319D01*
X14414Y-36250D01*
X14451Y-36159D01*
X14451Y-36061D01*
X14451Y-43810D01*
X14307Y-43954D01*
X14228Y-44145D01*
X14228Y-44353D01*
X14307Y-44545D01*
X14454Y-44692D01*
X14645Y-44771D01*
X14853Y-44771D01*
X15045Y-44692D01*
X15192Y-44545D01*
X15228Y-44459D01*
X15228Y-44573D01*
X15265Y-44664D01*
X15334Y-44734D01*
X15404Y-44763D01*
X15404Y-44820D01*
X15431Y-44952D01*
X15505Y-45064D01*
X15654Y-45213D01*
X15654Y-45607D01*
X15557Y-45704D01*
X15478Y-45895D01*
X15478Y-46103D01*
X15557Y-46295D01*
X15704Y-46442D01*
X15895Y-46521D01*
X16103Y-46521D01*
X16295Y-46442D01*
X16442Y-46295D01*
X16478Y-46209D01*
X16478Y-46323D01*
X16515Y-46414D01*
X16584Y-46484D01*
X16654Y-46513D01*
X16654Y-48607D01*
X16557Y-48704D01*
X16499Y-48843D01*
X16442Y-48704D01*
X16295Y-48557D01*
X16104Y-48478D01*
X15896Y-48478D01*
X15704Y-48557D01*
X15557Y-48704D01*
X15499Y-48843D01*
X15442Y-48704D01*
X15295Y-48557D01*
X15104Y-48478D01*
X14896Y-48478D01*
X14704Y-48557D01*
X14557Y-48704D01*
X14521Y-48790D01*
X14521Y-45896D01*
X14442Y-45704D01*
X14295Y-45557D01*
X14104Y-45478D01*
X13896Y-45478D01*
X13704Y-45557D01*
X13557Y-45704D01*
X13478Y-45895D01*
X13478Y-46103D01*
X13557Y-46295D01*
X13704Y-46442D01*
X13895Y-46521D01*
X14103Y-46521D01*
X14295Y-46442D01*
X14442Y-46295D01*
X14521Y-46104D01*
X14521Y-45896D01*
X14521Y-48790D01*
X14499Y-48843D01*
X14442Y-48704D01*
X14295Y-48557D01*
X14104Y-48478D01*
X13896Y-48478D01*
X13704Y-48557D01*
X13557Y-48704D01*
X13478Y-48895D01*
X13478Y-49103D01*
X13557Y-49295D01*
X13704Y-49442D01*
X13895Y-49521D01*
X14103Y-49521D01*
X14295Y-49442D01*
X14442Y-49295D01*
X14500Y-49156D01*
X14557Y-49295D01*
X14704Y-49442D01*
X14895Y-49521D01*
X15103Y-49521D01*
X15295Y-49442D01*
X15442Y-49295D01*
X15500Y-49156D01*
X15557Y-49295D01*
X15704Y-49442D01*
X15895Y-49521D01*
X16103Y-49521D01*
X16295Y-49442D01*
X16442Y-49295D01*
X16500Y-49156D01*
X16557Y-49295D01*
X16704Y-49442D01*
X16895Y-49521D01*
X17103Y-49521D01*
X17295Y-49442D01*
X17442Y-49295D01*
X17521Y-49104D01*
X17521Y-48896D01*
X17442Y-48704D01*
X17345Y-48607D01*
X17345Y-46513D01*
X17414Y-46484D01*
X17484Y-46415D01*
X17521Y-46324D01*
X17521Y-46226D01*
X17521Y-45676D01*
X17484Y-45585D01*
X17415Y-45515D01*
X17345Y-45486D01*
X17345Y-45429D01*
X17318Y-45297D01*
X17318Y-45297D01*
X17244Y-45185D01*
X17244Y-45185D01*
X16774Y-44716D01*
X16774Y-43961D01*
X16748Y-43829D01*
X16748Y-43829D01*
X16718Y-43784D01*
X16673Y-43717D01*
X16673Y-43717D01*
X15972Y-43016D01*
X15860Y-42941D01*
X15795Y-42928D01*
X15234Y-42367D01*
X15234Y-36337D01*
X15245Y-36341D01*
X15343Y-36341D01*
X16743Y-36341D01*
X16834Y-36304D01*
X16904Y-36235D01*
X16941Y-36144D01*
X16941Y-36046D01*
X16941Y-34646D01*
X16904Y-34555D01*
X16835Y-34485D01*
X16744Y-34448D01*
X16646Y-34448D01*
X15246Y-34448D01*
X15221Y-34458D01*
X15208Y-34393D01*
X15208Y-34393D01*
X15133Y-34281D01*
X14268Y-33416D01*
X14268Y-31968D01*
X14395Y-32021D01*
X14533Y-32021D01*
X14654Y-32143D01*
X14654Y-32486D01*
X14585Y-32515D01*
X14515Y-32584D01*
X14478Y-32675D01*
X14478Y-32773D01*
X14478Y-33323D01*
X14515Y-33414D01*
X14584Y-33484D01*
X14675Y-33521D01*
X14773Y-33521D01*
X15323Y-33521D01*
X15414Y-33484D01*
X15484Y-33415D01*
X15521Y-33324D01*
X15521Y-33226D01*
X15521Y-32676D01*
X15484Y-32585D01*
X15415Y-32515D01*
X15345Y-32486D01*
X15345Y-32000D01*
X15318Y-31867D01*
X15318Y-31867D01*
X15289Y-31823D01*
X15244Y-31755D01*
X15244Y-31755D01*
X15021Y-31533D01*
X15021Y-31396D01*
X14942Y-31204D01*
X14795Y-31057D01*
X14604Y-30978D01*
X14396Y-30978D01*
X14268Y-31031D01*
X14268Y-28968D01*
X14395Y-29021D01*
X14603Y-29021D01*
X14795Y-28942D01*
X14942Y-28795D01*
X15021Y-28604D01*
X15021Y-28396D01*
X14942Y-28204D01*
X14795Y-28057D01*
X14604Y-27978D01*
X14396Y-27978D01*
X14268Y-28031D01*
X14268Y-23968D01*
X14395Y-24021D01*
X14603Y-24021D01*
X14795Y-23942D01*
X14942Y-23795D01*
X15021Y-23604D01*
X15021Y-23396D01*
X14942Y-23204D01*
X14795Y-23057D01*
X14604Y-22978D01*
X14510Y-22978D01*
X15966Y-21521D01*
X16103Y-21521D01*
X16295Y-21442D01*
X16442Y-21295D01*
X16500Y-21156D01*
X16557Y-21295D01*
X16704Y-21442D01*
X16895Y-21521D01*
X17033Y-21521D01*
X18989Y-23478D01*
X18896Y-23478D01*
X18704Y-23557D01*
X18557Y-23704D01*
X18499Y-23843D01*
X18442Y-23704D01*
X18295Y-23557D01*
X18104Y-23478D01*
X17896Y-23478D01*
X17704Y-23557D01*
X17557Y-23704D01*
X17499Y-23843D01*
X17442Y-23704D01*
X17295Y-23557D01*
X17104Y-23478D01*
X16896Y-23478D01*
X16704Y-23557D01*
X16557Y-23704D01*
X16521Y-23790D01*
X16521Y-23676D01*
X16484Y-23585D01*
X16415Y-23515D01*
X16324Y-23478D01*
X16226Y-23478D01*
X15676Y-23478D01*
X15585Y-23515D01*
X15515Y-23584D01*
X15478Y-23675D01*
X15478Y-23773D01*
X15478Y-24323D01*
X15515Y-24414D01*
X15584Y-24484D01*
X15675Y-24521D01*
X15773Y-24521D01*
X15790Y-24521D01*
X15704Y-24557D01*
X15557Y-24704D01*
X15478Y-24895D01*
X15478Y-25103D01*
X15557Y-25295D01*
X15704Y-25442D01*
X15895Y-25521D01*
X16103Y-25521D01*
X16295Y-25442D01*
X16442Y-25295D01*
X16521Y-25104D01*
X16521Y-24896D01*
X16442Y-24704D01*
X16295Y-24557D01*
X16209Y-24521D01*
X16323Y-24521D01*
X16414Y-24484D01*
X16484Y-24415D01*
X16521Y-24324D01*
X16521Y-24226D01*
X16521Y-24209D01*
X16557Y-24295D01*
X16704Y-24442D01*
X16895Y-24521D01*
X17103Y-24521D01*
X17225Y-24471D01*
X17225Y-27117D01*
X16937Y-27404D01*
X16833Y-27404D01*
X16942Y-27295D01*
X17021Y-27104D01*
X17021Y-26896D01*
X16942Y-26704D01*
X16795Y-26557D01*
X16656Y-26499D01*
X16795Y-26442D01*
X16942Y-26295D01*
X17021Y-26104D01*
X17021Y-25896D01*
X16942Y-25704D01*
X16795Y-25557D01*
X16604Y-25478D01*
X16396Y-25478D01*
X16204Y-25557D01*
X16057Y-25704D01*
X15978Y-25895D01*
X15978Y-26103D01*
X16057Y-26295D01*
X16204Y-26442D01*
X16343Y-26500D01*
X16204Y-26557D01*
X16057Y-26704D01*
X15978Y-26895D01*
X15978Y-27103D01*
X16057Y-27295D01*
X16204Y-27442D01*
X16257Y-27464D01*
X16195Y-27505D01*
X16195Y-27505D01*
X15250Y-28450D01*
X15176Y-28562D01*
X15149Y-28695D01*
X15149Y-31005D01*
X15176Y-31137D01*
X15250Y-31249D01*
X15868Y-31866D01*
X15868Y-31866D01*
X15898Y-31886D01*
X15898Y-31886D01*
X16478Y-32466D01*
X16478Y-32603D01*
X16557Y-32795D01*
X16704Y-32942D01*
X16895Y-33021D01*
X17103Y-33021D01*
X17295Y-32942D01*
X17442Y-32795D01*
X17521Y-32604D01*
X17521Y-32396D01*
X17442Y-32204D01*
X17295Y-32057D01*
X17104Y-31978D01*
X16966Y-31978D01*
X16536Y-31548D01*
X16616Y-31581D01*
X16714Y-31581D01*
X17383Y-31581D01*
X17474Y-31544D01*
X17543Y-31474D01*
X17581Y-31383D01*
X17581Y-31285D01*
X17581Y-30616D01*
X17544Y-30525D01*
X17474Y-30456D01*
X17383Y-30418D01*
X17285Y-30418D01*
X16616Y-30418D01*
X16525Y-30455D01*
X16456Y-30525D01*
X16418Y-30616D01*
X16418Y-30714D01*
X16418Y-31383D01*
X16451Y-31463D01*
X16366Y-31378D01*
X16336Y-31358D01*
X15840Y-30861D01*
X15840Y-28838D01*
X16583Y-28095D01*
X17080Y-28095D01*
X17213Y-28068D01*
X17325Y-27994D01*
X17814Y-27504D01*
X17814Y-27504D01*
X17814Y-27504D01*
X17859Y-27437D01*
X17889Y-27392D01*
X17889Y-27392D01*
X17915Y-27260D01*
X17915Y-24572D01*
X17966Y-24521D01*
X18103Y-24521D01*
X18295Y-24442D01*
X18442Y-24295D01*
X18500Y-24156D01*
X18557Y-24295D01*
X18704Y-24442D01*
X18843Y-24500D01*
X18704Y-24557D01*
X18557Y-24704D01*
X18478Y-24895D01*
X18478Y-25103D01*
X18557Y-25295D01*
X18704Y-25442D01*
X18895Y-25521D01*
X19103Y-25521D01*
X19225Y-25471D01*
X19225Y-26236D01*
X19021Y-26033D01*
X19021Y-25896D01*
X18942Y-25704D01*
X18795Y-25557D01*
X18604Y-25478D01*
X18396Y-25478D01*
X18204Y-25557D01*
X18057Y-25704D01*
X17978Y-25895D01*
X17978Y-26103D01*
X18057Y-26295D01*
X18204Y-26442D01*
X18343Y-26500D01*
X18204Y-26557D01*
X18057Y-26704D01*
X17978Y-26895D01*
X17978Y-27103D01*
X18057Y-27295D01*
X18204Y-27442D01*
X18395Y-27521D01*
X18603Y-27521D01*
X18732Y-27468D01*
X18732Y-27778D01*
X17856Y-28654D01*
X17476Y-28654D01*
X17329Y-28507D01*
X17116Y-28418D01*
X16884Y-28418D01*
X16671Y-28506D01*
X16507Y-28670D01*
X16418Y-28883D01*
X16418Y-29115D01*
X16506Y-29328D01*
X16670Y-29492D01*
X16883Y-29581D01*
X17115Y-29581D01*
X17328Y-29493D01*
X17477Y-29345D01*
X17654Y-29345D01*
X17654Y-29523D01*
X17507Y-29670D01*
X17418Y-29883D01*
X17418Y-30115D01*
X17506Y-30328D01*
X17670Y-30492D01*
X17883Y-30581D01*
X18115Y-30581D01*
X18328Y-30493D01*
X18492Y-30329D01*
X18581Y-30116D01*
X18581Y-29884D01*
X18493Y-29671D01*
X18345Y-29522D01*
X18345Y-29143D01*
X19225Y-28263D01*
X19225Y-29539D01*
X19129Y-29635D01*
X19054Y-29747D01*
X19028Y-29879D01*
X19028Y-32572D01*
X18021Y-33579D01*
X18021Y-33396D01*
X17942Y-33204D01*
X17795Y-33057D01*
X17604Y-32978D01*
X17396Y-32978D01*
X17204Y-33057D01*
X17057Y-33204D01*
X16978Y-33395D01*
X16978Y-33603D01*
X17057Y-33795D01*
X17204Y-33942D01*
X17395Y-34021D01*
X17579Y-34021D01*
X17271Y-34329D01*
X17196Y-34442D01*
X17170Y-34574D01*
X17170Y-43194D01*
X17196Y-43327D01*
X17271Y-43439D01*
X17594Y-43761D01*
X17585Y-43765D01*
X17515Y-43834D01*
X17478Y-43925D01*
X17478Y-44023D01*
X17478Y-44573D01*
X17515Y-44664D01*
X17584Y-44734D01*
X17675Y-44771D01*
X17773Y-44771D01*
X18323Y-44771D01*
X18414Y-44734D01*
X18484Y-44665D01*
X18521Y-44574D01*
X18521Y-44476D01*
X18521Y-43926D01*
X18484Y-43835D01*
X18415Y-43765D01*
X18345Y-43736D01*
X18345Y-43679D01*
X18345Y-43679D01*
X18345Y-43679D01*
X18340Y-43653D01*
X18318Y-43547D01*
X18318Y-43547D01*
X18244Y-43435D01*
X18244Y-43435D01*
X17860Y-43051D01*
X17860Y-42713D01*
X17866Y-42713D01*
X19266Y-42713D01*
X19357Y-42676D01*
X19427Y-42607D01*
X19464Y-42516D01*
X19464Y-42418D01*
X19464Y-41018D01*
X19427Y-40927D01*
X19358Y-40857D01*
X19267Y-40820D01*
X19169Y-40820D01*
X17860Y-40820D01*
X17860Y-36356D01*
X17863Y-36356D01*
X19263Y-36356D01*
X19354Y-36319D01*
X19424Y-36250D01*
X19461Y-36159D01*
X19461Y-36061D01*
X19461Y-34661D01*
X19424Y-34570D01*
X19355Y-34500D01*
X19264Y-34463D01*
X19166Y-34463D01*
X18114Y-34463D01*
X18978Y-33599D01*
X18978Y-33603D01*
X19057Y-33795D01*
X19204Y-33942D01*
X19395Y-34021D01*
X19603Y-34021D01*
X19795Y-33942D01*
X19892Y-33845D01*
X20560Y-33845D01*
X20692Y-33818D01*
X20804Y-33744D01*
X21698Y-32850D01*
X23256Y-32850D01*
X23414Y-33008D01*
X23414Y-33098D01*
X23327Y-33011D01*
X23115Y-32923D01*
X22885Y-32923D01*
X22673Y-33010D01*
X22511Y-33172D01*
X22423Y-33384D01*
X22423Y-33614D01*
X22510Y-33826D01*
X22672Y-33988D01*
X22884Y-34076D01*
X23114Y-34076D01*
X23326Y-33989D01*
X23414Y-33901D01*
X23414Y-34050D01*
X23441Y-34182D01*
X23515Y-34294D01*
X23645Y-34424D01*
X23645Y-34424D01*
X23713Y-34469D01*
X23757Y-34498D01*
X23757Y-34498D01*
X23890Y-34525D01*
X25477Y-34525D01*
X25488Y-34536D01*
X25411Y-34536D01*
X24011Y-34536D01*
X23920Y-34573D01*
X23850Y-34642D01*
X23813Y-34733D01*
X23813Y-34831D01*
X23813Y-36231D01*
X23850Y-36322D01*
X23919Y-36392D01*
X24010Y-36429D01*
X24108Y-36429D01*
X25508Y-36429D01*
X25599Y-36392D01*
X25669Y-36323D01*
X25706Y-36232D01*
X25706Y-36134D01*
X25706Y-34754D01*
X25740Y-34787D01*
X25740Y-40180D01*
X25740Y-42835D01*
X25766Y-42967D01*
X25841Y-43079D01*
X26728Y-43966D01*
X26728Y-44103D01*
X26807Y-44295D01*
X26954Y-44442D01*
X27145Y-44521D01*
X27353Y-44521D01*
X27545Y-44442D01*
X27692Y-44295D01*
X27750Y-44156D01*
X27807Y-44295D01*
X27954Y-44442D01*
X28145Y-44521D01*
X28353Y-44521D01*
X28545Y-44442D01*
X28692Y-44295D01*
X28750Y-44156D01*
X28807Y-44295D01*
X28954Y-44442D01*
X29145Y-44521D01*
X29353Y-44521D01*
X29545Y-44442D01*
X29692Y-44295D01*
X29750Y-44156D01*
X29807Y-44295D01*
X29954Y-44442D01*
X30145Y-44521D01*
X30353Y-44521D01*
X30545Y-44442D01*
X30692Y-44295D01*
X30714Y-44242D01*
X30714Y-45559D01*
X30740Y-45691D01*
X30815Y-45803D01*
X31477Y-46465D01*
X31477Y-46603D01*
X31556Y-46795D01*
X31703Y-46942D01*
X31895Y-47022D01*
X32103Y-47022D01*
X32295Y-46943D01*
X32442Y-46796D01*
X32522Y-46604D01*
X32522Y-46396D01*
X32443Y-46204D01*
X32296Y-46057D01*
X32104Y-45977D01*
X31965Y-45977D01*
X31404Y-45416D01*
X31404Y-45144D01*
X31502Y-45242D01*
X31824Y-45376D01*
X32173Y-45376D01*
X32496Y-45243D01*
X32742Y-44997D01*
X32822Y-44806D01*
X32822Y-49822D01*
X32822Y-49822D01*
G37*
G54D29*
X32822Y-49822D02*
X32522Y-49822D01*
X32522Y-48896D01*
X32443Y-48704D01*
X32296Y-48557D01*
X32104Y-48477D01*
X31896Y-48477D01*
X31704Y-48556D01*
X31557Y-48703D01*
X31477Y-48895D01*
X31477Y-49103D01*
X31556Y-49295D01*
X31703Y-49442D01*
X31895Y-49522D01*
X32103Y-49522D01*
X32295Y-49443D01*
X32442Y-49296D01*
X32522Y-49104D01*
X32522Y-48896D01*
X32522Y-49822D01*
X31071Y-49822D01*
X31071Y-48386D01*
X30985Y-48176D01*
X30824Y-48015D01*
X30614Y-47928D01*
X30386Y-47928D01*
X30176Y-48014D01*
X30015Y-48175D01*
X29928Y-48385D01*
X29928Y-48613D01*
X30014Y-48823D01*
X30175Y-48984D01*
X30385Y-49071D01*
X30613Y-49071D01*
X30823Y-48985D01*
X30984Y-48824D01*
X31071Y-48614D01*
X31071Y-48386D01*
X31071Y-49822D01*
X29771Y-49822D01*
X29771Y-46896D01*
X29692Y-46704D01*
X29545Y-46557D01*
X29354Y-46478D01*
X29146Y-46478D01*
X28954Y-46557D01*
X28807Y-46704D01*
X28749Y-46843D01*
X28692Y-46704D01*
X28545Y-46557D01*
X28354Y-46478D01*
X28146Y-46478D01*
X27954Y-46557D01*
X27807Y-46704D01*
X27749Y-46843D01*
X27692Y-46704D01*
X27545Y-46557D01*
X27354Y-46478D01*
X27146Y-46478D01*
X26954Y-46557D01*
X26807Y-46704D01*
X26728Y-46895D01*
X26728Y-47103D01*
X26807Y-47295D01*
X26954Y-47442D01*
X27145Y-47521D01*
X27353Y-47521D01*
X27545Y-47442D01*
X27692Y-47295D01*
X27750Y-47156D01*
X27807Y-47295D01*
X27954Y-47442D01*
X28145Y-47521D01*
X28353Y-47521D01*
X28545Y-47442D01*
X28692Y-47295D01*
X28750Y-47156D01*
X28807Y-47295D01*
X28954Y-47442D01*
X29145Y-47521D01*
X29353Y-47521D01*
X29545Y-47442D01*
X29692Y-47295D01*
X29771Y-47104D01*
X29771Y-46896D01*
X29771Y-49822D01*
X27521Y-49822D01*
X27521Y-48726D01*
X27521Y-48176D01*
X27484Y-48085D01*
X27415Y-48015D01*
X27324Y-47978D01*
X27226Y-47978D01*
X26676Y-47978D01*
X26585Y-48015D01*
X26515Y-48084D01*
X26478Y-48175D01*
X26478Y-48273D01*
X26478Y-48823D01*
X26515Y-48914D01*
X26584Y-48984D01*
X26675Y-49021D01*
X26773Y-49021D01*
X27323Y-49021D01*
X27414Y-48984D01*
X27484Y-48915D01*
X27521Y-48824D01*
X27521Y-48726D01*
X27521Y-49822D01*
X25681Y-49822D01*
X25681Y-42491D01*
X25681Y-41091D01*
X25644Y-41000D01*
X25575Y-40930D01*
X25484Y-40893D01*
X25386Y-40893D01*
X23986Y-40893D01*
X23895Y-40930D01*
X23825Y-40999D01*
X23788Y-41090D01*
X23788Y-41188D01*
X23788Y-42588D01*
X23825Y-42679D01*
X23894Y-42749D01*
X23985Y-42786D01*
X24083Y-42786D01*
X25483Y-42786D01*
X25574Y-42749D01*
X25644Y-42680D01*
X25681Y-42589D01*
X25681Y-42491D01*
X25681Y-49822D01*
X25487Y-49822D01*
X25487Y-48679D01*
X25487Y-47379D01*
X25487Y-46829D01*
X25487Y-45529D01*
X25487Y-44979D01*
X25487Y-43679D01*
X25449Y-43588D01*
X25380Y-43518D01*
X25289Y-43481D01*
X25191Y-43481D01*
X23891Y-43481D01*
X23800Y-43518D01*
X23731Y-43587D01*
X23693Y-43678D01*
X23693Y-43776D01*
X23693Y-45076D01*
X23731Y-45167D01*
X23800Y-45237D01*
X23891Y-45274D01*
X23989Y-45274D01*
X25289Y-45274D01*
X25380Y-45237D01*
X25449Y-45167D01*
X25487Y-45077D01*
X25487Y-44979D01*
X25487Y-45529D01*
X25449Y-45438D01*
X25380Y-45369D01*
X25289Y-45331D01*
X25191Y-45331D01*
X23891Y-45331D01*
X23800Y-45368D01*
X23731Y-45438D01*
X23693Y-45529D01*
X23693Y-45627D01*
X23693Y-46927D01*
X23731Y-47017D01*
X23800Y-47087D01*
X23891Y-47125D01*
X23989Y-47125D01*
X25289Y-47125D01*
X25380Y-47087D01*
X25449Y-47018D01*
X25487Y-46927D01*
X25487Y-46829D01*
X25487Y-47379D01*
X25449Y-47289D01*
X25380Y-47219D01*
X25289Y-47181D01*
X25191Y-47181D01*
X23891Y-47181D01*
X23800Y-47219D01*
X23731Y-47288D01*
X23693Y-47379D01*
X23693Y-47477D01*
X23693Y-48777D01*
X23731Y-48868D01*
X23800Y-48937D01*
X23891Y-48975D01*
X23989Y-48975D01*
X25289Y-48975D01*
X25380Y-48938D01*
X25449Y-48868D01*
X25487Y-48778D01*
X25487Y-48679D01*
X25487Y-49822D01*
X23400Y-49822D01*
X23400Y-46829D01*
X23400Y-45529D01*
X23400Y-44979D01*
X23400Y-43679D01*
X23363Y-43588D01*
X23293Y-43518D01*
X23203Y-43481D01*
X23105Y-43481D01*
X22121Y-43481D01*
X22121Y-42396D01*
X22042Y-42204D01*
X21895Y-42057D01*
X21704Y-41978D01*
X21496Y-41978D01*
X21304Y-42057D01*
X21157Y-42204D01*
X21078Y-42395D01*
X21078Y-42603D01*
X21157Y-42795D01*
X21304Y-42942D01*
X21495Y-43021D01*
X21703Y-43021D01*
X21895Y-42942D01*
X22042Y-42795D01*
X22121Y-42604D01*
X22121Y-42396D01*
X22121Y-43481D01*
X21805Y-43481D01*
X21714Y-43518D01*
X21644Y-43587D01*
X21607Y-43678D01*
X21607Y-43776D01*
X21607Y-45076D01*
X21644Y-45167D01*
X21713Y-45237D01*
X21804Y-45274D01*
X21902Y-45274D01*
X23202Y-45274D01*
X23293Y-45237D01*
X23363Y-45167D01*
X23400Y-45077D01*
X23400Y-44979D01*
X23400Y-45529D01*
X23363Y-45438D01*
X23293Y-45369D01*
X23203Y-45331D01*
X23105Y-45331D01*
X21805Y-45331D01*
X21714Y-45368D01*
X21644Y-45438D01*
X21607Y-45529D01*
X21607Y-45627D01*
X21607Y-46927D01*
X21644Y-47017D01*
X21713Y-47087D01*
X21804Y-47125D01*
X21902Y-47125D01*
X23202Y-47125D01*
X23293Y-47087D01*
X23363Y-47018D01*
X23400Y-46927D01*
X23400Y-46829D01*
X23400Y-49822D01*
X21314Y-49822D01*
X21314Y-48679D01*
X21314Y-47379D01*
X21314Y-46829D01*
X21314Y-45529D01*
X21314Y-44979D01*
X21314Y-43679D01*
X21276Y-43588D01*
X21207Y-43518D01*
X21116Y-43481D01*
X21018Y-43481D01*
X19718Y-43481D01*
X19627Y-43518D01*
X19558Y-43587D01*
X19520Y-43678D01*
X19520Y-43776D01*
X19520Y-45076D01*
X19557Y-45167D01*
X19627Y-45237D01*
X19718Y-45274D01*
X19816Y-45274D01*
X21116Y-45274D01*
X21206Y-45237D01*
X21276Y-45167D01*
X21314Y-45077D01*
X21314Y-44979D01*
X21314Y-45529D01*
X21276Y-45438D01*
X21207Y-45369D01*
X21116Y-45331D01*
X21018Y-45331D01*
X19718Y-45331D01*
X19627Y-45368D01*
X19558Y-45438D01*
X19520Y-45529D01*
X19520Y-45627D01*
X19520Y-46927D01*
X19557Y-47017D01*
X19627Y-47087D01*
X19718Y-47125D01*
X19816Y-47125D01*
X21116Y-47125D01*
X21206Y-47087D01*
X21276Y-47018D01*
X21314Y-46927D01*
X21314Y-46829D01*
X21314Y-47379D01*
X21276Y-47289D01*
X21207Y-47219D01*
X21116Y-47181D01*
X21018Y-47181D01*
X19718Y-47181D01*
X19627Y-47219D01*
X19558Y-47288D01*
X19520Y-47379D01*
X19520Y-47477D01*
X19520Y-48777D01*
X19557Y-48868D01*
X19627Y-48937D01*
X19718Y-48975D01*
X19816Y-48975D01*
X21116Y-48975D01*
X21206Y-48938D01*
X21276Y-48868D01*
X21314Y-48778D01*
X21314Y-48679D01*
X21314Y-49822D01*
X18616Y-49822D01*
X18642Y-49796D01*
X18722Y-49604D01*
X18722Y-49396D01*
X18643Y-49204D01*
X18496Y-49057D01*
X18478Y-49049D01*
X18495Y-49042D01*
X18642Y-48895D01*
X18721Y-48704D01*
X18721Y-48496D01*
X18642Y-48304D01*
X18495Y-48157D01*
X18304Y-48078D01*
X18096Y-48078D01*
X17904Y-48157D01*
X17757Y-48304D01*
X17678Y-48495D01*
X17678Y-48703D01*
X17757Y-48895D01*
X17904Y-49042D01*
X17921Y-49049D01*
X17904Y-49056D01*
X17757Y-49203D01*
X17677Y-49395D01*
X17677Y-49603D01*
X17756Y-49795D01*
X17783Y-49822D01*
X13216Y-49822D01*
X13242Y-49796D01*
X13322Y-49604D01*
X13322Y-49396D01*
X13243Y-49204D01*
X13096Y-49057D01*
X13078Y-49049D01*
X13095Y-49042D01*
X13242Y-48895D01*
X13321Y-48704D01*
X13321Y-48496D01*
X13242Y-48304D01*
X13095Y-48157D01*
X12904Y-48078D01*
X12696Y-48078D01*
X12504Y-48157D01*
X12357Y-48304D01*
X12278Y-48495D01*
X12278Y-48703D01*
X12357Y-48895D01*
X12504Y-49042D01*
X12521Y-49049D01*
X12504Y-49056D01*
X12357Y-49203D01*
X12277Y-49395D01*
X12277Y-49603D01*
X12356Y-49795D01*
X12383Y-49822D01*
X12177Y-49822D01*
X12177Y-44306D01*
X12256Y-44496D01*
X12502Y-44742D01*
X12824Y-44876D01*
X13173Y-44876D01*
X13496Y-44743D01*
X13742Y-44497D01*
X13876Y-44175D01*
X13876Y-43826D01*
X13743Y-43503D01*
X13497Y-43257D01*
X13175Y-43123D01*
X12826Y-43123D01*
X12503Y-43256D01*
X12257Y-43502D01*
X12177Y-43693D01*
X12177Y-14806D01*
X12256Y-14996D01*
X12502Y-15242D01*
X12824Y-15376D01*
X13173Y-15376D01*
X13496Y-15243D01*
X13742Y-14997D01*
X13876Y-14675D01*
X13876Y-14326D01*
X13743Y-14003D01*
X13497Y-13757D01*
X13175Y-13623D01*
X12826Y-13623D01*
X12503Y-13756D01*
X12257Y-14002D01*
X12177Y-14193D01*
X12177Y-10177D01*
X19542Y-10177D01*
X19539Y-10186D01*
X19539Y-10284D01*
X19539Y-11583D01*
X19576Y-11674D01*
X19646Y-11743D01*
X19737Y-11781D01*
X19835Y-11781D01*
X21252Y-11781D01*
X21343Y-11743D01*
X21412Y-11674D01*
X21450Y-11583D01*
X21450Y-11485D01*
X21450Y-10186D01*
X21447Y-10177D01*
X23542Y-10177D01*
X23539Y-10186D01*
X23539Y-10284D01*
X23539Y-11583D01*
X23576Y-11674D01*
X23646Y-11743D01*
X23737Y-11781D01*
X23835Y-11781D01*
X25252Y-11781D01*
X25343Y-11743D01*
X25412Y-11674D01*
X25450Y-11583D01*
X25450Y-11485D01*
X25450Y-10186D01*
X25447Y-10177D01*
X32822Y-10177D01*
X32822Y-11693D01*
X32743Y-11503D01*
X32497Y-11257D01*
X32175Y-11123D01*
X31826Y-11123D01*
X31503Y-11256D01*
X31257Y-11502D01*
X31123Y-11824D01*
X31123Y-12173D01*
X31172Y-12292D01*
X31102Y-12223D01*
X30874Y-12128D01*
X30626Y-12128D01*
X30398Y-12222D01*
X30223Y-12397D01*
X30128Y-12625D01*
X30128Y-12873D01*
X30222Y-13101D01*
X30397Y-13276D01*
X30625Y-13371D01*
X30873Y-13371D01*
X31101Y-13277D01*
X31276Y-13102D01*
X31371Y-12874D01*
X31371Y-12626D01*
X31361Y-12601D01*
X31502Y-12742D01*
X31824Y-12876D01*
X32173Y-12876D01*
X32496Y-12743D01*
X32742Y-12497D01*
X32822Y-12306D01*
X32822Y-44193D01*
X32743Y-44003D01*
X32497Y-43757D01*
X32175Y-43623D01*
X31826Y-43623D01*
X31503Y-43756D01*
X31404Y-43855D01*
X31404Y-37083D01*
X31428Y-37060D01*
X31428Y-37113D01*
X31514Y-37323D01*
X31675Y-37484D01*
X31712Y-37499D01*
X31676Y-37514D01*
X31515Y-37675D01*
X31428Y-37885D01*
X31428Y-38113D01*
X31514Y-38323D01*
X31621Y-38430D01*
X31535Y-38465D01*
X31465Y-38534D01*
X31428Y-38625D01*
X31428Y-38723D01*
X31428Y-39373D01*
X31465Y-39464D01*
X31534Y-39534D01*
X31625Y-39571D01*
X31723Y-39571D01*
X32373Y-39571D01*
X32464Y-39534D01*
X32534Y-39465D01*
X32571Y-39374D01*
X32571Y-39276D01*
X32571Y-38626D01*
X32534Y-38535D01*
X32465Y-38465D01*
X32378Y-38430D01*
X32484Y-38324D01*
X32571Y-38114D01*
X32571Y-37886D01*
X32485Y-37676D01*
X32324Y-37515D01*
X32287Y-37500D01*
X32323Y-37485D01*
X32484Y-37324D01*
X32571Y-37114D01*
X32571Y-36886D01*
X32485Y-36676D01*
X32324Y-36515D01*
X32287Y-36500D01*
X32323Y-36485D01*
X32484Y-36324D01*
X32571Y-36114D01*
X32571Y-35886D01*
X32485Y-35676D01*
X32324Y-35515D01*
X32287Y-35500D01*
X32323Y-35485D01*
X32484Y-35324D01*
X32571Y-35114D01*
X32571Y-34886D01*
X32571Y-31886D01*
X32571Y-28886D01*
X32485Y-28676D01*
X32324Y-28515D01*
X32287Y-28500D01*
X32323Y-28485D01*
X32484Y-28324D01*
X32571Y-28114D01*
X32571Y-27886D01*
X32485Y-27676D01*
X32324Y-27515D01*
X32287Y-27500D01*
X32323Y-27485D01*
X32484Y-27324D01*
X32571Y-27114D01*
X32571Y-26886D01*
X32485Y-26676D01*
X32324Y-26515D01*
X32287Y-26500D01*
X32323Y-26485D01*
X32484Y-26324D01*
X32571Y-26114D01*
X32571Y-25886D01*
X32485Y-25676D01*
X32324Y-25515D01*
X32287Y-25500D01*
X32323Y-25485D01*
X32484Y-25324D01*
X32571Y-25114D01*
X32571Y-24886D01*
X32485Y-24676D01*
X32324Y-24515D01*
X32287Y-24500D01*
X32323Y-24485D01*
X32484Y-24324D01*
X32571Y-24114D01*
X32571Y-23886D01*
X32485Y-23676D01*
X32324Y-23515D01*
X32287Y-23500D01*
X32323Y-23485D01*
X32484Y-23324D01*
X32571Y-23114D01*
X32571Y-22886D01*
X32571Y-19886D01*
X32485Y-19676D01*
X32324Y-19515D01*
X32287Y-19500D01*
X32323Y-19485D01*
X32484Y-19324D01*
X32571Y-19114D01*
X32571Y-18886D01*
X32485Y-18676D01*
X32324Y-18515D01*
X32287Y-18500D01*
X32323Y-18485D01*
X32484Y-18324D01*
X32571Y-18114D01*
X32571Y-17886D01*
X32485Y-17676D01*
X32324Y-17515D01*
X32287Y-17500D01*
X32323Y-17485D01*
X32484Y-17324D01*
X32571Y-17114D01*
X32571Y-16886D01*
X32485Y-16676D01*
X32324Y-16515D01*
X32287Y-16500D01*
X32323Y-16485D01*
X32484Y-16324D01*
X32571Y-16114D01*
X32571Y-15886D01*
X32485Y-15676D01*
X32324Y-15515D01*
X32287Y-15500D01*
X32323Y-15485D01*
X32484Y-15324D01*
X32571Y-15114D01*
X32571Y-14886D01*
X32485Y-14676D01*
X32324Y-14515D01*
X32287Y-14500D01*
X32323Y-14485D01*
X32484Y-14324D01*
X32571Y-14114D01*
X32571Y-13886D01*
X32485Y-13676D01*
X32324Y-13515D01*
X32114Y-13428D01*
X31886Y-13428D01*
X31676Y-13514D01*
X31515Y-13675D01*
X31428Y-13885D01*
X31428Y-14113D01*
X31514Y-14323D01*
X31675Y-14484D01*
X31712Y-14499D01*
X31676Y-14514D01*
X31515Y-14675D01*
X31428Y-14885D01*
X31428Y-15113D01*
X31514Y-15323D01*
X31675Y-15484D01*
X31712Y-15499D01*
X31676Y-15514D01*
X31515Y-15675D01*
X31429Y-15881D01*
X30906Y-16404D01*
X30550Y-16404D01*
X30321Y-16404D01*
X30321Y-15636D01*
X30235Y-15426D01*
X30074Y-15265D01*
X29864Y-15178D01*
X29636Y-15178D01*
X29426Y-15264D01*
X29265Y-15425D01*
X29250Y-15462D01*
X29235Y-15426D01*
X29074Y-15265D01*
X28864Y-15178D01*
X28636Y-15178D01*
X28426Y-15264D01*
X28265Y-15425D01*
X28178Y-15635D01*
X28178Y-15863D01*
X28264Y-16073D01*
X28425Y-16234D01*
X28635Y-16321D01*
X28863Y-16321D01*
X29073Y-16235D01*
X29234Y-16074D01*
X29249Y-16037D01*
X29264Y-16073D01*
X29425Y-16234D01*
X29635Y-16321D01*
X29863Y-16321D01*
X30073Y-16235D01*
X30234Y-16074D01*
X30321Y-15864D01*
X30321Y-15636D01*
X30321Y-16404D01*
X27800Y-16404D01*
X27799Y-16404D01*
X27773Y-16409D01*
X27667Y-16431D01*
X27555Y-16505D01*
X27555Y-16505D01*
X27371Y-16689D01*
X27371Y-12626D01*
X27277Y-12398D01*
X27102Y-12223D01*
X26874Y-12128D01*
X26626Y-12128D01*
X26398Y-12222D01*
X26223Y-12397D01*
X26128Y-12625D01*
X26128Y-12873D01*
X26222Y-13101D01*
X26397Y-13276D01*
X26625Y-13371D01*
X26873Y-13371D01*
X27101Y-13277D01*
X27276Y-13102D01*
X27371Y-12874D01*
X27371Y-12626D01*
X27371Y-16689D01*
X27255Y-16805D01*
X27181Y-16917D01*
X27154Y-17050D01*
X27154Y-17200D01*
X27154Y-17607D01*
X27057Y-17704D01*
X26978Y-17895D01*
X26978Y-18103D01*
X27057Y-18295D01*
X27204Y-18442D01*
X27395Y-18521D01*
X27603Y-18521D01*
X27795Y-18442D01*
X27942Y-18295D01*
X28021Y-18104D01*
X28021Y-17896D01*
X27942Y-17704D01*
X27845Y-17607D01*
X27845Y-17200D01*
X27845Y-17193D01*
X27943Y-17095D01*
X28166Y-17095D01*
X28057Y-17204D01*
X27978Y-17395D01*
X27978Y-17603D01*
X28057Y-17795D01*
X28154Y-17892D01*
X28154Y-18856D01*
X27533Y-19478D01*
X27396Y-19478D01*
X27204Y-19557D01*
X27057Y-19704D01*
X26978Y-19895D01*
X26978Y-20103D01*
X27057Y-20295D01*
X27154Y-20392D01*
X27154Y-21177D01*
X27100Y-21232D01*
X27028Y-21405D01*
X27028Y-21593D01*
X27099Y-21766D01*
X27232Y-21899D01*
X27363Y-21954D01*
X27021Y-22296D01*
X27021Y-20396D01*
X26942Y-20204D01*
X26795Y-20057D01*
X26604Y-19978D01*
X26396Y-19978D01*
X26204Y-20057D01*
X26057Y-20204D01*
X25978Y-20395D01*
X25978Y-20603D01*
X26057Y-20795D01*
X26204Y-20942D01*
X26395Y-21021D01*
X26603Y-21021D01*
X26795Y-20942D01*
X26942Y-20795D01*
X27021Y-20604D01*
X27021Y-20396D01*
X27021Y-22296D01*
X26992Y-22325D01*
X26942Y-22204D01*
X26795Y-22057D01*
X26604Y-21978D01*
X26396Y-21978D01*
X26204Y-22057D01*
X26057Y-22204D01*
X25978Y-22395D01*
X25978Y-22603D01*
X26057Y-22795D01*
X26204Y-22942D01*
X26395Y-23021D01*
X26603Y-23021D01*
X26654Y-23000D01*
X26654Y-24107D01*
X26557Y-24204D01*
X26499Y-24343D01*
X26442Y-24204D01*
X26295Y-24057D01*
X26156Y-23999D01*
X26295Y-23942D01*
X26442Y-23795D01*
X26521Y-23604D01*
X26521Y-23396D01*
X26442Y-23204D01*
X26295Y-23057D01*
X26104Y-22978D01*
X25896Y-22978D01*
X25774Y-23028D01*
X25774Y-20877D01*
X25748Y-20745D01*
X25748Y-20745D01*
X25673Y-20633D01*
X25673Y-20633D01*
X25562Y-20521D01*
X25603Y-20521D01*
X25795Y-20442D01*
X25942Y-20295D01*
X26021Y-20104D01*
X26021Y-19896D01*
X25942Y-19704D01*
X25795Y-19557D01*
X25604Y-19478D01*
X25455Y-19478D01*
X25455Y-13350D01*
X25455Y-12051D01*
X25418Y-11960D01*
X25348Y-11891D01*
X25257Y-11853D01*
X25159Y-11853D01*
X23742Y-11853D01*
X23651Y-11891D01*
X23582Y-11960D01*
X23544Y-12051D01*
X23544Y-12149D01*
X23544Y-13448D01*
X23581Y-13539D01*
X23651Y-13608D01*
X23742Y-13646D01*
X23840Y-13646D01*
X25257Y-13646D01*
X25348Y-13608D01*
X25417Y-13539D01*
X25455Y-13448D01*
X25455Y-13350D01*
X25455Y-19478D01*
X25396Y-19478D01*
X25204Y-19557D01*
X25057Y-19704D01*
X24978Y-19895D01*
X24978Y-19937D01*
X24650Y-19610D01*
X24851Y-19527D01*
X25026Y-19352D01*
X25121Y-19124D01*
X25121Y-18876D01*
X25027Y-18648D01*
X24852Y-18473D01*
X24624Y-18378D01*
X24376Y-18378D01*
X24148Y-18472D01*
X23973Y-18647D01*
X23889Y-18849D01*
X22895Y-17854D01*
X22895Y-14799D01*
X22895Y-14799D01*
X22895Y-14799D01*
X22889Y-14773D01*
X22868Y-14667D01*
X22868Y-14667D01*
X22794Y-14555D01*
X22794Y-14555D01*
X21455Y-13217D01*
X21455Y-12051D01*
X21418Y-11960D01*
X21348Y-11891D01*
X21257Y-11853D01*
X21159Y-11853D01*
X19742Y-11853D01*
X19651Y-11891D01*
X19582Y-11960D01*
X19544Y-12051D01*
X19544Y-12149D01*
X19544Y-13448D01*
X19581Y-13539D01*
X19651Y-13608D01*
X19742Y-13646D01*
X19840Y-13646D01*
X20908Y-13646D01*
X22204Y-14942D01*
X22204Y-17997D01*
X22230Y-18130D01*
X22305Y-18242D01*
X25084Y-21020D01*
X25084Y-30929D01*
X25110Y-31061D01*
X25185Y-31173D01*
X25478Y-31466D01*
X25478Y-31603D01*
X25557Y-31795D01*
X25704Y-31942D01*
X25895Y-32021D01*
X26103Y-32021D01*
X26295Y-31942D01*
X26442Y-31795D01*
X26521Y-31604D01*
X26521Y-31396D01*
X26442Y-31204D01*
X26295Y-31057D01*
X26156Y-30999D01*
X26295Y-30942D01*
X26442Y-30795D01*
X26521Y-30604D01*
X26521Y-30396D01*
X26442Y-30204D01*
X26295Y-30057D01*
X26104Y-29978D01*
X25896Y-29978D01*
X25774Y-30028D01*
X25774Y-28971D01*
X25895Y-29021D01*
X26103Y-29021D01*
X26295Y-28942D01*
X26442Y-28795D01*
X26521Y-28604D01*
X26521Y-28396D01*
X26442Y-28204D01*
X26295Y-28057D01*
X26104Y-27978D01*
X25896Y-27978D01*
X25774Y-28028D01*
X25774Y-24971D01*
X25895Y-25021D01*
X26103Y-25021D01*
X26295Y-24942D01*
X26442Y-24795D01*
X26500Y-24656D01*
X26557Y-24795D01*
X26704Y-24942D01*
X26895Y-25021D01*
X27103Y-25021D01*
X27295Y-24942D01*
X27442Y-24795D01*
X27500Y-24656D01*
X27557Y-24795D01*
X27704Y-24942D01*
X27895Y-25021D01*
X28033Y-25021D01*
X28327Y-25316D01*
X28327Y-25316D01*
X28439Y-25391D01*
X28439Y-25391D01*
X28545Y-25412D01*
X28572Y-25417D01*
X28572Y-25417D01*
X28572Y-25417D01*
X29404Y-25417D01*
X29536Y-25391D01*
X29648Y-25316D01*
X29824Y-25139D01*
X29824Y-25139D01*
X29824Y-25139D01*
X29899Y-25027D01*
X29899Y-25027D01*
X29925Y-24895D01*
X29925Y-20812D01*
X29942Y-20795D01*
X30021Y-20604D01*
X30021Y-20396D01*
X29942Y-20204D01*
X29795Y-20057D01*
X29604Y-19978D01*
X29396Y-19978D01*
X29204Y-20057D01*
X29057Y-20204D01*
X28999Y-20343D01*
X28942Y-20204D01*
X28795Y-20057D01*
X28604Y-19978D01*
X28396Y-19978D01*
X28204Y-20057D01*
X28057Y-20204D01*
X27978Y-20395D01*
X27978Y-20603D01*
X28057Y-20795D01*
X28154Y-20892D01*
X28154Y-21163D01*
X27954Y-21364D01*
X27900Y-21233D01*
X27845Y-21177D01*
X27845Y-20392D01*
X27942Y-20295D01*
X28021Y-20104D01*
X28021Y-19966D01*
X28744Y-19244D01*
X28744Y-19244D01*
X28744Y-19244D01*
X28789Y-19176D01*
X28818Y-19132D01*
X28818Y-19132D01*
X28845Y-19000D01*
X28845Y-17892D01*
X28942Y-17795D01*
X29000Y-17656D01*
X29057Y-17795D01*
X29154Y-17892D01*
X29154Y-19000D01*
X29181Y-19132D01*
X29255Y-19244D01*
X29978Y-19966D01*
X29978Y-20103D01*
X30057Y-20295D01*
X30154Y-20392D01*
X30154Y-21177D01*
X30100Y-21232D01*
X30028Y-21405D01*
X30028Y-21593D01*
X30099Y-21766D01*
X30232Y-21899D01*
X30405Y-21971D01*
X30593Y-21971D01*
X30766Y-21900D01*
X30899Y-21767D01*
X30971Y-21594D01*
X30971Y-21406D01*
X30900Y-21233D01*
X30845Y-21177D01*
X30845Y-20392D01*
X30942Y-20295D01*
X31021Y-20104D01*
X31021Y-19896D01*
X30942Y-19704D01*
X30795Y-19557D01*
X30604Y-19478D01*
X30466Y-19478D01*
X29845Y-18856D01*
X29845Y-17892D01*
X29942Y-17795D01*
X30021Y-17604D01*
X30021Y-17396D01*
X29942Y-17204D01*
X29833Y-17095D01*
X30550Y-17095D01*
X30916Y-17095D01*
X30533Y-17478D01*
X30396Y-17478D01*
X30204Y-17557D01*
X30057Y-17704D01*
X29978Y-17895D01*
X29978Y-18103D01*
X30057Y-18295D01*
X30204Y-18442D01*
X30395Y-18521D01*
X30603Y-18521D01*
X30795Y-18442D01*
X30942Y-18295D01*
X31021Y-18104D01*
X31021Y-17966D01*
X31589Y-17398D01*
X31675Y-17484D01*
X31712Y-17499D01*
X31676Y-17514D01*
X31515Y-17675D01*
X31428Y-17885D01*
X31428Y-18113D01*
X31514Y-18323D01*
X31675Y-18484D01*
X31712Y-18499D01*
X31676Y-18514D01*
X31515Y-18675D01*
X31428Y-18885D01*
X31428Y-19113D01*
X31514Y-19323D01*
X31675Y-19484D01*
X31712Y-19499D01*
X31676Y-19514D01*
X31515Y-19675D01*
X31428Y-19885D01*
X31428Y-20113D01*
X31514Y-20323D01*
X31621Y-20430D01*
X31535Y-20465D01*
X31465Y-20534D01*
X31428Y-20625D01*
X31428Y-20723D01*
X31428Y-21373D01*
X31465Y-21464D01*
X31534Y-21534D01*
X31625Y-21571D01*
X31723Y-21571D01*
X32373Y-21571D01*
X32464Y-21534D01*
X32534Y-21465D01*
X32571Y-21374D01*
X32571Y-21276D01*
X32571Y-20626D01*
X32534Y-20535D01*
X32465Y-20465D01*
X32378Y-20430D01*
X32484Y-20324D01*
X32571Y-20114D01*
X32571Y-19886D01*
X32571Y-22886D01*
X32485Y-22676D01*
X32324Y-22515D01*
X32114Y-22428D01*
X31886Y-22428D01*
X31676Y-22514D01*
X31515Y-22675D01*
X31428Y-22885D01*
X31428Y-23113D01*
X31514Y-23323D01*
X31675Y-23484D01*
X31712Y-23499D01*
X31676Y-23514D01*
X31515Y-23675D01*
X31428Y-23885D01*
X31428Y-24113D01*
X31514Y-24323D01*
X31675Y-24484D01*
X31712Y-24499D01*
X31676Y-24514D01*
X31515Y-24675D01*
X31428Y-24885D01*
X31428Y-25113D01*
X31514Y-25323D01*
X31675Y-25484D01*
X31712Y-25499D01*
X31676Y-25514D01*
X31515Y-25675D01*
X31428Y-25885D01*
X31428Y-26113D01*
X31514Y-26323D01*
X31675Y-26484D01*
X31712Y-26499D01*
X31676Y-26514D01*
X31515Y-26675D01*
X31428Y-26885D01*
X31428Y-27113D01*
X31514Y-27323D01*
X31675Y-27484D01*
X31712Y-27499D01*
X31676Y-27514D01*
X31515Y-27675D01*
X31428Y-27885D01*
X31428Y-28113D01*
X31514Y-28323D01*
X31675Y-28484D01*
X31712Y-28499D01*
X31676Y-28514D01*
X31515Y-28675D01*
X31428Y-28885D01*
X31428Y-29113D01*
X31514Y-29323D01*
X31621Y-29430D01*
X31535Y-29465D01*
X31465Y-29534D01*
X31428Y-29625D01*
X31428Y-29723D01*
X31428Y-30373D01*
X31465Y-30464D01*
X31534Y-30534D01*
X31625Y-30571D01*
X31723Y-30571D01*
X32373Y-30571D01*
X32464Y-30534D01*
X32534Y-30465D01*
X32571Y-30374D01*
X32571Y-30276D01*
X32571Y-29626D01*
X32534Y-29535D01*
X32465Y-29465D01*
X32378Y-29430D01*
X32484Y-29324D01*
X32571Y-29114D01*
X32571Y-28886D01*
X32571Y-31886D01*
X32485Y-31676D01*
X32324Y-31515D01*
X32114Y-31428D01*
X31886Y-31428D01*
X31676Y-31514D01*
X31515Y-31675D01*
X31428Y-31885D01*
X31428Y-32113D01*
X31514Y-32323D01*
X31675Y-32484D01*
X31885Y-32571D01*
X32113Y-32571D01*
X32323Y-32485D01*
X32484Y-32324D01*
X32571Y-32114D01*
X32571Y-31886D01*
X32571Y-34886D01*
X32485Y-34676D01*
X32324Y-34515D01*
X32114Y-34428D01*
X31916Y-34428D01*
X31520Y-34032D01*
X31408Y-33957D01*
X31276Y-33931D01*
X31021Y-33931D01*
X31021Y-26896D01*
X31021Y-24896D01*
X30942Y-24704D01*
X30795Y-24557D01*
X30604Y-24478D01*
X30396Y-24478D01*
X30204Y-24557D01*
X30057Y-24704D01*
X29978Y-24895D01*
X29978Y-25103D01*
X30057Y-25295D01*
X30204Y-25442D01*
X30395Y-25521D01*
X30603Y-25521D01*
X30795Y-25442D01*
X30942Y-25295D01*
X31021Y-25104D01*
X31021Y-24896D01*
X31021Y-26896D01*
X30942Y-26704D01*
X30795Y-26557D01*
X30604Y-26478D01*
X30396Y-26478D01*
X30204Y-26557D01*
X30057Y-26704D01*
X29978Y-26895D01*
X29978Y-27103D01*
X30057Y-27295D01*
X30154Y-27392D01*
X30154Y-28856D01*
X29033Y-29978D01*
X28896Y-29978D01*
X28704Y-30057D01*
X28557Y-30204D01*
X28478Y-30395D01*
X28478Y-30603D01*
X28557Y-30795D01*
X28704Y-30942D01*
X28843Y-31000D01*
X28704Y-31057D01*
X28557Y-31204D01*
X28478Y-31395D01*
X28478Y-31603D01*
X28557Y-31795D01*
X28704Y-31942D01*
X28895Y-32021D01*
X29103Y-32021D01*
X29295Y-31942D01*
X29442Y-31795D01*
X29521Y-31604D01*
X29521Y-31396D01*
X29442Y-31204D01*
X29295Y-31057D01*
X29156Y-30999D01*
X29295Y-30942D01*
X29442Y-30795D01*
X29521Y-30604D01*
X29521Y-30466D01*
X30744Y-29244D01*
X30744Y-29244D01*
X30744Y-29244D01*
X30818Y-29132D01*
X30818Y-29132D01*
X30845Y-29000D01*
X30845Y-27392D01*
X30942Y-27295D01*
X31021Y-27104D01*
X31021Y-26896D01*
X31021Y-33931D01*
X29601Y-33931D01*
X29166Y-33496D01*
X29295Y-33442D01*
X29442Y-33295D01*
X29478Y-33209D01*
X29478Y-33323D01*
X29515Y-33414D01*
X29584Y-33484D01*
X29675Y-33521D01*
X29773Y-33521D01*
X30323Y-33521D01*
X30414Y-33484D01*
X30484Y-33415D01*
X30521Y-33324D01*
X30521Y-33226D01*
X30521Y-32676D01*
X30484Y-32585D01*
X30415Y-32515D01*
X30324Y-32478D01*
X30226Y-32478D01*
X29676Y-32478D01*
X29585Y-32515D01*
X29515Y-32584D01*
X29478Y-32675D01*
X29478Y-32773D01*
X29478Y-32790D01*
X29442Y-32704D01*
X29295Y-32557D01*
X29104Y-32478D01*
X28896Y-32478D01*
X28704Y-32557D01*
X28557Y-32704D01*
X28503Y-32833D01*
X28269Y-32599D01*
X28269Y-29969D01*
X28395Y-30021D01*
X28603Y-30021D01*
X28795Y-29942D01*
X28942Y-29795D01*
X29021Y-29604D01*
X29021Y-29396D01*
X28942Y-29204D01*
X28795Y-29057D01*
X28604Y-28978D01*
X28396Y-28978D01*
X28269Y-29030D01*
X28269Y-28718D01*
X28478Y-28510D01*
X28478Y-28603D01*
X28557Y-28795D01*
X28704Y-28942D01*
X28895Y-29021D01*
X29103Y-29021D01*
X29295Y-28942D01*
X29442Y-28795D01*
X29521Y-28604D01*
X29521Y-28396D01*
X29442Y-28204D01*
X29295Y-28057D01*
X29156Y-27999D01*
X29295Y-27942D01*
X29442Y-27795D01*
X29521Y-27604D01*
X29521Y-27396D01*
X29442Y-27204D01*
X29295Y-27057D01*
X29104Y-26978D01*
X28896Y-26978D01*
X28704Y-27057D01*
X28557Y-27204D01*
X28499Y-27343D01*
X28442Y-27204D01*
X28295Y-27057D01*
X28104Y-26978D01*
X27896Y-26978D01*
X27704Y-27057D01*
X27557Y-27204D01*
X27499Y-27343D01*
X27442Y-27204D01*
X27295Y-27057D01*
X27104Y-26978D01*
X26896Y-26978D01*
X26704Y-27057D01*
X26557Y-27204D01*
X26478Y-27395D01*
X26478Y-27603D01*
X26557Y-27795D01*
X26704Y-27942D01*
X26895Y-28021D01*
X27103Y-28021D01*
X27295Y-27942D01*
X27442Y-27795D01*
X27500Y-27656D01*
X27557Y-27795D01*
X27704Y-27942D01*
X27895Y-28021D01*
X27989Y-28021D01*
X27680Y-28331D01*
X27605Y-28443D01*
X27579Y-28575D01*
X27579Y-32742D01*
X27605Y-32874D01*
X27680Y-32986D01*
X27719Y-33026D01*
X27604Y-32978D01*
X27396Y-32978D01*
X27204Y-33057D01*
X27057Y-33204D01*
X27021Y-33290D01*
X27021Y-29396D01*
X26942Y-29204D01*
X26795Y-29057D01*
X26604Y-28978D01*
X26396Y-28978D01*
X26204Y-29057D01*
X26057Y-29204D01*
X25978Y-29395D01*
X25978Y-29603D01*
X26057Y-29795D01*
X26204Y-29942D01*
X26395Y-30021D01*
X26603Y-30021D01*
X26795Y-29942D01*
X26942Y-29795D01*
X27021Y-29604D01*
X27021Y-29396D01*
X27021Y-33290D01*
X27001Y-33339D01*
X24965Y-31303D01*
X24965Y-24740D01*
X24965Y-24740D01*
X24965Y-24740D01*
X24960Y-24714D01*
X24939Y-24608D01*
X24939Y-24608D01*
X24864Y-24496D01*
X24864Y-24496D01*
X24420Y-24052D01*
X24464Y-24034D01*
X24534Y-23965D01*
X24571Y-23874D01*
X24571Y-23776D01*
X24571Y-23126D01*
X24534Y-23035D01*
X24465Y-22965D01*
X24374Y-22928D01*
X24276Y-22928D01*
X24016Y-22928D01*
X23845Y-22756D01*
X23845Y-22463D01*
X23984Y-22324D01*
X24071Y-22114D01*
X24071Y-21886D01*
X23985Y-21676D01*
X23845Y-21536D01*
X23845Y-21033D01*
X23818Y-20901D01*
X23818Y-20901D01*
X23744Y-20789D01*
X23744Y-20789D01*
X18871Y-15916D01*
X18871Y-12626D01*
X18777Y-12398D01*
X18602Y-12223D01*
X18374Y-12128D01*
X18126Y-12128D01*
X17898Y-12222D01*
X17723Y-12397D01*
X17628Y-12625D01*
X17628Y-12873D01*
X17722Y-13101D01*
X17897Y-13276D01*
X18125Y-13371D01*
X18373Y-13371D01*
X18601Y-13277D01*
X18776Y-13102D01*
X18871Y-12874D01*
X18871Y-12626D01*
X18871Y-15916D01*
X18460Y-15505D01*
X18348Y-15431D01*
X18216Y-15404D01*
X17713Y-15404D01*
X17574Y-15265D01*
X17364Y-15178D01*
X17136Y-15178D01*
X16926Y-15264D01*
X16765Y-15425D01*
X16750Y-15462D01*
X16735Y-15426D01*
X16574Y-15265D01*
X16364Y-15178D01*
X16136Y-15178D01*
X15926Y-15264D01*
X15765Y-15425D01*
X15678Y-15635D01*
X15678Y-15863D01*
X15764Y-16073D01*
X15925Y-16234D01*
X16135Y-16321D01*
X16363Y-16321D01*
X16573Y-16235D01*
X16734Y-16074D01*
X16749Y-16037D01*
X16764Y-16073D01*
X16925Y-16234D01*
X17135Y-16321D01*
X17363Y-16321D01*
X17573Y-16235D01*
X17713Y-16095D01*
X18073Y-16095D01*
X20362Y-18383D01*
X20148Y-18472D01*
X19973Y-18647D01*
X19878Y-18875D01*
X19878Y-19123D01*
X19972Y-19351D01*
X20147Y-19526D01*
X20375Y-19621D01*
X20623Y-19621D01*
X20851Y-19527D01*
X21026Y-19352D01*
X21116Y-19137D01*
X23154Y-21176D01*
X23154Y-21536D01*
X23015Y-21675D01*
X23000Y-21712D01*
X22985Y-21676D01*
X22824Y-21515D01*
X22614Y-21428D01*
X22386Y-21428D01*
X22176Y-21514D01*
X22015Y-21675D01*
X21928Y-21885D01*
X21928Y-22113D01*
X22014Y-22323D01*
X22175Y-22484D01*
X22385Y-22571D01*
X22613Y-22571D01*
X22823Y-22485D01*
X22984Y-22324D01*
X22999Y-22287D01*
X23014Y-22323D01*
X23154Y-22463D01*
X23154Y-22856D01*
X23083Y-22928D01*
X22626Y-22928D01*
X22535Y-22965D01*
X22465Y-23034D01*
X22428Y-23125D01*
X22428Y-23223D01*
X22428Y-23873D01*
X22465Y-23964D01*
X22534Y-24034D01*
X22625Y-24071D01*
X22723Y-24071D01*
X23373Y-24071D01*
X23464Y-24034D01*
X23500Y-23999D01*
X23534Y-24034D01*
X23625Y-24071D01*
X23654Y-24071D01*
X23654Y-24120D01*
X23681Y-24252D01*
X23755Y-24364D01*
X24275Y-24883D01*
X24275Y-25995D01*
X24114Y-25928D01*
X23886Y-25928D01*
X23676Y-26014D01*
X23515Y-26175D01*
X23500Y-26212D01*
X23485Y-26176D01*
X23324Y-26015D01*
X23114Y-25928D01*
X22886Y-25928D01*
X22676Y-26014D01*
X22569Y-26121D01*
X22534Y-26035D01*
X22465Y-25965D01*
X22374Y-25928D01*
X22276Y-25928D01*
X21626Y-25928D01*
X21535Y-25965D01*
X21499Y-26000D01*
X21465Y-25965D01*
X21374Y-25928D01*
X21276Y-25928D01*
X20724Y-25928D01*
X20724Y-24379D01*
X20698Y-24247D01*
X20698Y-24247D01*
X20623Y-24135D01*
X20623Y-24135D01*
X18010Y-21521D01*
X18103Y-21521D01*
X18295Y-21442D01*
X18442Y-21295D01*
X18500Y-21156D01*
X18557Y-21295D01*
X18704Y-21442D01*
X18895Y-21521D01*
X19103Y-21521D01*
X19295Y-21442D01*
X19442Y-21295D01*
X19521Y-21104D01*
X19521Y-20896D01*
X19442Y-20704D01*
X19295Y-20557D01*
X19156Y-20499D01*
X19295Y-20442D01*
X19442Y-20295D01*
X19521Y-20104D01*
X19521Y-19896D01*
X19442Y-19704D01*
X19295Y-19557D01*
X19156Y-19499D01*
X19295Y-19442D01*
X19442Y-19295D01*
X19521Y-19104D01*
X19521Y-18896D01*
X19442Y-18704D01*
X19295Y-18557D01*
X19104Y-18478D01*
X19021Y-18478D01*
X19021Y-17896D01*
X18942Y-17704D01*
X18795Y-17557D01*
X18604Y-17478D01*
X18396Y-17478D01*
X18204Y-17557D01*
X18057Y-17704D01*
X17978Y-17895D01*
X17978Y-18103D01*
X18057Y-18295D01*
X18204Y-18442D01*
X18395Y-18521D01*
X18603Y-18521D01*
X18795Y-18442D01*
X18942Y-18295D01*
X19021Y-18104D01*
X19021Y-17896D01*
X19021Y-18478D01*
X18896Y-18478D01*
X18704Y-18557D01*
X18557Y-18704D01*
X18478Y-18895D01*
X18478Y-19103D01*
X18557Y-19295D01*
X18704Y-19442D01*
X18843Y-19500D01*
X18704Y-19557D01*
X18557Y-19704D01*
X18478Y-19895D01*
X18478Y-20103D01*
X18557Y-20295D01*
X18704Y-20442D01*
X18843Y-20500D01*
X18704Y-20557D01*
X18557Y-20704D01*
X18499Y-20843D01*
X18442Y-20704D01*
X18295Y-20557D01*
X18104Y-20478D01*
X17896Y-20478D01*
X17704Y-20557D01*
X17557Y-20704D01*
X17499Y-20843D01*
X17442Y-20704D01*
X17295Y-20557D01*
X17104Y-20478D01*
X17021Y-20478D01*
X17021Y-17896D01*
X16942Y-17704D01*
X16795Y-17557D01*
X16604Y-17478D01*
X16396Y-17478D01*
X16204Y-17557D01*
X16057Y-17704D01*
X15978Y-17895D01*
X15978Y-18103D01*
X16057Y-18295D01*
X16204Y-18442D01*
X16395Y-18521D01*
X16603Y-18521D01*
X16795Y-18442D01*
X16942Y-18295D01*
X17021Y-18104D01*
X17021Y-17896D01*
X17021Y-20478D01*
X16896Y-20478D01*
X16704Y-20557D01*
X16557Y-20704D01*
X16499Y-20843D01*
X16442Y-20704D01*
X16295Y-20557D01*
X16156Y-20499D01*
X16295Y-20442D01*
X16442Y-20295D01*
X16521Y-20104D01*
X16521Y-19896D01*
X16442Y-19704D01*
X16295Y-19557D01*
X16156Y-19499D01*
X16295Y-19442D01*
X16442Y-19295D01*
X16521Y-19104D01*
X16521Y-18896D01*
X16442Y-18704D01*
X16295Y-18557D01*
X16104Y-18478D01*
X15896Y-18478D01*
X15704Y-18557D01*
X15557Y-18704D01*
X15478Y-18895D01*
X15478Y-19103D01*
X15557Y-19295D01*
X15704Y-19442D01*
X15843Y-19500D01*
X15704Y-19557D01*
X15557Y-19704D01*
X15478Y-19895D01*
X15478Y-20103D01*
X15557Y-20295D01*
X15704Y-20442D01*
X15843Y-20500D01*
X15704Y-20557D01*
X15557Y-20704D01*
X15478Y-20895D01*
X15478Y-21033D01*
X15021Y-21489D01*
X15021Y-21396D01*
X14942Y-21204D01*
X14871Y-21133D01*
X14871Y-12626D01*
X14777Y-12398D01*
X14602Y-12223D01*
X14374Y-12128D01*
X14126Y-12128D01*
X13898Y-12222D01*
X13723Y-12397D01*
X13628Y-12625D01*
X13628Y-12873D01*
X13722Y-13101D01*
X13897Y-13276D01*
X14125Y-13371D01*
X14373Y-13371D01*
X14601Y-13277D01*
X14776Y-13102D01*
X14871Y-12874D01*
X14871Y-12626D01*
X14871Y-21133D01*
X14795Y-21057D01*
X14604Y-20978D01*
X14396Y-20978D01*
X14204Y-21057D01*
X14057Y-21204D01*
X13978Y-21395D01*
X13978Y-21603D01*
X14057Y-21795D01*
X14204Y-21942D01*
X14395Y-22021D01*
X14489Y-22021D01*
X13678Y-22832D01*
X13603Y-22944D01*
X13577Y-23077D01*
X13577Y-33559D01*
X13603Y-33691D01*
X13678Y-33803D01*
X14544Y-34669D01*
X14544Y-42510D01*
X14570Y-42642D01*
X14645Y-42754D01*
X15395Y-43505D01*
X15395Y-43505D01*
X15462Y-43549D01*
X15507Y-43579D01*
X15507Y-43579D01*
X15572Y-43592D01*
X15572Y-43592D01*
X15707Y-43728D01*
X15426Y-43728D01*
X15335Y-43765D01*
X15265Y-43834D01*
X15228Y-43925D01*
X15228Y-44023D01*
X15228Y-44040D01*
X15192Y-43954D01*
X15045Y-43807D01*
X14854Y-43728D01*
X14646Y-43728D01*
X14454Y-43807D01*
X14451Y-43810D01*
X14451Y-36061D01*
X14451Y-34661D01*
X14414Y-34570D01*
X14345Y-34500D01*
X14254Y-34463D01*
X14156Y-34463D01*
X13571Y-34463D01*
X13571Y-31886D01*
X13485Y-31676D01*
X13324Y-31515D01*
X13287Y-31500D01*
X13323Y-31485D01*
X13484Y-31324D01*
X13571Y-31114D01*
X13571Y-30886D01*
X13485Y-30676D01*
X13324Y-30515D01*
X13287Y-30500D01*
X13323Y-30485D01*
X13484Y-30324D01*
X13571Y-30114D01*
X13571Y-29886D01*
X13485Y-29676D01*
X13324Y-29515D01*
X13287Y-29500D01*
X13323Y-29485D01*
X13484Y-29324D01*
X13571Y-29114D01*
X13571Y-28886D01*
X13485Y-28676D01*
X13324Y-28515D01*
X13287Y-28500D01*
X13323Y-28485D01*
X13484Y-28324D01*
X13571Y-28114D01*
X13571Y-27886D01*
X13485Y-27676D01*
X13324Y-27515D01*
X13287Y-27500D01*
X13323Y-27485D01*
X13484Y-27324D01*
X13571Y-27114D01*
X13571Y-26886D01*
X13485Y-26676D01*
X13324Y-26515D01*
X13287Y-26500D01*
X13323Y-26485D01*
X13484Y-26324D01*
X13571Y-26114D01*
X13571Y-25886D01*
X13571Y-22886D01*
X13485Y-22676D01*
X13324Y-22515D01*
X13287Y-22500D01*
X13323Y-22485D01*
X13484Y-22324D01*
X13571Y-22114D01*
X13571Y-21886D01*
X13485Y-21676D01*
X13324Y-21515D01*
X13287Y-21500D01*
X13323Y-21485D01*
X13484Y-21324D01*
X13571Y-21114D01*
X13571Y-20886D01*
X13485Y-20676D01*
X13324Y-20515D01*
X13287Y-20500D01*
X13323Y-20485D01*
X13484Y-20324D01*
X13571Y-20114D01*
X13571Y-19886D01*
X13485Y-19676D01*
X13324Y-19515D01*
X13287Y-19500D01*
X13323Y-19485D01*
X13484Y-19324D01*
X13571Y-19114D01*
X13571Y-18886D01*
X13485Y-18676D01*
X13324Y-18515D01*
X13287Y-18500D01*
X13323Y-18485D01*
X13484Y-18324D01*
X13571Y-18114D01*
X13571Y-17886D01*
X13485Y-17676D01*
X13324Y-17515D01*
X13287Y-17500D01*
X13323Y-17485D01*
X13484Y-17324D01*
X13571Y-17114D01*
X13571Y-16886D01*
X13485Y-16676D01*
X13378Y-16569D01*
X13464Y-16534D01*
X13534Y-16465D01*
X13571Y-16374D01*
X13571Y-16276D01*
X13571Y-15626D01*
X13534Y-15535D01*
X13465Y-15465D01*
X13374Y-15428D01*
X13276Y-15428D01*
X12626Y-15428D01*
X12535Y-15465D01*
X12465Y-15534D01*
X12428Y-15625D01*
X12428Y-15723D01*
X12428Y-16373D01*
X12465Y-16464D01*
X12534Y-16534D01*
X12621Y-16569D01*
X12515Y-16675D01*
X12428Y-16885D01*
X12428Y-17113D01*
X12514Y-17323D01*
X12675Y-17484D01*
X12712Y-17499D01*
X12676Y-17514D01*
X12515Y-17675D01*
X12428Y-17885D01*
X12428Y-18113D01*
X12514Y-18323D01*
X12675Y-18484D01*
X12712Y-18499D01*
X12676Y-18514D01*
X12515Y-18675D01*
X12428Y-18885D01*
X12428Y-19113D01*
X12514Y-19323D01*
X12675Y-19484D01*
X12712Y-19499D01*
X12676Y-19514D01*
X12515Y-19675D01*
X12428Y-19885D01*
X12428Y-20113D01*
X12514Y-20323D01*
X12675Y-20484D01*
X12712Y-20499D01*
X12676Y-20514D01*
X12515Y-20675D01*
X12428Y-20885D01*
X12428Y-21113D01*
X12514Y-21323D01*
X12675Y-21484D01*
X12712Y-21499D01*
X12676Y-21514D01*
X12515Y-21675D01*
X12428Y-21885D01*
X12428Y-22113D01*
X12514Y-22323D01*
X12675Y-22484D01*
X12712Y-22499D01*
X12676Y-22514D01*
X12515Y-22675D01*
X12428Y-22885D01*
X12428Y-23113D01*
X12514Y-23323D01*
X12675Y-23484D01*
X12885Y-23571D01*
X13113Y-23571D01*
X13323Y-23485D01*
X13484Y-23324D01*
X13571Y-23114D01*
X13571Y-22886D01*
X13571Y-25886D01*
X13485Y-25676D01*
X13378Y-25569D01*
X13464Y-25534D01*
X13534Y-25465D01*
X13571Y-25374D01*
X13571Y-25276D01*
X13571Y-24626D01*
X13534Y-24535D01*
X13465Y-24465D01*
X13374Y-24428D01*
X13276Y-24428D01*
X12626Y-24428D01*
X12535Y-24465D01*
X12465Y-24534D01*
X12428Y-24625D01*
X12428Y-24723D01*
X12428Y-25373D01*
X12465Y-25464D01*
X12534Y-25534D01*
X12621Y-25569D01*
X12515Y-25675D01*
X12428Y-25885D01*
X12428Y-26113D01*
X12514Y-26323D01*
X12675Y-26484D01*
X12712Y-26499D01*
X12676Y-26514D01*
X12515Y-26675D01*
X12428Y-26885D01*
X12428Y-27113D01*
X12514Y-27323D01*
X12675Y-27484D01*
X12712Y-27499D01*
X12676Y-27514D01*
X12515Y-27675D01*
X12428Y-27885D01*
X12428Y-28113D01*
X12514Y-28323D01*
X12675Y-28484D01*
X12712Y-28499D01*
X12676Y-28514D01*
X12515Y-28675D01*
X12428Y-28885D01*
X12428Y-29113D01*
X12514Y-29323D01*
X12675Y-29484D01*
X12712Y-29499D01*
X12676Y-29514D01*
X12515Y-29675D01*
X12428Y-29885D01*
X12428Y-30113D01*
X12514Y-30323D01*
X12675Y-30484D01*
X12712Y-30499D01*
X12676Y-30514D01*
X12515Y-30675D01*
X12428Y-30885D01*
X12428Y-31113D01*
X12514Y-31323D01*
X12675Y-31484D01*
X12712Y-31499D01*
X12676Y-31514D01*
X12515Y-31675D01*
X12428Y-31885D01*
X12428Y-32113D01*
X12514Y-32323D01*
X12675Y-32484D01*
X12885Y-32571D01*
X13113Y-32571D01*
X13323Y-32485D01*
X13484Y-32324D01*
X13571Y-32114D01*
X13571Y-31886D01*
X13571Y-34463D01*
X12756Y-34463D01*
X12665Y-34500D01*
X12595Y-34569D01*
X12558Y-34660D01*
X12558Y-34758D01*
X12558Y-36158D01*
X12595Y-36249D01*
X12664Y-36319D01*
X12755Y-36356D01*
X12853Y-36356D01*
X14253Y-36356D01*
X14344Y-36319D01*
X14414Y-36250D01*
X14451Y-36159D01*
X14451Y-36061D01*
X14451Y-43810D01*
X14307Y-43954D01*
X14228Y-44145D01*
X14228Y-44353D01*
X14307Y-44545D01*
X14454Y-44692D01*
X14645Y-44771D01*
X14853Y-44771D01*
X15045Y-44692D01*
X15192Y-44545D01*
X15228Y-44459D01*
X15228Y-44573D01*
X15265Y-44664D01*
X15334Y-44734D01*
X15404Y-44763D01*
X15404Y-44820D01*
X15431Y-44952D01*
X15505Y-45064D01*
X15654Y-45213D01*
X15654Y-45607D01*
X15557Y-45704D01*
X15478Y-45895D01*
X15478Y-46103D01*
X15557Y-46295D01*
X15704Y-46442D01*
X15895Y-46521D01*
X16103Y-46521D01*
X16295Y-46442D01*
X16442Y-46295D01*
X16478Y-46209D01*
X16478Y-46323D01*
X16515Y-46414D01*
X16584Y-46484D01*
X16654Y-46513D01*
X16654Y-48607D01*
X16557Y-48704D01*
X16499Y-48843D01*
X16442Y-48704D01*
X16295Y-48557D01*
X16104Y-48478D01*
X15896Y-48478D01*
X15704Y-48557D01*
X15557Y-48704D01*
X15499Y-48843D01*
X15442Y-48704D01*
X15295Y-48557D01*
X15104Y-48478D01*
X14896Y-48478D01*
X14704Y-48557D01*
X14557Y-48704D01*
X14521Y-48790D01*
X14521Y-45896D01*
X14442Y-45704D01*
X14295Y-45557D01*
X14104Y-45478D01*
X13896Y-45478D01*
X13704Y-45557D01*
X13557Y-45704D01*
X13478Y-45895D01*
X13478Y-46103D01*
X13557Y-46295D01*
X13704Y-46442D01*
X13895Y-46521D01*
X14103Y-46521D01*
X14295Y-46442D01*
X14442Y-46295D01*
X14521Y-46104D01*
X14521Y-45896D01*
X14521Y-48790D01*
X14499Y-48843D01*
X14442Y-48704D01*
X14295Y-48557D01*
X14104Y-48478D01*
X13896Y-48478D01*
X13704Y-48557D01*
X13557Y-48704D01*
X13478Y-48895D01*
X13478Y-49103D01*
X13557Y-49295D01*
X13704Y-49442D01*
X13895Y-49521D01*
X14103Y-49521D01*
X14295Y-49442D01*
X14442Y-49295D01*
X14500Y-49156D01*
X14557Y-49295D01*
X14704Y-49442D01*
X14895Y-49521D01*
X15103Y-49521D01*
X15295Y-49442D01*
X15442Y-49295D01*
X15500Y-49156D01*
X15557Y-49295D01*
X15704Y-49442D01*
X15895Y-49521D01*
X16103Y-49521D01*
X16295Y-49442D01*
X16442Y-49295D01*
X16500Y-49156D01*
X16557Y-49295D01*
X16704Y-49442D01*
X16895Y-49521D01*
X17103Y-49521D01*
X17295Y-49442D01*
X17442Y-49295D01*
X17521Y-49104D01*
X17521Y-48896D01*
X17442Y-48704D01*
X17345Y-48607D01*
X17345Y-46513D01*
X17414Y-46484D01*
X17484Y-46415D01*
X17521Y-46324D01*
X17521Y-46226D01*
X17521Y-45676D01*
X17484Y-45585D01*
X17415Y-45515D01*
X17345Y-45486D01*
X17345Y-45429D01*
X17318Y-45297D01*
X17318Y-45297D01*
X17244Y-45185D01*
X17244Y-45185D01*
X16774Y-44716D01*
X16774Y-43961D01*
X16748Y-43829D01*
X16748Y-43829D01*
X16718Y-43784D01*
X16673Y-43717D01*
X16673Y-43717D01*
X15972Y-43016D01*
X15860Y-42941D01*
X15795Y-42928D01*
X15234Y-42367D01*
X15234Y-36337D01*
X15245Y-36341D01*
X15343Y-36341D01*
X16743Y-36341D01*
X16834Y-36304D01*
X16904Y-36235D01*
X16941Y-36144D01*
X16941Y-36046D01*
X16941Y-34646D01*
X16904Y-34555D01*
X16835Y-34485D01*
X16744Y-34448D01*
X16646Y-34448D01*
X15246Y-34448D01*
X15221Y-34458D01*
X15208Y-34393D01*
X15208Y-34393D01*
X15133Y-34281D01*
X14268Y-33416D01*
X14268Y-31968D01*
X14395Y-32021D01*
X14533Y-32021D01*
X14654Y-32143D01*
X14654Y-32486D01*
X14585Y-32515D01*
X14515Y-32584D01*
X14478Y-32675D01*
X14478Y-32773D01*
X14478Y-33323D01*
X14515Y-33414D01*
X14584Y-33484D01*
X14675Y-33521D01*
X14773Y-33521D01*
X15323Y-33521D01*
X15414Y-33484D01*
X15484Y-33415D01*
X15521Y-33324D01*
X15521Y-33226D01*
X15521Y-32676D01*
X15484Y-32585D01*
X15415Y-32515D01*
X15345Y-32486D01*
X15345Y-32000D01*
X15318Y-31867D01*
X15318Y-31867D01*
X15289Y-31823D01*
X15244Y-31755D01*
X15244Y-31755D01*
X15021Y-31533D01*
X15021Y-31396D01*
X14942Y-31204D01*
X14795Y-31057D01*
X14604Y-30978D01*
X14396Y-30978D01*
X14268Y-31031D01*
X14268Y-28968D01*
X14395Y-29021D01*
X14603Y-29021D01*
X14795Y-28942D01*
X14942Y-28795D01*
X15021Y-28604D01*
X15021Y-28396D01*
X14942Y-28204D01*
X14795Y-28057D01*
X14604Y-27978D01*
X14396Y-27978D01*
X14268Y-28031D01*
X14268Y-23968D01*
X14395Y-24021D01*
X14603Y-24021D01*
X14795Y-23942D01*
X14942Y-23795D01*
X15021Y-23604D01*
X15021Y-23396D01*
X14942Y-23204D01*
X14795Y-23057D01*
X14604Y-22978D01*
X14510Y-22978D01*
X15966Y-21521D01*
X16103Y-21521D01*
X16295Y-21442D01*
X16442Y-21295D01*
X16500Y-21156D01*
X16557Y-21295D01*
X16704Y-21442D01*
X16895Y-21521D01*
X17033Y-21521D01*
X18989Y-23478D01*
X18896Y-23478D01*
X18704Y-23557D01*
X18557Y-23704D01*
X18499Y-23843D01*
X18442Y-23704D01*
X18295Y-23557D01*
X18104Y-23478D01*
X17896Y-23478D01*
X17704Y-23557D01*
X17557Y-23704D01*
X17499Y-23843D01*
X17442Y-23704D01*
X17295Y-23557D01*
X17104Y-23478D01*
X16896Y-23478D01*
X16704Y-23557D01*
X16557Y-23704D01*
X16521Y-23790D01*
X16521Y-23676D01*
X16484Y-23585D01*
X16415Y-23515D01*
X16324Y-23478D01*
X16226Y-23478D01*
X15676Y-23478D01*
X15585Y-23515D01*
X15515Y-23584D01*
X15478Y-23675D01*
X15478Y-23773D01*
X15478Y-24323D01*
X15515Y-24414D01*
X15584Y-24484D01*
X15675Y-24521D01*
X15773Y-24521D01*
X15790Y-24521D01*
X15704Y-24557D01*
X15557Y-24704D01*
X15478Y-24895D01*
X15478Y-25103D01*
X15557Y-25295D01*
X15704Y-25442D01*
X15895Y-25521D01*
X16103Y-25521D01*
X16295Y-25442D01*
X16442Y-25295D01*
X16521Y-25104D01*
X16521Y-24896D01*
X16442Y-24704D01*
X16295Y-24557D01*
X16209Y-24521D01*
X16323Y-24521D01*
X16414Y-24484D01*
X16484Y-24415D01*
X16521Y-24324D01*
X16521Y-24226D01*
X16521Y-24209D01*
X16557Y-24295D01*
X16704Y-24442D01*
X16895Y-24521D01*
X17103Y-24521D01*
X17225Y-24471D01*
X17225Y-27117D01*
X16937Y-27404D01*
X16833Y-27404D01*
X16942Y-27295D01*
X17021Y-27104D01*
X17021Y-26896D01*
X16942Y-26704D01*
X16795Y-26557D01*
X16656Y-26499D01*
X16795Y-26442D01*
X16942Y-26295D01*
X17021Y-26104D01*
X17021Y-25896D01*
X16942Y-25704D01*
X16795Y-25557D01*
X16604Y-25478D01*
X16396Y-25478D01*
X16204Y-25557D01*
X16057Y-25704D01*
X15978Y-25895D01*
X15978Y-26103D01*
X16057Y-26295D01*
X16204Y-26442D01*
X16343Y-26500D01*
X16204Y-26557D01*
X16057Y-26704D01*
X15978Y-26895D01*
X15978Y-27103D01*
X16057Y-27295D01*
X16204Y-27442D01*
X16257Y-27464D01*
X16195Y-27505D01*
X16195Y-27505D01*
X15250Y-28450D01*
X15176Y-28562D01*
X15149Y-28695D01*
X15149Y-31005D01*
X15176Y-31137D01*
X15250Y-31249D01*
X15868Y-31866D01*
X15868Y-31866D01*
X15898Y-31886D01*
X15898Y-31886D01*
X16478Y-32466D01*
X16478Y-32603D01*
X16557Y-32795D01*
X16704Y-32942D01*
X16895Y-33021D01*
X17103Y-33021D01*
X17295Y-32942D01*
X17442Y-32795D01*
X17521Y-32604D01*
X17521Y-32396D01*
X17442Y-32204D01*
X17295Y-32057D01*
X17104Y-31978D01*
X16966Y-31978D01*
X16536Y-31548D01*
X16616Y-31581D01*
X16714Y-31581D01*
X17383Y-31581D01*
X17474Y-31544D01*
X17543Y-31474D01*
X17581Y-31383D01*
X17581Y-31285D01*
X17581Y-30616D01*
X17544Y-30525D01*
X17474Y-30456D01*
X17383Y-30418D01*
X17285Y-30418D01*
X16616Y-30418D01*
X16525Y-30455D01*
X16456Y-30525D01*
X16418Y-30616D01*
X16418Y-30714D01*
X16418Y-31383D01*
X16451Y-31463D01*
X16366Y-31378D01*
X16336Y-31358D01*
X15840Y-30861D01*
X15840Y-28838D01*
X16583Y-28095D01*
X17080Y-28095D01*
X17213Y-28068D01*
X17325Y-27994D01*
X17814Y-27504D01*
X17814Y-27504D01*
X17814Y-27504D01*
X17859Y-27437D01*
X17889Y-27392D01*
X17889Y-27392D01*
X17915Y-27260D01*
X17915Y-24572D01*
X17966Y-24521D01*
X18103Y-24521D01*
X18295Y-24442D01*
X18442Y-24295D01*
X18500Y-24156D01*
X18557Y-24295D01*
X18704Y-24442D01*
X18843Y-24500D01*
X18704Y-24557D01*
X18557Y-24704D01*
X18478Y-24895D01*
X18478Y-25103D01*
X18557Y-25295D01*
X18704Y-25442D01*
X18895Y-25521D01*
X19103Y-25521D01*
X19225Y-25471D01*
X19225Y-26236D01*
X19021Y-26033D01*
X19021Y-25896D01*
X18942Y-25704D01*
X18795Y-25557D01*
X18604Y-25478D01*
X18396Y-25478D01*
X18204Y-25557D01*
X18057Y-25704D01*
X17978Y-25895D01*
X17978Y-26103D01*
X18057Y-26295D01*
X18204Y-26442D01*
X18343Y-26500D01*
X18204Y-26557D01*
X18057Y-26704D01*
X17978Y-26895D01*
X17978Y-27103D01*
X18057Y-27295D01*
X18204Y-27442D01*
X18395Y-27521D01*
X18603Y-27521D01*
X18732Y-27468D01*
X18732Y-27778D01*
X17856Y-28654D01*
X17476Y-28654D01*
X17329Y-28507D01*
X17116Y-28418D01*
X16884Y-28418D01*
X16671Y-28506D01*
X16507Y-28670D01*
X16418Y-28883D01*
X16418Y-29115D01*
X16506Y-29328D01*
X16670Y-29492D01*
X16883Y-29581D01*
X17115Y-29581D01*
X17328Y-29493D01*
X17477Y-29345D01*
X17654Y-29345D01*
X17654Y-29523D01*
X17507Y-29670D01*
X17418Y-29883D01*
X17418Y-30115D01*
X17506Y-30328D01*
X17670Y-30492D01*
X17883Y-30581D01*
X18115Y-30581D01*
X18328Y-30493D01*
X18492Y-30329D01*
X18581Y-30116D01*
X18581Y-29884D01*
X18493Y-29671D01*
X18345Y-29522D01*
X18345Y-29143D01*
X19225Y-28263D01*
X19225Y-29539D01*
X19129Y-29635D01*
X19054Y-29747D01*
X19028Y-29879D01*
X19028Y-32572D01*
X18021Y-33579D01*
X18021Y-33396D01*
X17942Y-33204D01*
X17795Y-33057D01*
X17604Y-32978D01*
X17396Y-32978D01*
X17204Y-33057D01*
X17057Y-33204D01*
X16978Y-33395D01*
X16978Y-33603D01*
X17057Y-33795D01*
X17204Y-33942D01*
X17395Y-34021D01*
X17579Y-34021D01*
X17271Y-34329D01*
X17196Y-34442D01*
X17170Y-34574D01*
X17170Y-43194D01*
X17196Y-43327D01*
X17271Y-43439D01*
X17594Y-43761D01*
X17585Y-43765D01*
X17515Y-43834D01*
X17478Y-43925D01*
X17478Y-44023D01*
X17478Y-44573D01*
X17515Y-44664D01*
X17584Y-44734D01*
X17675Y-44771D01*
X17773Y-44771D01*
X18323Y-44771D01*
X18414Y-44734D01*
X18484Y-44665D01*
X18521Y-44574D01*
X18521Y-44476D01*
X18521Y-43926D01*
X18484Y-43835D01*
X18415Y-43765D01*
X18345Y-43736D01*
X18345Y-43679D01*
X18345Y-43679D01*
X18345Y-43679D01*
X18340Y-43653D01*
X18318Y-43547D01*
X18318Y-43547D01*
X18244Y-43435D01*
X18244Y-43435D01*
X17860Y-43051D01*
X17860Y-42713D01*
X17866Y-42713D01*
X19266Y-42713D01*
X19357Y-42676D01*
X19427Y-42607D01*
X19464Y-42516D01*
X19464Y-42418D01*
X19464Y-41018D01*
X19427Y-40927D01*
X19358Y-40857D01*
X19267Y-40820D01*
X19169Y-40820D01*
X17860Y-40820D01*
X17860Y-36356D01*
X17863Y-36356D01*
X19263Y-36356D01*
X19354Y-36319D01*
X19424Y-36250D01*
X19461Y-36159D01*
X19461Y-36061D01*
X19461Y-34661D01*
X19424Y-34570D01*
X19355Y-34500D01*
X19264Y-34463D01*
X19166Y-34463D01*
X18114Y-34463D01*
X18978Y-33599D01*
X18978Y-33603D01*
X19057Y-33795D01*
X19204Y-33942D01*
X19395Y-34021D01*
X19603Y-34021D01*
X19795Y-33942D01*
X19892Y-33845D01*
X20560Y-33845D01*
X20692Y-33818D01*
X20804Y-33744D01*
X21698Y-32850D01*
X23256Y-32850D01*
X23414Y-33008D01*
X23414Y-33098D01*
X23327Y-33011D01*
X23115Y-32923D01*
X22885Y-32923D01*
X22673Y-33010D01*
X22511Y-33172D01*
X22423Y-33384D01*
X22423Y-33614D01*
X22510Y-33826D01*
X22672Y-33988D01*
X22884Y-34076D01*
X23114Y-34076D01*
X23326Y-33989D01*
X23414Y-33901D01*
X23414Y-34050D01*
X23441Y-34182D01*
X23515Y-34294D01*
X23645Y-34424D01*
X23645Y-34424D01*
X23713Y-34469D01*
X23757Y-34498D01*
X23757Y-34498D01*
X23890Y-34525D01*
X25477Y-34525D01*
X25488Y-34536D01*
X25411Y-34536D01*
X24011Y-34536D01*
X23920Y-34573D01*
X23850Y-34642D01*
X23813Y-34733D01*
X23813Y-34831D01*
X23813Y-36231D01*
X23850Y-36322D01*
X23919Y-36392D01*
X24010Y-36429D01*
X24108Y-36429D01*
X25508Y-36429D01*
X25599Y-36392D01*
X25669Y-36323D01*
X25706Y-36232D01*
X25706Y-36134D01*
X25706Y-34754D01*
X25740Y-34787D01*
X25740Y-40180D01*
X25740Y-42835D01*
X25766Y-42967D01*
X25841Y-43079D01*
X26728Y-43966D01*
X26728Y-44103D01*
X26807Y-44295D01*
X26954Y-44442D01*
X27145Y-44521D01*
X27353Y-44521D01*
X27545Y-44442D01*
X27692Y-44295D01*
X27750Y-44156D01*
X27807Y-44295D01*
X27954Y-44442D01*
X28145Y-44521D01*
X28353Y-44521D01*
X28545Y-44442D01*
X28692Y-44295D01*
X28750Y-44156D01*
X28807Y-44295D01*
X28954Y-44442D01*
X29145Y-44521D01*
X29353Y-44521D01*
X29545Y-44442D01*
X29692Y-44295D01*
X29750Y-44156D01*
X29807Y-44295D01*
X29954Y-44442D01*
X30145Y-44521D01*
X30353Y-44521D01*
X30545Y-44442D01*
X30692Y-44295D01*
X30714Y-44242D01*
X30714Y-45559D01*
X30740Y-45691D01*
X30815Y-45803D01*
X31477Y-46465D01*
X31477Y-46603D01*
X31556Y-46795D01*
X31703Y-46942D01*
X31895Y-47022D01*
X32103Y-47022D01*
X32295Y-46943D01*
X32442Y-46796D01*
X32522Y-46604D01*
X32522Y-46396D01*
X32443Y-46204D01*
X32296Y-46057D01*
X32104Y-45977D01*
X31965Y-45977D01*
X31404Y-45416D01*
X31404Y-45144D01*
X31502Y-45242D01*
X31824Y-45376D01*
X32173Y-45376D01*
X32496Y-45243D01*
X32742Y-44997D01*
X32822Y-44806D01*
X32822Y-49822D01*
M02*
